<svg width="269" height="366" viewBox="0 0 269 366" fill="none" xmlns="http://www.w3.org/2000/svg">
<path fill-rule="evenodd" clip-rule="evenodd" d="M103.07 331.413C103.07 331.413 110.421 343.166 133.558 335.675C133.558 335.675 115.689 314.549 103.07 331.413Z" fill="#05293C"/>
<path fill-rule="evenodd" clip-rule="evenodd" d="M199.436 330.035C199.436 330.035 184.195 343.496 166.477 335.854C166.477 335.854 189.38 315.486 199.436 330.035Z" fill="#05293C"/>
<path fill-rule="evenodd" clip-rule="evenodd" d="M192.938 325.13C192.938 325.13 192.283 338.84 199.565 342.571C206.848 346.301 213.811 340.406 215.344 354.213L182.58 358.526L178.025 359.125L174.236 359.624L173.365 330.248L192.938 325.13Z" fill="#247B9F"/>
<path d="M214.783 350.869L181.272 355.088L174.127 355.988" stroke="#ECF2F5" stroke-width="1.086"/>
<path d="M173.874 347.432C170.705 346.949 181.192 347.419 181.273 355.088" stroke="#ECF2F5" stroke-width="1.086"/>
<path d="M199.564 342.57L196.219 347.592" stroke="#ECF2F5" stroke-width="1.086"/>
<path d="M197.689 341.409L194.344 346.43" stroke="#ECF2F5" stroke-width="1.086"/>
<path d="M196.333 339.603L192.986 344.625" stroke="#ECF2F5" stroke-width="1.086"/>
<path fill-rule="evenodd" clip-rule="evenodd" d="M129.307 330.15C129.307 330.15 123.602 342.633 128.976 348.805C134.35 354.976 143.005 352.091 139.296 365.479L107.277 357.301L102.825 356.164L99.123 355.218L109.234 327.624L129.307 330.15Z" fill="#247B9F"/>
<path d="M140.02 362.166L107.343 353.624L100.375 351.803" stroke="#ECF2F5" stroke-width="1.086"/>
<path d="M103.321 343.766C100.559 342.138 110.121 346.474 107.344 353.624" stroke="#ECF2F5" stroke-width="1.086"/>
<path d="M128.977 348.805L124.004 352.222" stroke="#ECF2F5" stroke-width="1.086"/>
<path d="M127.667 347.029L122.693 350.446" stroke="#ECF2F5" stroke-width="1.086"/>
<path d="M127.081 344.848L122.107 348.265" stroke="#ECF2F5" stroke-width="1.086"/>
<path fill-rule="evenodd" clip-rule="evenodd" d="M207.68 55.6971C207.68 55.6971 213.794 49.6454 216.43 46.6417C219.067 43.6374 222.474 40.0679 224.221 37.6005C225.968 35.1325 228.392 29.9316 229.313 30.2858C230.234 30.6406 228.384 36.2364 228.604 37.3001C228.824 38.3638 231.46 34.8546 232.881 32.684C234.301 30.514 237.795 25.5787 238.45 26.4975C239.105 27.4169 236.708 31.4896 236.206 32.5001C235.702 33.5106 234.343 36.4522 235.764 34.7872C237.186 33.121 240.816 27.9674 241.728 28.1933C242.64 28.4197 240.006 32.9383 239.119 34.4833C238.231 36.0289 237.66 38.6624 239.901 35.5606C242.143 32.4588 244.286 30.4283 244.653 30.9806C245.021 31.5328 243.986 33.6726 242.95 35.3075C241.914 36.9424 240.909 39.4683 242.331 37.8027C243.753 36.1377 246.509 33.163 246.778 34.1125C247.047 35.0621 221.153 70.8941 221.153 70.8941L207.68 55.6971Z" fill="#FDC0B9"/>
<path d="M228.707 38.9647C228.649 39.5808 228.059 41.9578 225.898 45.0797" stroke="#0D0D0B" stroke-width="1.471" stroke-linecap="round"/>
<path d="M232.899 37.629C232.811 37.9856 239.677 42.3368 239.677 42.3368" stroke="#0D0D0B" stroke-width="1.471" stroke-linecap="round"/>
<path fill-rule="evenodd" clip-rule="evenodd" d="M164.745 143.772C167.234 144.46 166.434 143.915 169.856 143.325C171.231 143.089 172.972 143.056 174.904 142.326C176.32 141.791 177.865 141.027 179.581 140.121C180.965 139.39 182.568 138.705 184.148 137.679C185.488 136.811 186.743 135.593 188.224 134.481C189.516 133.511 190.923 132.517 192.323 131.341C193.573 130.291 194.59 128.852 195.925 127.623C197.136 126.512 198.458 125.42 199.737 124.151C200.912 122.987 202.443 122.075 203.676 120.771C204.772 119.612 205.695 118.123 206.73 116.629C207.658 115.289 208.474 113.777 209.349 112.225C210.162 110.783 211.059 109.316 211.823 107.736C212.553 106.227 213.068 104.581 213.752 102.986C214.418 101.429 215.042 99.8382 215.661 98.2353C216.277 96.6394 216.89 95.043 217.457 93.4376C218.032 91.8087 218.5 90.1608 219.023 88.5584C219.564 86.8969 220.341 85.3448 220.823 83.7519C221.337 82.052 221.52 80.319 221.963 78.7456C222.459 76.9907 222.96 75.3475 223.362 73.8161C223.853 71.9459 224.191 70.2531 224.537 68.8317C225.293 65.7245 227.123 66.2147 225.829 64.0039C224.608 61.9185 224.162 62.3223 222.426 60.6407C220.689 58.9586 220.628 59.02 218.891 57.3373C217.153 55.6539 217.417 55.3819 215.678 53.6974C213.94 52.0134 214.239 51.5564 212.106 50.4122C209.963 49.2634 210.327 50.9385 207.493 52.0465C206.202 52.5515 204.644 53.086 202.952 53.8062C201.574 54.3927 200.137 55.1827 198.562 55.9064C197.157 56.5526 195.825 57.5336 194.313 58.2857C192.904 58.9857 191.293 59.4085 189.828 60.1979C188.426 60.9523 186.953 61.6601 185.532 62.4926C184.146 63.305 182.951 64.4669 181.577 65.352C180.217 66.2277 178.637 66.7977 177.316 67.742C175.992 68.6892 174.934 69.9876 173.678 71.0011C172.405 72.0293 170.91 72.7909 169.735 73.8859C168.533 75.0076 167.408 76.2079 166.341 77.3975C165.127 78.7515 164.258 80.28 163.203 81.524C162.013 82.9248 160.728 84.0973 159.726 85.3644C158.57 86.8248 157.494 88.1759 156.564 89.466C155.452 91.0116 154.791 92.6353 153.967 93.9503C152.916 95.6265 151.903 97.009 151.247 98.3411C150.295 100.273 149.576 101.823 149.236 103.115C148.247 106.883 148.691 105.707 149.226 108.234C149.777 110.84 149.341 110.304 149.174 113.497C149.093 115.052 148.664 116.858 148.739 118.813C148.803 120.502 148.868 122.323 149.138 124.146C149.394 125.875 150.266 127.514 150.781 129.231C151.292 130.934 151.627 132.704 152.462 134.267C153.299 135.833 154.564 137.078 155.795 138.375C156.986 139.628 158.277 140.727 159.901 141.611C161.367 142.408 162.877 143.366 164.745 143.772Z" fill="#F85C39"/>
<path fill-rule="evenodd" clip-rule="evenodd" d="M166.529 335.796C164.552 334.124 166.523 333.972 166.714 330.683C166.798 329.225 166.875 327.49 166.96 325.516C167.027 323.936 167.268 322.212 167.322 320.35C167.369 318.72 167.609 316.993 167.638 315.177C167.664 313.521 167.266 311.788 167.271 309.997C167.275 308.323 167.678 306.593 167.658 304.819C167.64 303.134 167.601 301.405 167.556 299.644C167.514 297.949 167.52 296.216 167.449 294.464C167.38 292.763 167.148 291.04 167.049 289.297C166.953 287.59 167.006 285.85 166.877 284.115C166.751 282.404 166.312 280.704 166.15 278.976C165.991 277.263 165.699 275.557 165.503 273.838C165.308 272.123 165.247 270.39 165.013 268.68C164.777 266.959 164.354 265.304 164.08 263.664C163.795 261.948 163.441 260.29 163.119 258.661C162.78 256.952 162.309 255.322 161.934 253.707C161.541 252.007 161.088 250.379 160.659 248.781C160.206 247.091 160.352 245.28 159.866 243.701C159.35 242.025 158.443 240.529 157.896 238.975C157.314 237.315 156.499 235.814 155.891 234.29C155.236 232.65 154.736 231.027 154.062 229.539C153.33 227.92 152.505 226.442 151.764 224.998C150.947 223.403 150.072 221.961 149.264 220.574C148.348 219.003 147.436 217.591 146.559 216.275C145.527 214.724 144.621 213.305 143.685 212.088C142.479 210.523 141.384 209.244 140.426 208.196C138.193 205.755 137.256 204.453 137.256 204.453C136.878 201.904 136.625 202.469 136.42 199.373C136.32 197.87 135.999 196.116 135.99 194.222C135.983 192.584 136.438 190.852 136.561 189.077C136.68 187.38 136.586 185.619 136.877 183.923C137.172 182.199 137.446 180.446 137.972 178.853C138.533 177.157 139.22 175.482 140.107 174.09C141.059 172.595 142.334 171.262 143.739 170.306C145.094 169.386 146.85 169.091 148.699 168.849C150.222 168.651 151.883 168.774 153.785 169.145C155.299 169.44 157.175 169.503 158.951 170.214C160.95 171.724 159.991 171.795 161.766 174.498C162.537 175.672 163.534 177.036 164.546 178.676C165.344 179.971 166.049 181.509 166.965 183.079C167.755 184.431 168.415 185.983 169.275 187.532C170.047 188.926 170.701 190.47 171.516 192.016C172.267 193.439 173.302 194.786 174.078 196.334C174.804 197.783 175.235 199.432 175.974 200.986C176.674 202.457 177.413 203.952 178.119 205.514C178.791 207.004 179.816 208.38 180.486 209.95C181.13 211.457 181.763 213.009 182.4 214.588C183.014 216.112 183.181 217.84 183.784 219.428C184.368 220.968 185.461 222.347 186.03 223.945C186.584 225.498 186.787 227.198 187.321 228.804C187.842 230.371 188.793 231.824 189.292 233.439C189.78 235.02 190.073 236.682 190.536 238.307C190.99 239.898 191.419 241.518 191.845 243.152C192.265 244.755 192.275 246.475 192.665 248.115C193.047 249.728 193.604 251.313 193.956 252.961C194.302 254.584 194.636 256.222 194.949 257.878C195.258 259.509 195.828 261.109 196.101 262.771C196.376 264.445 196.12 266.233 196.356 267.973C196.586 269.666 196.794 271.377 196.989 273.112C197.182 274.819 197.345 276.536 197.507 278.265C197.668 279.983 197.986 281.69 198.119 283.413C198.253 285.143 198.269 286.875 198.378 288.592C198.488 290.332 199.106 292.032 199.192 293.741C199.28 295.494 198.937 297.244 199.003 298.942C199.072 300.709 199.357 302.433 199.405 304.119C199.455 305.903 199.564 307.635 199.596 309.302C199.629 311.113 199.694 312.848 199.709 314.487C199.726 316.346 199.562 318.085 199.561 319.674C199.561 321.644 199.628 323.388 199.613 324.856C199.58 328.13 199.347 330.246 199.347 330.246C197.115 329.272 197.906 329.348 194.668 329.142C193.338 329.057 191.741 329.351 189.825 329.502C188.387 329.614 186.806 329.805 185.025 330.127C183.56 330.393 181.983 330.679 180.28 331.127C178.813 331.513 177.305 332.071 175.657 332.618C174.203 333.101 172.693 333.645 171.095 334.271C169.654 334.835 168.087 335.102 166.529 335.796Z" fill="#FFA400"/>
<path fill-rule="evenodd" clip-rule="evenodd" d="M133.439 335.397C135.795 334.407 133.818 333.821 134.633 330.673C134.995 329.275 135.397 327.606 135.872 325.713C136.253 324.2 137.216 322.675 137.653 320.889C138.035 319.325 138.322 317.635 138.737 315.892C139.116 314.299 139.429 312.618 139.828 310.895C140.201 309.284 140.619 307.627 141.002 305.919C141.368 304.293 141.475 302.568 141.844 300.868C142.201 299.231 142.586 297.569 142.941 295.877C143.288 294.228 143.384 292.508 143.725 290.82C144.06 289.164 144.512 287.516 144.838 285.833C145.16 284.166 145.942 282.577 146.252 280.895C146.559 279.219 146.389 277.455 146.68 275.775C146.971 274.091 147.33 272.422 147.6 270.744C147.873 269.051 148.384 267.403 148.631 265.728C148.881 264.024 148.994 262.314 149.214 260.642C149.438 258.928 149.332 257.199 149.52 255.53C149.713 253.803 150.49 252.166 150.638 250.502C150.793 248.762 150.731 247.04 150.831 245.384C150.938 243.626 151.247 241.921 151.284 240.276C151.324 238.497 150.985 236.783 150.936 235.158C150.883 233.387 150.661 231.668 150.598 229.99C150.532 228.215 150.879 226.475 150.803 224.802C150.722 223.023 150.375 221.312 150.284 219.644C150.187 217.86 150.353 216.121 150.245 214.461C150.129 212.67 149.652 210.975 149.525 209.322C149.387 207.524 149.642 205.772 149.493 204.13C149.329 202.323 148.903 200.63 148.727 199.002C148.531 197.181 148.068 195.501 147.862 193.893C147.624 192.052 147.519 190.332 147.273 188.753C146.982 186.883 146.655 185.198 146.359 183.665C145.987 181.739 145.771 180.033 145.407 178.579C144.89 176.518 144.364 174.902 143.903 173.631C142.499 169.766 141.647 168.899 141.647 168.899C140.284 167.749 138.675 167.09 137.385 166.196C135.906 165.173 134.71 163.899 133.328 163.183C131.72 162.35 130.129 161.684 128.651 161.217C126.924 160.673 125.176 160.79 123.626 160.667C121.843 160.526 120.208 160.642 118.659 160.94C116.932 161.273 115.291 161.644 113.856 162.354C112.283 163.133 110.791 164.005 109.569 165.015C108.155 166.183 107.118 167.595 106.175 168.736C104.293 171.012 103.773 170.38 103.09 172.793C102.376 175.32 103.336 174.95 103.245 178.113C103.201 179.647 102.865 181.432 102.888 183.362C102.908 185.03 102.994 186.81 103.104 188.615C103.211 190.35 103.384 192.122 103.608 193.85C103.84 195.635 104.339 197.345 104.731 198.981C105.118 200.589 105.662 202.208 106.106 203.929C106.517 205.522 106.392 207.315 106.831 209.043C107.236 210.635 108.092 212.181 108.504 213.918C108.884 215.517 108.956 217.252 109.33 218.997C109.674 220.605 110.171 222.246 110.5 223.997C110.803 225.617 111.051 227.308 111.333 229.064C111.596 230.694 112.044 232.356 112.283 234.115C112.504 235.754 112.796 237.446 112.991 239.207C113.174 240.855 112.932 242.599 113.087 244.36C113.233 246.016 113.547 247.706 113.664 249.468C113.775 251.129 113.701 252.847 113.784 254.608C113.864 256.287 113.973 258.009 113.971 259.782C113.968 261.476 113.846 263.199 113.777 264.959C113.711 266.662 114.102 268.419 113.981 270.166C113.862 271.875 113.127 273.552 112.962 275.287C112.8 277.001 113.002 278.761 112.802 280.484C112.602 282.202 112.033 283.875 111.803 285.586C111.57 287.309 111.915 289.109 111.657 290.809C111.396 292.536 111.069 294.243 110.788 295.93C110.5 297.664 110.155 299.365 109.854 301.038C109.54 302.78 108.782 304.402 108.463 306.058C108.125 307.814 108.182 309.592 107.848 311.225C107.484 313.002 107.308 314.741 106.962 316.343C106.568 318.163 105.785 319.77 105.432 321.32C104.994 323.242 104.68 324.96 104.337 326.388C103.571 329.574 103.297 331.558 103.297 331.558C104.751 329.275 104.211 329.845 107.804 329.148C109.198 328.878 110.905 328.891 113.128 329.099C114.673 329.243 116.449 329.302 118.46 329.81C120.027 330.207 121.854 330.407 123.734 331.084C125.294 331.646 126.782 332.776 128.572 333.563C130.114 334.241 131.716 334.53 133.439 335.397Z" fill="#FFA400"/>
<path fill-rule="evenodd" clip-rule="evenodd" d="M163.511 181.104C164.328 178.672 163.535 178.527 163.816 175.976C164.096 173.425 164.222 173.438 164.503 170.888C164.783 168.336 164.825 168.34 165.106 165.79C165.387 163.239 165.428 163.243 165.709 160.693C165.99 158.142 166.257 158.172 166.538 155.62C166.818 153.07 166.474 153.032 166.755 150.481C167.035 147.93 167.394 147.969 167.675 145.418C167.956 142.865 167.783 142.846 168.063 140.294C168.344 137.742 168.051 137.71 168.331 135.158C168.613 132.605 168.827 132.629 169.108 130.075C169.389 127.522 169.633 127.54 169.728 124.973C169.42 123.245 169.041 121.528 168.473 119.92C167.886 118.263 166.86 116.851 165.942 115.407C165.016 113.948 164.041 112.572 162.72 111.418C161.464 110.32 160.03 109.434 158.368 108.689C156.89 108.027 155.314 107.331 153.479 107.004C151.897 106.722 150.169 106.723 148.298 106.726C146.559 106.729 144.88 106.824 143.253 106.858C141.509 106.894 139.811 106.477 138.194 106.554C136.443 106.638 134.792 107.198 133.186 107.336C131.429 107.487 129.768 107.68 128.182 107.905C126.425 108.156 124.789 108.474 123.238 108.827C121.497 109.224 119.874 109.593 118.387 110.138C116.711 110.752 115.039 111.173 113.676 111.999C112.183 112.903 111.131 114.273 110 115.464C108.855 116.671 107.456 117.753 106.669 119.291C105.942 120.712 105.605 122.422 105.175 124.155C104.795 125.683 104.423 127.338 104.267 129.129C104.13 130.703 104.206 132.399 104.235 134.188C104.461 136.82 104.856 136.779 105.142 139.406C105.428 142.031 104.824 142.096 105.111 144.723C105.397 147.348 105.499 147.338 105.785 149.963C106.072 152.589 106.426 152.55 106.713 155.176C106.999 157.803 106.861 157.818 107.147 160.445C107.433 163.072 107.559 163.058 107.845 165.686C108.131 168.312 107.806 168.348 108.093 170.974C108.379 173.603 108.663 173.572 108.949 176.201C109.236 178.829 108.132 179.143 109.135 181.588C110.091 183.917 111.3 181.839 114.336 182.588C115.734 182.934 117.296 183.732 119.153 184.113C120.678 184.427 122.355 184.696 124.118 184.985C125.705 185.245 127.439 184.999 129.168 185.206C130.793 185.403 132.435 185.833 134.145 185.955C135.798 186.073 137.479 186.122 139.174 186.147C140.845 186.173 142.544 186.53 144.224 186.442C145.906 186.355 147.56 185.847 149.215 185.624C150.893 185.397 152.529 185.034 154.144 184.644C155.796 184.246 157.317 183.569 158.865 182.974C160.45 182.365 162.076 181.946 163.511 181.104Z" fill="#F85C39"/>
<path fill-rule="evenodd" clip-rule="evenodd" d="M110.906 328.662C113.781 317.502 116.251 306.29 118.487 295.024C118.767 293.616 119.113 292.219 119.37 290.806L120.173 286.57C120.758 283.752 121.127 280.9 121.546 278.053C121.754 276.63 121.88 275.197 122.01 273.765C122.134 272.333 122.272 270.901 122.378 269.468C122.493 268.035 122.509 266.595 122.557 265.159L122.685 260.851C122.672 249.37 122.113 237.869 119.67 226.706C118.549 221.094 117.151 215.522 115.726 209.955C114.299 204.387 112.753 198.843 111.218 193.286L111.401 193.224C113.544 198.582 115.436 204.035 117.184 209.537C118.915 215.046 120.452 220.621 121.681 226.286C122.276 229.121 122.818 231.976 123.161 234.871C123.264 235.593 123.326 236.316 123.378 237.039L123.551 239.208L123.896 243.542C124.029 246.435 124.051 249.332 124.098 252.225C124.017 255.116 123.871 258.005 123.738 260.889L123.03 269.519C122.868 270.952 122.739 272.388 122.594 273.823C122.442 275.256 122.364 276.697 122.166 278.125C121.542 283.856 121.001 289.612 120.064 295.314C119.625 298.17 119.051 301.001 118.431 303.821C117.814 306.643 117.127 309.449 116.387 312.24C114.901 317.818 113.213 323.349 111.089 328.723L110.906 328.662Z" fill="#F85C39"/>
<path fill-rule="evenodd" clip-rule="evenodd" d="M153.251 211.079C153.57 211.593 154.007 212.097 154.386 212.611C154.777 213.124 155.164 213.64 155.543 214.163C156.297 215.213 157.033 216.277 157.729 217.367C159.137 219.54 160.424 221.791 161.606 224.095C162.212 225.24 162.76 226.413 163.325 227.578C163.85 228.761 164.39 229.94 164.884 231.136C165.378 232.333 165.874 233.53 166.302 234.751C166.759 235.962 167.172 237.189 167.556 238.425C167.951 239.657 168.306 240.901 168.635 242.151L169.144 244.022L169.603 245.904C169.907 247.159 170.217 248.412 170.47 249.678C170.738 250.94 171.057 252.188 171.298 253.455C172.396 258.49 173.388 263.545 174.253 268.632C174.457 269.906 174.699 271.176 174.872 272.455L175.39 276.293C175.578 277.572 175.654 278.861 175.789 280.146C175.903 281.432 176.043 282.717 176.106 284.007C176.262 286.584 176.443 289.163 176.498 291.745C176.541 293.036 176.587 294.328 176.588 295.619L176.562 299.493C176.369 309.821 175.359 320.128 173.461 330.26L173.27 330.236C173.961 319.959 174.477 309.714 174.508 299.47L174.534 295.629L174.492 291.789C174.501 289.228 174.387 286.67 174.298 284.111C174.026 278.998 173.743 273.879 173.208 268.775C172.679 263.673 171.926 258.579 170.69 253.594C170.079 251.101 169.376 248.631 168.571 246.196C168.193 244.971 167.777 243.758 167.35 242.552L166.713 240.74C166.49 240.14 166.252 239.546 166.039 238.944C164.275 234.145 162.433 229.38 160.265 224.752C159.731 223.592 159.17 222.445 158.612 221.294C158.028 220.158 157.451 219.016 156.846 217.889C156.236 216.764 155.621 215.64 154.978 214.53C154.353 213.399 153.653 212.351 153.07 211.147L153.251 211.079Z" fill="#F85C39"/>
<path fill-rule="evenodd" clip-rule="evenodd" d="M89.9744 230.536C89.9744 230.536 88.0222 238.259 86.8658 241.775C85.71 245.29 84.4649 249.686 83.3174 252.24C82.171 254.793 79.1624 259.173 79.8783 259.741C80.5943 260.309 84.1871 256.202 85.1383 255.877C86.0908 255.553 84.5312 259.305 83.4682 261.459C82.4052 263.612 80.1107 268.72 81.1518 268.81C82.1935 268.901 84.3142 265.074 84.8841 264.198C85.454 263.322 87.1603 260.853 86.5005 262.772C85.8407 264.688 83.4362 270.007 84.0458 270.628C84.6547 271.249 87.0201 267.025 87.836 265.59C88.6513 264.155 90.4823 262.461 89.0628 265.707C87.6427 268.955 87.0308 271.618 87.6439 271.652C88.2569 271.686 89.4766 269.854 90.2943 268.259C91.1113 266.664 92.6532 264.675 91.9934 266.592C91.3336 268.509 90.257 272.106 91.1403 271.874C92.0241 271.642 108.43 234.14 108.43 234.14L89.9744 230.536Z" fill="#FDC0B9"/>
<path d="M86.5156 255.177C86.9797 254.841 88.5979 253.253 90.0723 250.062" stroke="#0D0D0B" stroke-width="1.362" stroke-linecap="round"/>
<path d="M87.084 260.452C87.327 260.215 94.0254 263.646 94.0254 263.646" stroke="#0D0D0B" stroke-width="1.362" stroke-linecap="round"/>
<path fill-rule="evenodd" clip-rule="evenodd" d="M110.09 115.059C110.281 115.158 109.488 116.838 107.741 119.456C106.972 120.607 105.624 121.704 104.618 123.303C103.82 124.572 103.51 126.311 102.611 127.848C101.831 129.181 100.523 130.332 99.6962 131.858C98.9489 133.238 98.4067 134.814 97.6429 136.346C96.9352 137.765 95.9716 139.132 95.2668 140.676C94.6035 142.128 94.4232 143.844 93.7758 145.402C93.161 146.883 92.4219 148.352 91.8331 149.926C91.2697 151.433 90.9008 153.039 90.371 154.628C89.862 156.159 89.0319 157.618 88.5637 159.222C88.1103 160.773 87.6627 162.358 87.2566 163.975C86.8622 165.546 86.3573 167.123 86.0144 168.754C85.6816 170.339 85.6887 172.016 85.4102 173.657C85.1394 175.257 85.0691 176.901 84.8568 178.552C84.6505 180.162 83.8843 181.734 83.7394 183.391C83.5946 185.053 84.1332 186.816 84.0764 188.585C84.0226 190.274 83.8364 191.991 83.8506 193.741C83.8654 195.448 83.4976 197.187 83.5674 198.919C83.636 200.641 84.1976 202.343 84.3106 204.058C84.4241 205.793 84.4749 207.52 84.6233 209.216C84.7764 210.967 84.9692 212.684 85.1471 214.357C85.3351 216.13 85.1631 217.893 85.3653 219.535C85.5888 221.345 86.0848 223.029 86.3071 224.625C86.5702 226.513 86.5767 228.27 86.8096 229.772C87.4333 233.793 85.6999 233.982 88.1629 236.163C89.8981 237.699 90.3704 236.808 92.5171 237.68C94.665 238.551 94.5828 238.754 96.7301 239.626C98.8779 240.497 98.8732 240.508 101.02 241.379C103.17 242.251 103.233 242.094 105.382 242.965C107.531 243.837 107.521 243.872 109.65 244.79C109.294 244.746 110.029 243.115 111.708 240.317C112.47 239.047 113.211 237.44 114.254 235.786C115.111 234.427 116.406 233.184 117.399 231.636C118.296 230.239 119.241 228.778 120.211 227.277C121.132 225.854 122.028 224.363 122.983 222.888C123.919 221.444 125.005 220.077 125.945 218.621C126.892 217.155 127.651 215.575 128.574 214.135C129.53 212.643 130.23 211.029 131.129 209.607C132.096 208.077 133.216 206.725 134.077 205.33C135.065 203.73 135.905 202.2 136.696 200.853C137.757 199.044 138.533 197.468 139.114 196.282C139.854 194.771 140.746 193.372 141.398 191.895C142.079 190.354 142.451 188.728 143.043 187.228C143.663 185.657 144.336 184.157 144.864 182.637C145.419 181.04 145.905 179.472 146.366 177.935C146.855 176.31 147.275 174.724 147.669 173.172C148.086 171.521 148.483 169.929 148.804 168.368C149.149 166.691 149.628 165.105 149.875 163.54C150.143 161.833 150.557 160.216 150.725 158.655C150.913 156.914 150.554 155.229 150.641 153.687C150.742 151.896 151.275 150.26 151.275 148.761C151.276 146.861 151.008 145.204 150.918 143.821C150.713 140.658 150.537 138.807 150.537 138.807C149.271 136.628 149.466 137.145 147.682 134.634C146.838 133.448 145.935 131.971 144.753 130.514C143.761 129.289 142.354 128.256 141.149 126.963C140.038 125.771 139.035 124.376 137.764 123.216C136.537 122.097 135.042 121.251 133.682 120.241C132.334 119.239 131.079 118.069 129.615 117.25C128.142 116.425 126.473 116.03 124.899 115.468C123.313 114.902 121.744 114.331 120.074 114.111C118.432 113.894 116.782 114.055 115.074 114.248C113.467 114.429 111.741 114.451 110.09 115.059Z" fill="#F85C39"/>
<path fill-rule="evenodd" clip-rule="evenodd" d="M95.3587 141.105C96.945 141.052 98.4874 141.191 100.027 141.37C100.794 141.465 101.561 141.569 102.321 141.708C103.083 141.834 103.839 141.998 104.585 142.212C106.076 142.636 107.529 143.247 109.03 143.618C110.531 143.991 112.06 144.221 113.611 144.373C114.383 144.463 115.161 144.531 115.93 144.643C116.7 144.748 117.461 144.899 118.224 145.04C118.988 145.176 119.748 145.342 120.508 145.504C121.27 145.656 122.022 145.857 122.77 146.071C123.518 146.285 124.261 146.52 124.994 146.794L126.095 147.194L127.18 147.649C128.62 148.258 130.035 148.999 131.314 149.927L131.233 150.101C128.183 149.409 125.22 148.783 122.234 148.058C120.75 147.681 119.277 147.241 117.8 146.811C116.318 146.4 114.847 145.924 113.384 145.403C111.917 144.898 110.427 144.477 108.904 144.226C107.381 143.969 105.808 143.965 104.27 143.787C102.735 143.603 101.234 143.236 99.739 142.835C98.248 142.42 96.7605 141.961 95.3203 141.293L95.3587 141.105Z" fill="white"/>
<path fill-rule="evenodd" clip-rule="evenodd" d="M148.084 172.176C146.873 171.724 145.733 171.19 144.572 170.704C143.38 170.266 142.216 169.789 141.052 169.315C139.862 168.89 138.684 168.44 137.512 167.977C136.329 167.541 135.142 167.103 133.98 166.604L130.483 165.099C129.315 164.598 128.141 164.106 126.937 163.702C125.735 163.296 124.523 162.918 123.3 162.579C122.073 162.25 120.831 161.974 119.591 161.696L115.863 160.895L112.158 160.022C109.689 159.438 107.22 158.861 104.766 158.222C99.8651 156.908 94.9841 155.52 90.1504 153.842L90.1906 153.654C95.2927 154.123 100.303 155.082 105.265 156.229C106.499 156.543 107.735 156.848 108.961 157.193L112.63 158.263C115.076 158.974 117.493 159.791 119.885 160.683C121.082 161.123 122.278 161.564 123.489 161.952C124.692 162.372 125.905 162.752 127.128 163.107C128.357 163.439 129.582 163.788 130.824 164.092C132.063 164.403 133.309 164.699 134.525 165.096C136.975 165.831 139.326 166.868 141.648 167.946C142.793 168.531 143.922 169.151 145.033 169.789C146.127 170.467 147.173 171.238 148.187 172.013L148.084 172.176Z" fill="white"/>
<path fill-rule="evenodd" clip-rule="evenodd" d="M86.1103 169.067C88.6277 169.526 91.0889 170.131 93.5436 170.756C95.9924 171.402 98.4388 172.043 100.839 172.849C103.237 173.662 105.602 174.614 108.037 175.316C110.476 175.999 112.957 176.53 115.465 176.912L117.342 177.216L119.22 177.498C120.471 177.689 121.71 177.935 122.956 178.136L130.426 179.314C135.397 180.127 140.346 180.909 145.416 181.406L145.423 181.598C144.158 181.758 142.882 181.872 141.599 181.968C140.958 182.023 140.322 181.998 139.682 182.003L137.76 181.991C136.474 182.006 135.207 181.856 133.93 181.768C133.292 181.723 132.656 181.66 132.018 181.597L130.12 181.347L128.229 181.052C127.598 180.953 126.966 180.86 126.345 180.717L122.605 179.923C120.121 179.355 117.654 178.719 115.227 177.939C112.79 177.203 110.358 176.478 107.88 175.921C105.414 175.322 102.878 174.975 100.402 174.391C99.1612 174.109 97.9357 173.772 96.7261 173.381L94.9087 172.807L93.1061 172.184C90.7129 171.324 88.3374 170.407 86.0488 169.25L86.1103 169.067Z" fill="white"/>
<path fill-rule="evenodd" clip-rule="evenodd" d="M84.1036 183.331C86.4897 183.92 88.8356 184.546 91.1804 185.177L92.9398 185.64C93.5216 185.811 94.1069 185.968 94.6951 186.116C95.8722 186.407 97.028 186.773 98.1939 187.112C100.51 187.84 102.817 188.669 105.191 189.216C106.382 189.472 107.578 189.699 108.781 189.888C109.988 190.055 111.205 190.156 112.417 190.266C113.627 190.395 114.85 190.419 116.061 190.515C117.275 190.587 118.478 190.745 119.691 190.796L123.321 191.023C124.53 191.107 125.742 191.14 126.951 191.214C129.368 191.426 131.788 191.486 134.215 191.67C135.429 191.779 136.643 191.797 137.862 191.874C139.079 191.941 140.3 192.026 141.528 192.156L141.538 192.348C136.69 193.153 131.757 193.47 126.848 193.266L125.008 193.171C124.393 193.14 123.78 193.112 123.17 193.029L119.509 192.607C118.287 192.483 117.078 192.256 115.869 192.049C114.659 191.834 113.455 191.599 112.26 191.309C111.063 191.033 109.868 190.761 108.668 190.532C107.474 190.262 106.274 190.031 105.068 189.828C102.665 189.386 100.203 189.167 97.796 188.665C96.5882 188.436 95.401 188.116 94.2275 187.756C93.0456 187.424 91.8875 187.007 90.7287 186.599C88.4295 185.731 86.1521 184.784 84.0273 183.507L84.1036 183.331Z" fill="white"/>
<path fill-rule="evenodd" clip-rule="evenodd" d="M83.9641 201.014C86.0369 201.194 88.0648 201.494 90.0879 201.815C92.1092 202.148 94.1252 202.481 96.117 202.967C98.1047 203.465 100.075 204.109 102.093 204.484C103.102 204.67 104.117 204.82 105.137 204.928C106.158 205.036 107.186 205.089 108.212 205.145C109.237 205.207 110.269 205.208 111.292 205.274L114.358 205.478L117.422 205.689C118.443 205.75 119.463 205.826 120.481 205.921C122.516 206.141 124.552 206.327 126.589 206.605C128.624 206.875 130.664 207.111 132.706 207.529L132.7 207.722C128.575 208.195 124.435 208.225 120.318 207.972C118.258 207.85 116.212 207.574 114.169 207.289C112.123 207.033 110.093 206.632 108.075 206.191C106.058 205.738 104.037 205.361 101.997 205.098C100.973 204.99 99.9481 204.883 98.9146 204.817C97.8818 204.752 96.8495 204.672 95.825 204.543C94.7998 204.419 93.7817 204.247 92.7773 204.009C91.7681 203.797 90.7666 203.547 89.7704 203.274C87.7822 202.714 85.8052 202.092 83.9121 201.199L83.9641 201.014Z" fill="white"/>
<path fill-rule="evenodd" clip-rule="evenodd" d="M85.2733 216.282C86.8341 216.649 88.3511 217.033 89.8682 217.428C90.6267 217.626 91.3846 217.821 92.1354 218.038C92.8957 218.228 93.6365 218.478 94.3803 218.732C95.8589 219.265 97.3209 219.923 98.8468 220.335C100.379 220.716 101.943 220.958 103.529 221.045C105.111 221.157 106.69 221.248 108.251 221.442C109.817 221.615 111.389 221.719 112.944 221.964C114.503 222.177 116.058 222.433 117.61 222.749C119.167 223.036 120.722 223.353 122.272 223.818L122.258 224.01C120.656 224.201 119.059 224.244 117.463 224.258C115.87 224.235 114.279 224.15 112.694 224.006C111.114 223.819 109.543 223.558 107.981 223.242C107.201 223.083 106.42 222.925 105.646 222.736C104.869 222.563 104.107 222.299 103.34 222.083C101.807 221.636 100.279 221.202 98.7126 220.942C97.1554 220.642 95.5349 220.582 93.9605 220.283C92.3873 219.985 90.8708 219.452 89.3869 218.842C88.6473 218.529 87.9166 218.192 87.2107 217.798C86.5042 217.405 85.8107 216.988 85.1816 216.451L85.2733 216.282Z" fill="white"/>
<path fill-rule="evenodd" clip-rule="evenodd" d="M87.0575 229.651C88.2742 229.748 89.4164 229.991 90.5557 230.248C91.6861 230.531 92.8111 230.814 93.8883 231.264C94.962 231.723 95.9984 232.342 97.1116 232.699C98.2201 233.074 99.3824 233.251 100.555 233.357C101.141 233.414 101.733 233.437 102.313 233.51C102.894 233.578 103.469 233.669 104.046 233.748C104.624 233.828 105.199 233.917 105.772 234.009C106.349 234.084 106.92 234.191 107.489 234.308C108.622 234.567 109.757 234.823 110.881 235.163C112.007 235.497 113.136 235.825 114.251 236.32L114.225 236.512C111.824 236.807 109.45 236.677 107.117 236.331C105.95 236.152 104.807 235.847 103.67 235.529C102.524 235.248 101.41 234.827 100.309 234.383C99.2098 233.926 98.0983 233.547 96.949 233.299C95.8015 233.052 94.5865 233.027 93.4219 232.802C92.8389 232.693 92.2702 232.531 91.7168 232.326C91.1587 232.134 90.6101 231.91 90.0697 231.667C88.9955 231.163 87.9337 230.616 86.9824 229.828L87.0575 229.651Z" fill="white"/>
<path fill-rule="evenodd" clip-rule="evenodd" d="M220.976 83.0696C219.409 82.7355 217.962 82.0946 216.558 81.3921C215.871 81.0149 215.168 80.6584 214.518 80.2214C213.856 79.8016 213.204 79.3635 212.612 78.8461C211.403 77.8421 210.361 76.6389 209.19 75.6213C208.615 75.0968 208.011 74.609 207.391 74.1384C206.792 73.6441 206.161 73.1823 205.527 72.7211C204.254 71.8034 203.042 70.7988 201.922 69.7032L200.255 68.0423C199.695 67.4901 199.212 66.8704 198.709 66.2685C196.736 63.8283 195.105 61.1078 193.912 58.1928L194.075 58.0894C195.232 59.1809 196.195 60.38 197.241 61.5123C197.763 62.0775 198.268 62.654 198.765 63.2346C199.252 63.823 199.79 64.3687 200.286 64.9482L203.241 68.4479C203.721 69.0451 204.262 69.5849 204.754 70.1762C205.259 70.7539 205.719 71.3812 206.243 71.9465C206.756 72.523 207.267 73.1072 207.82 73.6441C208.387 74.1656 208.97 74.6711 209.582 75.1394C210.819 76.0612 212.222 76.7595 213.543 77.537C214.854 78.3317 216.089 79.2216 217.334 80.1168C218.583 81.006 219.825 81.9054 221.055 82.8934L220.976 83.0696Z" fill="white"/>
<path fill-rule="evenodd" clip-rule="evenodd" d="M216.632 96.1567C214.626 95.7753 212.662 95.1746 210.76 94.442C209.805 94.0807 208.871 93.6692 207.947 93.2369C207.016 92.8171 206.121 92.3252 205.248 91.7936C203.506 90.7216 201.908 89.425 200.23 88.2874C198.554 87.145 196.836 86.0713 195.1 84.9886C193.368 83.9025 191.705 82.6963 190.156 81.3493C188.594 80.019 187.109 78.5839 185.766 77.0212C183.121 73.8691 180.949 70.2712 179.689 66.3664L179.862 66.2812C181.074 67.9291 182.216 69.5676 183.463 71.1268C184.715 72.6789 185.973 74.2073 187.315 75.6678C188.65 77.1294 189.966 78.6159 191.389 80.0101C192.822 81.3919 194.26 82.7808 195.738 84.149C197.229 85.5019 198.834 86.7335 200.564 87.7635C202.294 88.7982 204.187 89.5426 206.006 90.3805C206.917 90.7991 207.817 91.2349 208.699 91.7061L211.372 93.0797C213.148 94.0198 214.945 94.9037 216.709 95.9793L216.632 96.1567Z" fill="white"/>
<path fill-rule="evenodd" clip-rule="evenodd" d="M211.705 107.934C209.341 107.879 207.035 107.374 204.77 106.765C203.652 106.418 202.518 106.1 201.432 105.657C200.333 105.249 199.245 104.806 198.212 104.247C197.174 103.701 196.143 103.143 195.163 102.496L193.671 101.575L192.917 101.134L192.18 100.663C191.193 100.046 190.176 99.4833 189.159 98.9156C188.171 98.3037 187.152 97.7366 186.129 97.1643L185.361 96.7374L184.621 96.2685C184.126 95.9575 183.634 95.6394 183.146 95.3154C182.167 94.6709 181.193 94.0163 180.291 93.2666L177.539 91.0747C176.642 90.3191 175.813 89.4866 174.967 88.6753C174.133 87.8505 173.284 87.0405 172.552 86.1187C171.793 85.2252 171.042 84.3247 170.309 83.4136L169.758 82.7312C169.584 82.4965 169.424 82.2493 169.256 82.0087C168.923 81.5274 168.598 81.0402 168.276 80.5506C167.63 79.5744 167 78.5899 166.41 77.5842L166.564 77.4689C167.422 78.2718 168.239 79.0972 169.042 79.9309C169.863 80.7481 170.589 81.6391 171.448 82.4131C173.129 83.9924 174.668 85.6888 176.396 87.196C179.628 90.4492 183.181 93.3304 186.724 96.2933C187.639 96.994 188.556 97.6994 189.504 98.3598C190.474 98.9836 191.471 99.5678 192.484 100.121C193.489 100.689 194.579 101.097 195.641 101.547C196.699 102.004 197.799 102.362 198.867 102.783L205.243 105.35C207.384 106.17 209.536 106.971 211.735 107.744L211.705 107.934Z" fill="white"/>
<path fill-rule="evenodd" clip-rule="evenodd" d="M203.488 120.706C201.033 120.524 198.646 119.945 196.303 119.254C195.718 119.078 195.138 118.886 194.558 118.696L192.837 118.064C191.691 117.639 190.575 117.138 189.484 116.586C187.304 115.476 185.261 114.116 183.163 112.897C181.067 111.669 178.943 110.5 176.807 109.314C172.537 106.939 168.597 103.957 165.059 100.561C163.334 98.8184 161.677 97.0032 160.219 95.0318C158.726 93.0913 157.413 91.0141 156.271 88.8566L156.429 88.7466C159.715 92.3451 162.975 95.8342 166.483 99.0803C168.212 100.727 169.987 102.325 171.795 103.894C172.723 104.65 173.634 105.428 174.576 106.173C175.502 106.936 176.441 107.689 177.389 108.434C179.3 109.905 181.319 111.243 183.464 112.349C185.603 113.468 187.905 114.254 190.14 115.123C191.258 115.56 192.371 116.001 193.47 116.48L196.799 117.846L203.527 120.517L203.488 120.706Z" fill="white"/>
<path fill-rule="evenodd" clip-rule="evenodd" d="M191.198 132.266C189.289 132.179 187.397 131.858 185.548 131.386C185.088 131.26 184.623 131.149 184.166 131.01L182.808 130.56C181.892 130.283 181.027 129.873 180.161 129.475C179.302 129.057 178.482 128.556 177.656 128.084C176.838 127.592 176.029 127.089 175.198 126.639C173.55 125.706 171.84 124.899 170.138 124.044C168.399 123.249 166.769 122.257 165.163 121.228C163.6 120.14 161.995 119.091 160.571 117.817C157.658 115.353 155.096 112.485 152.93 109.347L153.071 109.217C153.853 109.774 154.597 110.359 155.328 110.954C156.063 111.544 156.76 112.169 157.512 112.733C158.251 113.31 158.974 113.901 159.69 114.498C160.4 115.102 161.163 115.64 161.882 116.231C163.308 117.428 164.775 118.568 166.222 119.746C166.957 120.318 167.721 120.851 168.454 121.434C168.826 121.717 169.184 122.023 169.557 122.304L170.687 123.143C172.176 124.295 173.79 125.27 175.48 126.086C176.342 126.459 177.207 126.825 178.102 127.119C179.001 127.399 179.888 127.7 180.773 127.994C181.665 128.275 182.525 128.627 183.394 128.958L186 129.963C187.737 130.651 189.497 131.274 191.248 132.08L191.198 132.266Z" fill="white"/>
<path fill-rule="evenodd" clip-rule="evenodd" d="M175.795 141.962C175.325 142.293 174.832 142.368 174.365 142.368C174.13 142.365 173.9 142.335 173.68 142.275C173.455 142.23 173.248 142.132 173.06 141.992C172.685 141.708 172.414 141.248 172.064 140.994C171.708 140.743 171.298 140.607 170.827 140.531C170.602 140.478 170.361 140.442 170.142 140.366C169.913 140.305 169.728 140.182 169.526 140.08C169.12 139.876 168.736 139.635 168.419 139.319C167.806 138.666 167.354 137.847 167.262 136.808L167.408 136.683C167.942 136.777 168.342 136.963 168.734 137.147C169.132 137.324 169.464 137.553 169.789 137.785C170.109 138.019 170.354 138.342 170.632 138.634C170.911 138.922 171.158 139.258 171.395 139.643C171.644 140.006 171.947 140.323 172.349 140.443C172.742 140.587 173.244 140.47 173.65 140.498C174.059 140.527 174.393 140.726 174.746 140.917C175.093 141.128 175.43 141.379 175.802 141.77L175.795 141.962Z" fill="white"/>
<path fill-rule="evenodd" clip-rule="evenodd" d="M249.92 54.6543L267.131 29.5127C268.746 27.1529 268.137 23.9015 265.778 22.2873L234.549 0.90378C232.19 -0.710995 228.939 -0.101981 227.324 2.25662L210.113 27.3983L249.92 54.6543Z" fill="#F85C39"/>
<path fill-rule="evenodd" clip-rule="evenodd" d="M248.443 53.6421L265.756 28.3515C266.73 26.9283 266.363 24.967 264.94 23.9926C263.518 23.0188 261.557 23.3853 260.582 24.8086L243.27 50.0998" fill="#1E9AEF"/>
<path d="M244.992 51.2804L263.937 23.6057" stroke="#2E3190" stroke-width="0.99"/>
<path d="M246.717 52.4611L265.661 24.7864" stroke="#2E3190" stroke-width="0.99"/>
<path d="M229.785 2.88062L258.642 22.6387" stroke="#2E3190" stroke-width="1.409"/>
<path d="M231.66 13.8521L222.84 26.736" stroke="#2E3190" stroke-width="1.409"/>
<path d="M233.098 18.166L227.383 26.5148" stroke="#2E3190" stroke-width="1.409"/>
<path d="M249.645 33.1299L247.316 36.5315" stroke="#2E3190" stroke-width="1.409"/>
<path fill-rule="evenodd" clip-rule="evenodd" d="M265.436 39.2493L264.618 35.3593L268.541 34.7142L260.229 29.0238L257.125 33.5589L265.436 39.2493Z" fill="#05293C"/>
<path fill-rule="evenodd" clip-rule="evenodd" d="M216.43 46.6415C219.067 43.6378 222.475 40.0683 224.221 37.6003C225.968 35.1323 228.392 29.9314 229.313 30.2862C230.01 30.554 229.123 33.8161 228.744 35.8519C228.273 36.7104 228.011 37.7103 228.052 38.8426C228.08 39.5887 228.193 40.3473 228.385 41.0829C228.432 41.323 228.471 41.5642 228.53 41.8043C229.021 43.8406 230.995 46.0709 233.145 46.4203C234.709 46.6746 236.1 47.322 237.469 48.0452C230.139 58.4587 222.39 69.1798 222.39 69.1798L207.68 55.6969C207.68 55.6969 213.794 49.6452 216.43 46.6415Z" fill="#FDC0B9"/>
<path d="M228.707 40.2488C228.649 40.8649 228.059 43.2418 225.898 46.3638" stroke="#0D0D0B" stroke-width="1.471" stroke-linecap="round"/>
<path fill-rule="evenodd" clip-rule="evenodd" d="M133.597 104.894L131.159 112.948C131.17 113.383 130.775 116.801 133.4 119.211C135.054 120.73 136.08 121.008 138.209 121.605C141.094 122.415 144.042 121.338 146.593 119.894C149.62 118.181 155.55 104.112 156.186 103.333C158.396 100.629 159.499 97.0125 159.082 93.5376C158.555 89.1267 155.992 84.808 153.529 81.2012C151.323 77.9705 148.622 75.117 145.336 73.0168C145.365 72.7968 145.272 72.5662 144.999 72.4734C144.619 72.3421 144.238 72.2345 143.858 72.1446C143.749 72.0861 143.644 72.0678 143.545 72.0755C138.446 71.0171 133.444 73.5087 129.939 77.2799C128.214 79.1353 126.726 81.1102 126.514 83.6994C126.272 86.6516 126.427 89.9208 127.253 92.7678C127.269 92.8233 127.293 92.8706 127.32 92.9144C125.644 94.2915 124.982 96.7725 125.654 99.0306C126.601 102.213 130.142 105.295 133.597 104.894Z" fill="#FDC0B9"/>
<path fill-rule="evenodd" clip-rule="evenodd" d="M156.186 103.333C156.186 103.333 149.291 108.008 146.256 106.561C146.256 106.561 146.237 112.28 152.405 110.185L156.186 103.333Z" fill="#272626"/>
<path fill-rule="evenodd" clip-rule="evenodd" d="M127.524 99.2575C127.377 98.6029 128.158 97.6433 128.52 97.1721C128.666 96.9828 129.045 96.9444 129.136 97.2211C129.577 98.5716 130.287 99.7423 131.286 100.755C131.608 101.082 131.067 101.543 130.746 101.219C130.312 100.779 129.931 100.306 129.597 99.8044C129.528 99.8701 129.433 99.9103 129.329 99.8978C128.788 99.8352 127.683 99.9611 127.524 99.2575Z" fill="#272626"/>
<mask id="mask0_141_367" style="mask-type:alpha" maskUnits="userSpaceOnUse" x="0" y="5" width="150" height="86">
<path fill-rule="evenodd" clip-rule="evenodd" d="M0 5.94458H149.259V90.9472H0V5.94458Z" fill="white"/>
</mask>
<g mask="url(#mask0_141_367)">
<path fill-rule="evenodd" clip-rule="evenodd" d="M0.000357642 16.3719C0.0281445 18.6879 1.68116 20.4872 3.12667 22.1155C5.05105 24.2837 6.94765 26.4744 8.79991 28.7035C12.6995 33.3971 16.4206 38.2373 19.9584 43.2087C23.5849 48.3043 27.0151 53.5389 30.2419 58.8971C32.0179 61.8469 33.717 64.8406 35.3765 67.8573C36.3627 69.6506 38.3237 69.6991 40.2794 69.9723C51.0412 71.4753 61.4707 66.761 72.2053 67.3151C78.2457 67.6273 82.6762 70.3743 87.7931 73.271C92.1538 75.7396 96.3686 76.724 101.167 74.9538C103.838 73.9687 106.32 72.4231 109.1 71.7384C111.793 71.075 114.25 71.6326 116.686 72.8559C120.299 74.6705 123.82 77.621 127.986 77.2101C125.756 81.1432 124.968 86.2939 124.689 90.3612C124.679 90.5079 124.708 90.635 124.758 90.7456C124.751 90.7503 124.745 90.7538 124.738 90.7586C124.713 90.7769 124.694 90.797 124.672 90.8165C124.747 90.8603 124.822 90.9028 124.901 90.9472C126.53 90.4328 127.453 90.1165 129.843 89.5406C131.666 88.5502 133.742 86.0526 135.102 84.494C137.542 81.6949 137.542 78.0745 137.175 74.5842C140.517 75.3434 143.885 75.8998 147.294 76.2569C147.535 76.1274 147.767 75.9264 148.025 75.6361C148.436 75.1737 148.833 74.7001 149.259 74.2584C149.201 74.2088 149.133 74.1644 149.051 74.1295C143.705 71.83 137.166 69.3757 131.778 72.9641C130.783 73.6269 129.926 74.4553 129.185 75.4008C128.922 75.2825 128.673 75.1554 128.44 75.0158C127.623 69.922 125.026 65.3278 121.078 61.9936C116.224 57.8943 110.607 57.5667 104.625 56.4344C98.0056 55.1815 94.7705 51.0763 91.4219 45.6584C88.7479 41.3326 85.8764 37.0926 80.8718 35.3111C75.7963 33.5041 70.2963 34.0865 65.0794 33.0139C58.5738 31.6771 55.0366 26.8268 51.0199 22.018C44.1524 13.7963 34.6919 7.31767 23.8367 6.14162C18.6731 5.58227 13.3422 6.19956 8.52322 8.1762C5.20713 9.53554 -0.0498951 12.1058 0.000357642 16.3719Z" fill="#05293C"/>
</g>
<path fill-rule="evenodd" clip-rule="evenodd" d="M224.277 70.9675C223.231 70.5489 222.319 69.9688 221.448 69.3403C221.015 69.0234 220.594 68.6917 220.193 68.3398C219.784 67.9957 219.4 67.6238 219.056 67.2105C218.36 66.3904 217.808 65.426 217.084 64.6444C216.372 63.8491 215.542 63.1762 214.67 62.5353C213.785 61.9091 212.951 61.2227 212.182 60.4735C211.405 59.7303 210.627 58.9823 209.953 58.138C209.61 57.7241 209.291 57.2853 208.993 56.8312C208.692 56.3801 208.386 55.9355 208.13 55.4488C207.869 54.9681 207.605 54.4939 207.389 53.9866C207.177 53.4763 206.982 52.9608 206.83 52.428L206.994 52.3269C208.642 53.785 210.097 55.2596 211.52 56.8046C211.871 57.1937 212.207 57.594 212.532 58.0073C212.865 58.4147 213.196 58.8238 213.521 59.2395C213.845 59.6558 214.19 60.0555 214.502 60.4859C214.82 60.9116 215.109 61.3669 215.424 61.7986C216.034 62.6825 216.715 63.5032 217.518 64.1997C218.321 64.8957 219.296 65.4089 220.155 66.038C221.008 66.673 221.733 67.4452 222.453 68.2263C223.159 69.0228 223.834 69.8553 224.402 70.8208L224.277 70.9675Z" fill="white"/>
</svg>
