<svg width="188" height="45" viewBox="0 0 188 45" fill="none" xmlns="http://www.w3.org/2000/svg">
<g opacity="0.75">
<path d="M0 0C7.33546 0 14.6502 0 22 0C22 14.9908 22 29.98 22 45C14.6757 45 7.35296 45 0 45C0 30.0027 0 15.0119 0 0ZM2.6414 33.8778C2.63185 33.9606 2.56979 34.1295 2.61753 34.1733C2.90872 34.4379 2.74642 34.7415 2.72892 35.0354C2.71937 35.1961 2.71141 35.3665 2.75278 35.5191C2.83871 35.8341 2.8212 36.0825 2.41704 36.1701C2.42977 36.2075 2.4425 36.2448 2.45523 36.2822C2.64936 36.3098 2.84507 36.3373 3.05034 36.3666C3.03124 36.4494 3.00419 36.5646 2.9676 36.7302C3.48315 36.5435 3.94937 36.3146 4.48401 36.7335C4.48401 36.5127 4.43469 36.3309 4.49356 36.1961C4.66382 35.8049 4.67337 35.8 4.28511 35.7302C4.28511 35.6312 4.29943 35.4802 4.28352 35.4753C4.17532 35.4526 4.0528 35.4347 3.94937 35.4672C3.80934 35.5094 3.68364 35.5971 3.50224 35.6912C3.49747 35.1311 3.7091 34.787 4.10053 34.6717C4.55244 34.5386 4.87068 34.0986 5.38623 34.1279C5.45146 34.1311 5.52307 34.0045 5.61854 33.9119C5.07594 33.821 4.85158 33.4493 4.97252 32.9314C5.16664 32.0969 6.22161 31.4833 7.0363 31.7447C7.20656 31.7998 7.37205 31.8973 7.51526 32.0077C7.62983 32.0969 7.70779 32.2349 7.83191 32.3875C7.83032 32.3973 7.81122 32.4817 7.78735 32.5872C7.91942 32.5775 8.01172 32.571 8.15333 32.5596C7.90988 33.7155 8.58455 34.2496 9.44062 34.6782C9.90366 34.9103 10.3444 35.1863 10.8043 35.425C10.9029 35.4769 11.0652 35.5045 11.1528 35.4575C11.8083 35.1084 12.4607 34.7496 13.1004 34.3697C13.6271 34.0564 13.9549 33.61 13.8896 32.9427C13.8769 32.8161 13.8992 32.6846 13.9055 32.5547C14.0344 32.5661 14.1315 32.5758 14.2572 32.5872C14.2158 32.4671 14.1856 32.381 14.1601 32.3047C14.2652 32.2593 14.3813 32.2349 14.4641 32.1684C14.6041 32.0564 14.7027 31.8648 14.8571 31.7982C15.6352 31.4638 16.6854 31.9508 16.9877 32.7625C17.2089 33.3535 17.045 33.7285 16.3544 33.972C16.574 34.0613 16.7013 34.1214 16.8349 34.1652C16.905 34.1879 16.9973 34.1555 17.0593 34.1879C17.3505 34.3357 17.6337 34.4996 17.9233 34.6522C18.3036 34.8552 18.5232 35.1555 18.5232 35.7042C18.3323 35.6052 18.197 35.511 18.049 35.4656C17.9488 35.4347 17.8279 35.4721 17.7149 35.4786C17.7356 35.5646 17.7563 35.6506 17.7769 35.7448C17.7037 35.7529 17.5605 35.7237 17.508 35.7821C17.4269 35.8731 17.4094 36.0224 17.3648 36.1458C17.664 36.149 17.4571 36.3503 17.4873 36.4624C17.5096 36.5468 17.5589 36.6231 17.5955 36.7042C18.0793 36.2968 18.5535 36.5955 19.0531 36.7042C19.0133 36.537 18.9847 36.4201 18.9703 36.3568C19.1772 36.3325 19.3586 36.3098 19.5416 36.2886C19.5718 36.2432 19.6021 36.1961 19.6323 36.1507C19.147 36.1101 19.1899 35.8471 19.2615 35.5581C19.2934 35.4299 19.2902 35.2902 19.2965 35.1555C19.3093 34.8178 19.069 34.4558 19.4047 34.1425C19.4429 34.1068 19.3793 33.9574 19.3586 33.8356C18.8733 34.2188 18.5248 34.058 18.4389 33.4444C18.921 33.4476 19.4 33.3795 19.6036 32.8632C19.8089 32.3437 19.5464 31.9249 19.2043 31.5515C19.0785 31.4135 18.9608 31.2674 18.8446 31.1196C18.6712 30.8956 18.6123 30.6261 18.8224 30.4264C19.0515 30.2089 19.3252 30.3177 19.5432 30.5011C19.6546 30.5936 19.7325 30.7268 19.8726 30.9005C19.8964 30.6813 19.9123 30.5466 19.9267 30.4183C20.5918 30.3566 20.735 30.1358 20.4884 29.5579C20.1669 30.006 19.7007 29.8777 19.2759 29.8712C18.8494 29.8647 18.5534 30.0384 18.4102 30.4394C18.267 30.8388 18.4357 31.1716 18.676 31.4833C18.8542 31.7138 19.0292 31.9525 19.1677 32.209C19.3029 32.459 19.2313 32.6927 18.9656 32.8112C18.6616 32.946 18.3514 32.7901 18.2384 32.5077C18.0745 32.0986 17.8995 31.6927 17.6958 31.3047C17.6449 31.2073 17.446 31.0985 17.3569 31.1261C16.792 31.3063 16.2892 31.1878 15.8038 30.8826C15.4188 30.6407 15.0544 30.6829 14.7043 30.9768C14.4672 31.1748 14.2126 31.3518 13.9246 31.5709C13.9246 30.6342 13.9246 29.7787 13.9246 28.8614C14.001 29.0579 14.0169 29.2559 14.1092 29.3063C14.3781 29.4524 14.6789 29.5384 14.9828 29.6537C15.118 29.4865 15.2803 29.2868 15.484 29.0335C14.9287 28.9231 14.5452 28.6488 14.1999 28.2234C13.8594 27.8029 13.7194 27.8663 13.6128 28.2526C13.573 28.251 13.5332 28.2543 13.495 28.2445C12.2109 27.915 10.9157 27.8111 9.59974 28.014C9.27513 28.0643 9.12397 28.1861 9.15898 28.5351C9.17648 28.7056 9.1367 28.8825 9.12397 29.0562C9.07942 29.0595 9.03327 29.0611 8.98872 29.0644C8.96644 28.9653 8.93143 28.8663 8.92507 28.7657C8.89484 28.1877 8.89802 28.1861 8.39997 28.1958C8.32677 28.0903 8.20107 27.9604 8.13583 27.9864C7.97034 28.0546 7.75394 28.1601 7.69666 28.3062C7.52163 28.7559 7.1461 28.8501 6.7674 28.9702C6.70216 28.9913 6.64646 29.0449 6.57645 29.0887C6.76898 29.3111 6.93924 29.5092 7.07768 29.6699C7.38796 29.5108 7.66483 29.3696 7.99899 29.1991C8.00535 29.1618 8.02763 29.04 8.04991 28.9166C8.06741 28.9183 8.08491 28.9215 8.10241 28.9231C8.10241 29.7754 8.10241 30.6294 8.10241 31.5628C7.86214 31.3826 7.66642 31.2544 7.49139 31.1001C7.02517 30.6894 6.5494 30.5985 6.01793 30.9849C5.64718 31.2528 5.21437 31.2771 4.79907 31.1456C4.56994 31.0725 4.42673 31.1213 4.33444 31.3015C4.14827 31.6684 4.00347 32.058 3.8173 32.4249C3.74251 32.5742 3.61999 32.7853 3.49429 32.8031C3.29857 32.8324 3.01374 32.7853 2.89917 32.6521C2.8037 32.5401 2.84348 32.2317 2.92463 32.0596C3.04238 31.8096 3.25401 31.6083 3.42109 31.381C3.64863 31.0709 3.74569 30.7397 3.5818 30.3615C3.40995 29.9686 3.09967 29.8647 2.70823 29.8745C2.28179 29.8842 1.83148 29.9654 1.49573 29.5465C1.3573 30.2056 1.43367 30.3095 2.10516 30.4378C2.11789 30.5725 2.13221 30.7073 2.1529 30.9297C2.25156 30.7852 2.28497 30.7284 2.32475 30.6764C2.58093 30.3404 2.97873 30.1975 3.17127 30.4053C3.43541 30.691 3.30175 30.967 3.09012 31.23C2.86576 31.5109 2.62071 31.7852 2.45364 32.1018C2.18154 32.6164 2.40113 33.1473 2.94054 33.3454C3.14581 33.42 3.37017 33.4379 3.73615 33.5126C3.48951 33.748 3.33198 33.9509 3.12831 34.0645C3.0392 34.1084 2.85303 33.9655 2.6414 33.8778ZM6.35209 37.5598C9.4804 37.102 12.5657 37.1036 15.7052 37.5663C15.7052 37.3845 15.7036 37.1588 15.7052 36.9332C15.7084 36.3049 15.6256 36.2026 14.9987 36.1133C12.8649 35.8146 10.7215 35.8146 8.57818 35.9526C7.93534 35.9948 7.29408 36.1101 6.6576 36.2237C6.54303 36.2448 6.38073 36.4136 6.368 36.5289C6.32822 36.8844 6.35209 37.2481 6.35209 37.5598ZM9.79387 24.4846C10.0453 24.6486 10.2633 25.0334 10.6006 24.4911C10.2346 24.3467 9.92594 24.1291 9.61088 24.121C9.15102 24.1096 9.17011 24.5902 9.08578 24.9262C8.52567 24.6616 8.28063 24.7006 8.20903 25.0918C8.17402 25.2866 8.1947 25.5496 8.29972 25.7038C8.68798 26.2769 9.13988 26.8094 9.17011 27.5887C10.4208 27.2559 11.6238 27.2948 12.8585 27.574C12.8522 26.8565 13.2341 26.3662 13.6128 25.8743C13.8387 25.5805 13.9899 25.2574 13.7401 24.9165C13.4886 24.5707 13.199 24.8061 12.9063 24.9538C12.8633 24.5804 12.8665 24.2217 12.4289 24.1015C11.9452 23.97 11.7924 24.4197 11.4678 24.5739C11.6476 24.8759 11.8147 24.8662 12.0231 24.6454C12.0757 24.5886 12.2555 24.5642 12.2968 24.6064C12.4225 24.7347 12.1982 25.3857 12.0231 25.3922C11.6969 25.4019 11.6715 25.5902 11.6667 25.85C11.6635 25.9766 11.6062 26.1844 11.5315 26.2071C11.4248 26.238 11.2785 26.1324 11.1289 26.0789C11.5744 25.4214 11.5744 25.4084 11.21 25.0545C11.3771 24.8304 11.4471 24.5788 11.1353 24.4359C11.0398 24.3921 10.7518 24.5285 10.755 24.5577C10.7804 24.7704 10.8568 24.9766 10.9077 25.1519C10.8488 25.1795 10.6324 25.2152 10.5911 25.3207C10.5449 25.4409 10.6563 25.6243 10.6961 25.7802C10.7247 25.8954 10.7915 26.0318 10.7565 26.1243C10.7327 26.1893 10.5115 26.2526 10.4669 26.2136C10.3922 26.147 10.3938 25.9944 10.3508 25.8841C10.2903 25.7266 10.2569 25.4896 10.1439 25.4344C9.74613 25.2379 9.63315 25.022 9.79387 24.4846ZM5.11731 30.8859C5.25734 31.1391 5.53421 30.9849 5.77607 30.894C6.16592 30.7479 6.54303 30.5693 6.94879 30.394C6.98698 29.7754 6.57804 29.2283 5.93837 29.0627C5.72356 29.0075 5.43396 29.0205 5.36077 28.6504C5.54216 28.6747 5.68697 28.6942 5.84768 28.7169C5.862 28.5595 5.87313 28.4312 5.88905 28.2494C6.11818 28.3322 6.32186 28.4199 6.53349 28.4767C6.87082 28.5676 7.04585 28.3728 6.96311 28.0838C6.68942 28.1082 6.42687 28.1309 6.15159 28.1552C6.18342 27.9052 6.29162 27.6033 6.21683 27.5432C5.89223 27.2883 5.52625 27.0773 5.14914 26.9084C4.95501 26.8224 4.70837 26.8597 4.4856 26.8419C4.49833 26.8646 4.50947 26.8873 4.5222 26.9101C4.2692 27.0172 4.0162 27.1227 3.73137 27.2429C3.82525 27.3922 3.89845 27.5107 3.97165 27.6276C3.93346 27.6195 3.89527 27.6114 3.85708 27.6033C3.79661 27.8598 3.66931 28.1228 3.69477 28.3712C3.7266 28.6893 3.76638 28.9507 3.27152 29.0838C3.48315 29.2024 3.58817 29.29 3.70751 29.3225C3.99392 29.402 4.0703 29.5709 3.88413 29.7998C3.8348 29.8598 3.72501 29.868 3.64227 29.9004C3.67727 29.9491 3.71069 29.9962 3.74569 30.0449C3.84594 30.0579 3.95414 30.105 4.04325 30.079C4.41559 29.9702 4.45856 30.1277 4.3058 30.4134C4.18964 30.6326 4.27875 30.769 4.45696 30.8225C4.64313 30.881 4.85317 30.8648 5.11731 30.8859ZM14.9955 28.0643C15.0194 28.1666 15.0385 28.3679 15.0687 28.3695C15.414 28.3923 15.7609 28.3841 16.1285 28.3841C16.1364 28.4556 16.1523 28.5919 16.1698 28.7429C16.3369 28.7072 16.469 28.6796 16.6201 28.6471C16.5231 28.9394 16.4897 28.9621 16.06 29.0709C15.4108 29.2332 15.0051 29.7998 15.0592 30.3972C15.4697 30.5742 15.8468 30.7527 16.2382 30.8972C16.4801 30.9865 16.7602 31.1424 16.9495 30.7657C17.2821 31.0644 17.5414 30.9053 17.7642 30.6683C17.7149 30.4394 17.6751 30.2527 17.629 30.0384C17.8851 30.0384 18.0793 30.0384 18.3243 30.0384C17.8995 29.5611 17.9122 29.5189 18.4134 29.3095C18.5009 29.2722 18.5614 29.1634 18.6887 29.0319C18.2654 28.9572 18.2734 28.764 18.31 28.4572C18.345 28.1698 18.1986 27.8614 18.1334 27.5611C18.1047 27.5724 18.0745 27.5822 18.0459 27.5935C18.119 27.4896 18.1922 27.3841 18.2845 27.2526C17.9774 27.113 17.7101 26.9912 17.3728 26.8386C17.3776 26.837 17.2693 26.9377 17.1898 26.9182C16.6806 26.7899 16.348 27.1162 15.9757 27.3614C15.772 27.4961 15.7259 27.6357 15.815 27.8679C15.9105 28.1163 16.0457 28.0384 16.2255 27.9994C16.3433 27.9734 16.4849 28.0595 16.617 28.0952C16.6026 28.139 16.5899 28.1812 16.5756 28.225C16.0744 28.1731 15.5731 28.1228 14.9955 28.0643ZM16.9081 33.2009C16.8461 33.0856 16.7522 32.9931 16.7602 32.9119C16.8047 32.433 16.4419 32.3356 16.1523 32.3632C15.8213 32.3956 15.4872 32.5694 15.1896 32.7447C14.8937 32.92 14.6407 33.1717 14.3495 33.4071C14.542 33.6879 14.768 34.0191 14.9907 34.3438C14.7139 34.6068 14.5022 34.7448 14.2397 34.4314C14.1904 34.373 14.0281 34.4152 13.9167 34.4103C13.9246 34.4996 13.931 34.5889 13.939 34.6798C13.5332 34.7399 13.5109 34.7853 13.721 35.1246C13.748 35.1669 13.7066 35.2496 13.713 35.3113C13.7241 35.4201 13.748 35.5289 13.7751 35.6815C14.227 35.1393 14.6725 35.649 15.0162 35.6344C15.0703 35.4104 15.0592 35.1961 15.153 35.1246C15.2708 35.037 15.4729 35.0646 15.64 35.0451C15.78 35.0289 15.92 35.0175 16.1666 34.9948C16.0298 34.8714 15.9948 34.8405 15.9582 34.8081C15.4888 34.3844 15.5715 33.7869 16.1348 33.5369C16.3878 33.4249 16.6408 33.3178 16.9081 33.2009ZM8.11673 34.6847C8.09923 34.5646 8.08809 34.4834 8.07695 34.4038C7.93852 34.4428 7.7603 34.4412 7.66801 34.5305C7.46752 34.7253 7.31158 34.6068 7.19065 34.4801C7.13019 34.4152 7.13178 34.2204 7.1827 34.1279C7.33227 33.8567 7.52003 33.6067 7.67279 33.3795C7.48821 33.2577 7.32113 33.1603 7.16838 33.0434C6.93606 32.8664 6.72443 32.6603 6.48416 32.4963C6.12773 32.2528 5.72993 32.2609 5.41169 32.5239C5.24779 32.6603 5.21119 32.9574 5.11254 33.1944C5.46101 33.3551 5.78562 33.4736 6.07363 33.6554C6.20251 33.7366 6.34891 33.9574 6.32822 34.0889C6.28367 34.3811 6.13728 34.6555 6.01475 34.9883C6.0434 34.9964 6.18024 35.0776 6.29958 35.0565C6.86446 34.9574 7.00608 35.0694 6.94561 35.6523C7.37205 35.5792 7.79213 35.1782 8.26313 35.61C8.29018 35.4396 8.22971 35.2659 8.27585 35.1311C8.40474 34.7431 8.42065 34.748 8.11673 34.6847ZM18.6823 38.4024C18.6123 38.0225 18.5407 37.7368 18.5121 37.4478C18.485 37.1832 18.3561 37.0484 18.1095 37.0468C17.5462 37.0419 16.9813 37.0273 16.4212 37.063C15.8707 37.0971 15.8468 37.1539 15.8214 37.7238C15.8182 37.7968 15.7911 37.8699 15.7816 37.9072C15.4251 37.8179 15.0989 37.7189 14.7648 37.6653C14.6709 37.6507 14.4943 37.7416 14.4641 37.8244C14.2906 38.3001 14.5261 38.6264 15.0162 38.6167C15.1865 38.6134 15.3631 38.6037 15.527 38.5615C16.539 38.2985 17.551 38.0355 18.6823 38.4024ZM3.33994 38.3975C4.45537 38.0452 5.44033 38.3001 6.43006 38.542C6.68306 38.6037 6.95675 38.6296 7.21452 38.6069C7.66006 38.5663 7.53117 38.1897 7.54231 37.9137C7.55663 37.5793 7.30522 37.6328 7.12382 37.6702C6.82309 37.7335 6.53189 37.8406 6.19615 37.9397C6.1866 37.7936 6.16433 37.6621 6.17387 37.5354C6.19456 37.2952 6.11341 37.1572 5.86995 37.1085C5.19369 36.9737 4.51584 36.8585 3.83321 37.0565C3.71865 37.089 3.5643 37.1864 3.53884 37.2838C3.45132 37.6182 3.41313 37.9624 3.33994 38.3975ZM10.887 23.2557C10.8425 23.3288 10.7852 23.4684 10.6897 23.5739C10.5099 23.7736 10.5099 23.944 10.6993 24.1324C10.8902 24.3223 11.0764 24.3661 11.288 24.1681C11.4885 23.9798 11.5219 23.7963 11.3294 23.5739C11.2339 23.4619 11.175 23.3158 11.1289 23.2362C11.331 23.1242 11.4535 23.056 11.5744 22.9895C11.4567 22.9067 11.3389 22.8223 11.21 22.7313C11.1655 22.6421 11.1018 22.517 11.0398 22.3904C10.9427 22.517 10.8472 22.6453 10.7629 22.7557C10.6483 22.8255 10.5338 22.8969 10.4176 22.9684C10.5433 23.0447 10.669 23.121 10.887 23.2557Z" fill="black"/>
<path d="M41.4404 22.8559C43.4335 25.2458 45.2863 27.4549 47.1625 29.7107C46.2215 30.8299 44.3161 30.6492 43.2406 29.0929C42.1652 27.5366 41.1482 25.9336 40.0201 24.4181C39.6928 23.9809 39.0674 23.7594 38.5823 23.4388C38.407 23.9284 38.2083 24.4122 38.068 24.9077C38.0037 25.135 38.0504 25.3915 38.0563 25.6305C38.1206 27.1227 37.4192 28.9238 39.9208 29.4368C39.8273 29.5883 39.7396 29.7399 39.6461 29.8973C37.8985 29.8973 36.1509 29.8973 34.4091 29.8973C36.1626 28.8597 35.7827 27.2218 35.7885 25.7179C35.8002 23.0483 35.8061 20.3728 35.7827 17.7031C35.771 16.2808 36.3087 14.6138 34 14.0892C34.0818 13.9609 34.1637 13.8327 34.2396 13.7103C34.865 13.5937 35.4846 13.4014 36.11 13.3839C37.7582 13.3372 39.4181 13.2556 41.0605 13.3897C43.2932 13.5704 44.7544 14.8703 45.1168 16.7472C45.5376 18.9155 44.5966 21.0489 42.7496 22.1098C42.4223 22.308 42.0892 22.4887 41.4404 22.8559ZM38.8863 14.7886C38.746 14.9635 38.1323 15.3715 38.1089 15.8145C37.9978 17.5982 38.0154 19.3935 38.1147 21.1772C38.1323 21.5036 38.6992 22.0398 39.0499 22.0748C41.23 22.2788 42.9192 20.5535 42.9659 18.1811C43.001 16.2051 41.5573 14.8294 38.8863 14.7886Z" fill="black"/>
<path d="M95.2166 26.6216C95.9954 24.412 96.7799 22.1969 97.5587 19.9926C97.0056 19.656 96.5541 19.3791 96.1083 19.1022C96.1308 19.0045 96.1534 18.9013 96.1816 18.8036C97.4514 18.8036 98.7156 18.8036 99.8104 18.8036C98.3657 22.3054 96.9379 25.8018 95.4536 29.282C95.2674 29.7217 94.8046 30.0475 94.466 30.4275C94.2007 30.0366 93.8226 29.6783 93.6816 29.2439C92.9028 26.8985 92.1803 24.5368 91.0742 22.1317C90.4534 23.9776 89.8214 25.829 89.2119 27.6803C88.9974 28.3264 88.9015 29.0159 88.608 29.624C88.4443 29.966 88.0324 30.3135 87.6655 30.4004C87.4793 30.4438 87.0222 29.9497 86.9037 29.624C85.9217 26.9854 85.0187 24.3251 84.0311 21.6919C83.6812 20.7581 83.162 19.884 82.6992 18.9339C83.3764 18.4507 86.1418 18.4236 87.2705 19.1076C85.8088 19.5474 85.9838 20.4866 86.3111 21.5453C86.8698 23.3478 87.3551 25.1721 87.8687 26.9854C87.9985 26.9854 88.1283 26.9854 88.2637 26.9854C88.9918 24.6454 89.7141 22.3054 90.4478 19.9383C89.985 19.656 89.6069 19.4171 88.941 19.0045C90.5381 18.3638 91.9095 18.6896 92.8971 18.6842C93.0946 20.0143 93.1793 21.149 93.4502 22.2403C93.8283 23.7442 94.3475 25.2209 94.8046 26.7085C94.9401 26.6705 95.0755 26.6434 95.2166 26.6216Z" fill="black"/>
<path d="M72.1724 29.7996C70.8187 30.7523 69.6219 30.6332 68.6284 29.3573C67.5478 27.9681 66.4962 26.5618 65.4156 25.1725C65.2297 24.9344 64.9566 24.7586 64.5674 24.6112C64.7939 26.335 63.4344 28.3026 65.8571 29.8564C64.12 30.5085 62.6152 30.5538 60.6341 30.0605C62.7256 28.9548 62.2841 27.316 62.2899 25.8076C62.3015 22.7399 62.3131 19.6722 62.2899 16.6045C62.2783 15.1075 62.9348 13.3042 60.3262 12.8336C60.4075 12.6635 60.4947 12.4934 60.576 12.3176C61.7031 12.1928 62.8302 12.0227 63.9573 12C64.1026 11.9944 64.3989 12.7259 64.4047 13.1171C64.4395 15.9977 64.4221 18.8783 64.4221 21.7532C64.4221 22.1615 64.457 22.5755 64.4918 23.2049C66.1651 22.1388 67.3793 20.9424 68.1869 19.366C68.3147 19.1108 68.3612 18.6969 68.5587 18.6231C69.1629 18.3793 69.8252 18.2659 70.4643 18.0958C70.4759 18.5778 70.7025 19.2129 70.4701 19.5077C69.6916 20.5057 68.762 21.4017 67.8615 22.309C67.5013 22.6719 67.0656 22.9554 66.4846 23.4147C68.4193 25.5922 70.2668 27.6619 72.1724 29.7996Z" fill="black"/>
<path d="M129.744 27.9658C129.897 29.0573 129.289 29.5951 128.528 29.9016C124.025 31.7299 120.782 28.4443 120.875 25.3739C120.952 22.8788 121.269 20.6365 123.669 19.2169C125.225 18.2974 127.136 18.378 128.55 19.4427C129.508 20.1633 130.418 22.8304 129.969 23.9919C129.848 24.2984 129.229 24.5781 128.829 24.5942C127.279 24.6641 125.723 24.6533 124.173 24.6049C122.94 24.5619 122.792 25.1158 123.121 26.1106C123.773 28.0787 125.394 29.0197 127.482 28.5626C128.183 28.4121 128.868 28.197 129.744 27.9658ZM122.842 23.2983C124.573 23.2983 126.008 23.3305 127.438 23.2606C127.668 23.2499 128.057 22.7713 128.057 22.5078C128.068 21.2764 127.038 19.9267 125.997 19.8138C124.655 19.6686 123.904 20.4806 123.422 21.5829C123.225 22.0292 123.105 22.497 122.842 23.2983Z" fill="black"/>
<path d="M110.341 29.7087C109.847 30.1735 109.156 30.9032 108.105 29.7843C107.966 29.633 107.356 29.8492 106.973 29.914C105.945 30.0924 104.923 30.4275 103.895 30.4275C102.583 30.4221 101.579 29.7087 101.242 28.4925C100.87 27.1737 101.416 25.9792 102.641 25.3631C103.884 24.7415 105.306 24.3686 106.694 24.0983C107.565 23.9308 107.821 23.6281 107.809 22.8768C107.774 20.5256 106.195 19.5419 103.843 20.4608C103.187 20.7148 102.577 21.0769 101.846 21.4391C101.428 20.5148 101.77 19.8932 102.543 19.3744C104.296 18.1907 107.629 18.3312 109.133 19.8014C109.603 20.2608 109.865 21.0715 109.894 21.7309C109.963 23.2497 109.748 24.7793 109.801 26.3035C109.824 27.3251 110.108 28.3412 110.341 29.7087ZM108.041 27.0602C107.803 25.0982 107.403 24.8064 105.521 25.3631C105.028 25.509 104.523 25.7414 104.128 26.0495C103.129 26.8224 103.123 28.4655 104.197 28.7628C105.08 29.006 106.189 28.8925 107.077 28.6061C107.536 28.4601 107.728 27.5953 108.041 27.0602Z" fill="black"/>
<path d="M159.546 21.1557C159.265 20.1621 159.868 19.4979 160.688 19.0983C162.151 18.3855 163.659 18.4071 165.107 19.1793C166.036 19.6707 166.52 20.5347 166.51 21.6741C166.496 23.3804 166.407 25.0922 166.456 26.7932C166.481 27.641 166.738 28.4833 166.94 29.6011C166.545 29.9953 166.051 30.9889 165.023 29.8225C164.874 29.6551 164.38 29.8225 164.054 29.8873C163.179 30.0655 162.309 30.4381 161.439 30.4273C160.179 30.4111 159.215 29.4607 159.072 28.2781C158.919 27.0092 159.378 25.913 160.396 25.319C161.321 24.779 162.354 24.3848 163.377 24.1472C164.148 23.969 164.815 24.0338 164.731 22.8026C164.622 21.2151 164.123 20.1729 163.075 20.2647C161.939 20.3673 160.826 20.8155 159.546 21.1557ZM164.711 25.1732C163.965 25.238 163.392 25.211 162.853 25.3568C161.449 25.7402 160.713 26.9066 161.069 28.0513C161.395 29.0935 162.66 29.4499 163.935 28.7371C164.286 28.5427 164.598 27.9973 164.677 27.5545C164.8 26.8688 164.711 26.1344 164.711 25.1732Z" fill="black"/>
<path d="M170.139 21.027C169.878 20.0248 170.48 19.1877 171.43 18.973C172.837 18.6591 174.377 18.4553 175.789 18.6701C177.647 18.9509 178.331 19.9972 178.336 21.8255C178.342 23.3344 178.168 24.8488 178.221 26.3577C178.255 27.3599 178.556 28.3567 178.788 29.6618C178.331 30.1134 177.682 30.9725 176.536 29.7775C176.385 29.6178 175.772 29.8435 175.378 29.9096C174.353 30.0858 173.329 30.4383 172.304 30.4273C170.92 30.4108 169.913 29.6233 169.641 28.3071C169.369 27.0185 169.942 25.8731 171.106 25.2508C172.177 24.6781 173.392 24.3091 174.597 24.0338C175.465 23.841 176.322 23.9622 176.246 22.6901C176.148 21.0821 175.534 19.9697 174.342 20.0743C172.97 20.201 171.621 20.6801 170.139 21.027ZM176.548 26.991C176.2 26.1925 175.847 25.1682 175.743 25.1902C174.573 25.4435 173.317 25.6803 172.362 26.3081C171.974 26.5614 171.945 27.9767 172.321 28.4778C173.068 29.4691 174.377 29.2213 175.332 28.6981C175.893 28.3897 176.148 27.5802 176.548 26.991Z" fill="black"/>
<path d="M149.572 20.7991C147.95 20.5596 146.817 20.2329 145.706 20.2928C145.09 20.3255 144.183 20.9189 144.026 21.4252C143.886 21.8771 144.45 22.7427 144.962 23.102C145.712 23.6301 146.718 23.8315 147.567 24.2507C148.782 24.8496 149.927 25.5083 149.822 27.0871C149.718 28.6659 148.7 29.6731 147.299 30.0978C146.072 30.468 144.642 30.4897 143.34 30.3428C142.049 30.1958 141.7 29.341 142.072 27.8657C142.601 28.1433 143.061 28.5244 143.59 28.6278C144.59 28.8238 145.665 29.0743 146.636 28.9164C147.91 28.7095 148.218 27.294 147.183 26.5264C146.409 25.9547 145.439 25.5682 144.508 25.2361C142.991 24.6917 142.072 23.7172 142.037 22.2092C142.002 20.7664 142.834 19.7266 144.229 19.1169C145.764 18.4418 147.334 18.322 148.776 19.2421C149.16 19.4871 149.253 20.1458 149.572 20.7991Z" fill="black"/>
<path d="M80.7614 20.5103C79.4149 20.3584 78.2257 20.0599 77.0774 20.1575C76.4828 20.2064 75.6783 20.874 75.4976 21.4113C75.3694 21.7912 76.0106 22.6053 76.5236 22.9201C77.4388 23.4845 78.5405 23.783 79.5315 24.266C81.4726 25.2104 81.9156 26.8657 80.7381 28.5754C79.6305 30.1873 76.1971 30.9743 74.4484 30.0028C73.5332 29.4926 73.2534 28.7653 73.6906 27.6473C74.1394 27.9078 74.495 28.2497 74.9031 28.3257C75.999 28.5211 77.1706 28.8522 78.2199 28.6731C79.5664 28.4397 79.7996 27.1371 78.7095 26.323C78.01 25.802 77.1531 25.4221 76.3021 25.1236C74.6582 24.5483 73.6148 23.376 73.6498 21.9486C73.6848 20.4669 74.6582 19.1426 76.3137 18.7736C77.3572 18.5402 78.523 18.5293 79.5897 18.6867C80.604 18.8333 81.1345 19.5443 80.7614 20.5103Z" fill="black"/>
<path d="M53.7422 36.187C56.3266 35.0533 56.4824 33.1205 56.4328 31.0685C56.3691 28.3308 56.4187 25.593 56.4187 22.8552C56.4187 20.6049 56.4187 20.6049 54.1387 19.1028C55.9584 18.9044 57.4241 18.7457 58.9819 18.5813C58.9819 23.5127 59.0669 28.1324 58.9253 32.7464C58.8899 33.8687 58.3163 35.0647 57.6295 36.0736C56.8081 37.298 55.1442 37.3037 53.7422 36.187Z" fill="black"/>
<path d="M154.539 18.4138C155.343 18.4138 156.109 18.3625 156.864 18.4422C157.117 18.4707 157.338 18.8465 157.575 19.0628C157.349 19.245 157.123 19.4328 156.897 19.615C156.864 19.6378 156.809 19.6207 156.759 19.6264C154.296 19.9509 154.296 19.9509 154.296 22.5525C154.296 23.7366 154.269 24.9207 154.302 26.1105C154.357 28.4047 155.161 28.957 157.255 28.1884C157.365 28.1486 157.508 28.1827 157.723 28.1827C157.773 29.4409 157.068 29.9988 156.081 30.2834C154.687 30.6819 153.233 30.2379 152.864 29.1505C152.55 28.2397 152.434 27.2206 152.406 26.2415C152.357 24.3457 152.505 22.4443 152.401 20.56C152.373 20.0875 151.707 19.6548 151.145 18.9717C151.96 18.0893 152.952 17.019 153.944 15.9488C154.092 16.0285 154.241 16.1082 154.39 16.1936C154.439 16.8596 154.484 17.52 154.539 18.4138Z" fill="black"/>
<path d="M119.556 28.1104C119.518 29.4021 118.901 30.0304 117.908 30.2981C116.528 30.6704 115.288 30.2341 114.784 29.0588C114.494 28.3839 114.36 27.581 114.343 26.8305C114.29 24.8988 114.333 22.9672 114.354 21.0298C114.37 19.5985 114.376 19.5985 112.975 19.0982C114.097 18.0218 115.149 17.0153 116.233 15.9797C116.147 15.9098 116.281 15.9739 116.276 16.0204C116.002 18.0044 117.017 18.3244 118.514 18.1556C118.788 18.1265 119.105 18.528 119.4 18.7258C119.11 18.9469 118.842 19.3193 118.531 19.3658C116.195 19.6916 116.195 19.6684 116.195 22.2982C116.195 23.5549 116.179 24.8116 116.206 26.0683C116.249 28.349 117.017 28.9192 118.981 28.1861C119.132 28.1337 119.304 28.1454 119.556 28.1104Z" fill="black"/>
<path d="M181.418 19.2526C182.53 18.0512 183.507 17 184.479 15.9488C184.614 16.0585 184.749 16.1221 184.744 16.1683C184.474 18.1494 185.516 18.4325 187.011 18.2707C187.281 18.2418 187.594 18.6404 187.886 18.8426C187.6 19.062 187.33 19.4317 187.022 19.4721C184.668 19.7898 184.668 19.7667 184.668 22.3775C184.668 23.6308 184.706 24.8842 184.652 26.1318C184.576 27.8704 185.753 29.401 187.492 28.217C187.616 28.1303 187.816 28.165 187.999 28.1419C187.848 29.7014 187.179 30.3598 185.753 30.4234C184.144 30.4927 183.081 29.6898 182.892 28.0437C182.746 26.7614 182.816 25.4503 182.805 24.1564C182.795 22.7182 182.805 21.2742 182.805 19.7378C182.422 19.5992 182.023 19.4606 181.418 19.2526Z" fill="black"/>
<path d="M138.298 29.6859C136.475 30.6273 134.829 30.5359 132.717 30.1593C134.772 28.965 134.261 27.3295 134.295 25.8286C134.324 24.758 134.307 23.6821 134.301 22.6115C134.295 21.3903 134.687 20.0131 132.751 19.6258C134.426 18.2378 136.027 18.4476 136.424 19.9916C137.679 19.5343 138.638 17.8128 140.234 18.9802C140.597 19.2492 140.472 20.1153 140.614 20.9384C139.78 20.7555 139.343 20.6156 138.9 20.5726C137.355 20.4327 136.385 21.2558 136.367 22.6976C136.356 24.0856 136.373 25.4682 136.362 26.8561C136.345 28.1204 135.97 29.5729 138.298 29.6859Z" fill="black"/>
<path d="M47.1621 19.283C48.2659 19.0078 48.7727 18.846 49.3003 18.7597C51.737 18.3605 51.9661 18.5169 51.9661 20.4266C51.9661 22.7571 52.0286 25.0876 51.9453 27.4181C51.9037 28.5024 52.0425 29.3871 53.7433 29.5813C52.577 30.5308 49.9321 30.7088 48.0021 29.9751C49.9668 28.8207 49.3281 27.1807 49.3975 25.6702C49.4392 24.7315 49.4183 23.7875 49.4044 22.8488C49.3836 21.5271 49.9529 20.0436 47.1621 19.283Z" fill="black"/>
<path d="M57.6046 12C58.2741 12.9768 58.8974 13.482 58.984 14.095C59.1398 15.1661 58.5049 16.0418 57.5873 15.9408C57.1198 15.8869 56.358 14.9707 56.3753 14.4655C56.3926 13.7649 57.0159 13.098 57.6046 12Z" fill="black"/>
<path d="M51.5702 12.0583C51.881 12.7504 52.5325 13.5445 52.4129 14.1055C52.2635 14.8195 51.4984 15.344 50.9964 15.9487C50.566 15.3222 49.789 14.6884 49.795 14.0691C49.8009 13.377 50.5182 12.6921 50.9246 12C51.1398 12.0291 51.355 12.0437 51.5702 12.0583Z" fill="black"/>
<path d="M13.708 31.3993C13.6643 31.5595 13.6221 31.7198 13.5869 31.8501C13.3688 31.5255 13.2013 31.275 13 30.9765C13.0971 30.8663 13.221 30.724 13.3941 30.5277C13.4222 30.7781 13.4377 30.9164 13.4546 31.0667C13.4926 31.0707 13.5306 31.0907 13.5559 31.0747C13.6305 31.0286 13.7122 30.9845 13.7699 30.9084C14.095 30.4676 14.4201 30.177 14.8761 30.6178C15 30.7381 15.2125 30.6679 15.4349 30.69C15.4856 30.8883 15.525 31.1528 15.6179 31.3732C15.6868 31.5395 15.8107 31.6978 15.9346 31.7619C16.012 31.802 16.2118 31.6798 16.2231 31.5936C16.2484 31.4093 16.1977 31.1969 16.1569 31.0045C16.1386 30.9164 16.05 30.8563 16.0317 30.7681C15.9993 30.6038 15.9444 30.3814 15.9937 30.2692C16.0556 30.1309 16.2104 30.0228 16.3315 30.0067C16.5341 29.9807 16.741 30.0368 17 30.0648C16.8663 30.1891 16.7664 30.2832 16.6509 30.3914C16.6158 30.3694 16.5778 30.3273 16.5369 30.3213C16.4032 30.2973 16.2667 30.2852 16.1316 30.2672C16.1597 30.4415 16.1738 30.6238 16.2217 30.7881C16.2695 30.9544 16.3638 31.0947 16.4117 31.261C16.5102 31.6016 16.3554 31.9703 16.088 32.0324C15.9627 32.0625 15.8346 32.0525 15.6137 32.0665C15.7333 32.2989 15.7952 32.5514 15.9022 32.5974C16.1795 32.7177 16.285 32.9821 16.3469 33.3388C16.3624 33.431 16.4187 33.5071 16.4609 33.6013C16.2991 33.7315 16.133 33.8658 15.9683 34C15.9346 33.9599 15.9008 33.9179 15.867 33.8778C15.9374 33.7055 16.0077 33.5352 16.0992 33.3087C15.9585 32.7357 15.4166 33.1264 15.1942 32.6515C15.3547 32.0845 15.273 31.5936 14.9339 31.1889C14.5975 30.7881 14.1555 30.8322 13.6418 31.3131C13.6657 31.3432 13.6868 31.3712 13.708 31.3993Z" fill="black"/>
<path d="M15.0825 30.0125C14.9837 29.9739 14.8908 29.9383 14.8772 29.9338C14.9276 29.6963 14.974 29.4781 15.0186 29.2599C14.9682 29.2451 14.9179 29.2287 14.8675 29.2139C15.0786 29.1426 15.2819 29.0313 15.5008 29.0075C15.8803 28.966 16.0546 29.0951 15.9539 29.4172C15.9074 29.5642 15.9539 29.7334 15.9868 29.8878C16.0507 30.1921 15.8764 30.3954 15.5937 30.5958C15.433 30.7101 15.5279 31.0441 15.1657 30.9951C14.7668 30.9417 14.3873 30.8081 14 30.7086C14.0678 30.1535 14.9005 30.4281 15.0825 30.0125Z" fill="black"/>
<path d="M13.5302 33.3174C13.8201 33.2105 14.0769 33.0914 14.3855 33.0148C14.5201 32.9817 14.8432 33.0073 14.9323 33.0593C15.0938 33.1548 14.9468 33.238 14.6982 33.2833C14.1391 33.3855 14.0686 33.5897 14.2136 33.8544C13.8408 33.9054 13.4743 33.9574 13.1056 34C13.0953 34.0009 13.0373 33.914 13 33.8676C13.9009 33.7863 13.9444 33.7438 13.5302 33.3174Z" fill="black"/>
<path d="M13 29.9613C13.3017 29.6409 13.6035 29.3204 13.9064 29C13.9376 29.0162 13.9688 29.0333 14 29.0495C13.8532 29.216 13.711 29.3852 13.5561 29.5473C13.4081 29.7021 13.2451 29.8488 13.089 30C13.0578 29.9874 13.0289 29.9748 13 29.9613Z" fill="black"/>
<path d="M16.9808 29.5443C16.9808 29.5974 17.0299 29.657 16.971 29.7021C16.8384 29.8052 16.6568 29.9018 16.4947 30C16.3425 29.8986 16.1019 29.8019 16.0528 29.6957C15.9792 29.5411 15.9841 29.3768 16.0578 29.2222C16.097 29.1417 16.3573 29.0741 16.5193 29C16.6715 29.0757 16.8974 29.1449 16.9612 29.2287C17.0348 29.3285 16.9759 29.4396 16.9808 29.5443Z" fill="black"/>
<path d="M16.4717 26C16.6726 26 16.8351 26 16.9946 26C17.0301 26.3671 16.8927 26.525 16.4997 26.6248C16.4081 26.6478 16.352 26.7787 16.2737 26.8542C16.2176 26.9082 16.1525 26.9514 16.0905 27C16.0595 26.9244 15.9797 26.83 16.0048 26.7773C16.1082 26.5655 16.2441 26.3657 16.3682 26.1619C16.4037 26.1039 16.4421 26.0472 16.4717 26Z" fill="black"/>
<path d="M12 26.0279C12.5366 26.0146 12.8222 26.008 13.1478 26C13.3427 26.1512 13.5936 26.3289 13.8099 26.5186C13.914 26.6101 13.9834 26.7202 13.9994 26.8236C14.0101 26.8793 13.8766 26.9416 13.8099 27C13.7164 26.9629 13.5589 26.9337 13.5403 26.8886C13.4495 26.679 13.1665 26.6698 12.8142 26.6035C12.4752 26.5385 12.3016 26.2573 12 26.0279Z" fill="black"/>
</g>
</svg>
