<svg width="220" height="48" viewBox="0 0 220 48" fill="none" xmlns="http://www.w3.org/2000/svg">
<g opacity="0.75">
<path fill-rule="evenodd" clip-rule="evenodd" d="M126.776 25.9784C127.429 26.1655 128.496 26.3838 129.771 26.3838C134.518 26.3838 137.481 23.3275 137.481 18.3689C137.481 13.4102 134.518 10.354 129.771 10.354C128.496 10.354 127.429 10.5723 126.776 10.7282H123.908V30.0638H126.776V25.9784ZM134.549 18.3532C134.549 21.5655 133.052 23.92 129.149 23.92C128.305 23.92 127.524 23.7953 126.775 23.577V13.145C127.524 12.8956 128.305 12.7709 129.149 12.7709C133.052 12.7865 134.549 15.141 134.549 18.3532V18.3532ZM147.661 23.9201C144.634 23.9201 143.168 21.7214 143.168 18.3533C143.168 14.9851 144.634 12.7865 147.661 12.7865C150.687 12.7865 152.153 14.9851 152.153 18.3533C152.169 21.7214 150.687 23.9201 147.661 23.9201V23.9201ZM147.66 10.3384C143.247 10.3384 140.221 13.114 140.221 18.3533C140.221 23.577 143.247 26.3682 147.66 26.3682C152.073 26.3682 155.1 23.5926 155.1 18.3533C155.1 13.1296 152.073 10.3384 147.66 10.3384V10.3384ZM161.489 13.5506V10.7126H158.621V26.0096H161.489V18.9459C161.489 14.5174 163.432 13.3479 166.825 13.3479H168.052V10.7126H166.825C163.639 10.7126 162.237 11.9289 161.632 13.5506H161.489ZM170.457 6.73633V19.9126C170.457 24.3723 172.608 26.3682 176.702 26.3682C177.913 26.3682 179.267 26.1811 180.414 25.6977V22.8909C179.41 23.5302 178.327 23.8733 177.005 23.8733C174.631 23.8733 173.325 22.7973 173.325 19.6787V13.2543H180.573V10.7126H173.325V6.73633H170.457ZM195.293 15.5154C195.293 11.8821 192.457 10.354 188.666 10.354C186.818 10.354 185.161 10.7282 183.951 11.4299V14.3925C184.986 13.5038 186.547 12.8021 188.634 12.8021C191.071 12.8021 192.41 13.7845 192.41 15.796V16.5289L188.411 17.1371C185.002 17.6516 182.66 18.7899 182.66 21.815C182.66 25.0584 185.321 26.3682 189 26.3682C190.243 26.3682 191.342 26.2123 192.378 25.994H195.277V15.5154H195.293ZM188.985 24.0448C186.611 24.0448 185.512 23.2807 185.512 21.9085C185.512 20.3804 186.818 19.6787 188.698 19.3668L192.41 18.7587V23.5926C191.836 23.7953 190.323 24.0448 188.985 24.0448V24.0448ZM202.668 6.73633H199.801V22.0333C199.801 24.8401 201.235 26.259 204.022 26.259C204.739 26.259 205.361 26.1655 205.902 25.9784V23.5302C205.472 23.7173 204.93 23.8109 204.405 23.8109C203.274 23.8109 202.684 23.4211 202.684 21.9397V6.73633H202.668ZM207.766 25.0896C209.168 25.9472 211.302 26.3682 213.389 26.3682C217.228 26.3682 219.857 24.9337 219.857 21.6903C219.857 18.6652 217.579 17.714 214.727 17.1371L213.979 16.9811C211.971 16.5913 210.856 16.1547 210.856 14.8137C210.856 13.5349 211.987 12.8021 214.265 12.8021C216.384 12.8021 218.2 13.4103 219.299 14.1743V11.2116C218.025 10.6659 216.209 10.354 214.425 10.354C210.585 10.354 207.957 11.7262 207.957 14.9383C207.957 17.9323 210.235 18.8835 213.086 19.4604L213.835 19.6164C215.842 20.0062 216.958 20.4428 216.958 21.7838C216.958 23.0937 215.858 23.9201 213.517 23.9201C211.047 23.9513 208.96 23.0625 207.766 22.1425V25.0896V25.0896Z" fill="#0D0D0B"/>
<path fill-rule="evenodd" clip-rule="evenodd" d="M43.6016 25.0895C45.0034 25.9472 47.1381 26.3682 49.225 26.3682C53.0643 26.3682 55.6928 24.9336 55.6928 21.6902C55.6928 18.6651 53.4147 17.714 50.5632 17.137L49.8145 16.9811C47.8072 16.5912 46.6921 16.1546 46.6921 14.8136C46.6921 13.5348 47.8231 12.8021 50.1012 12.8021C52.22 12.8021 54.036 13.4102 55.1352 14.1743V11.2116C53.8608 10.6658 52.0447 10.354 50.2605 10.354C46.4213 10.354 43.7927 11.7262 43.7927 14.9382C43.7927 17.9323 46.0708 18.8834 48.9223 19.4604L49.6711 19.6163C51.6783 20.0218 52.7935 20.4428 52.7935 21.7838C52.7935 23.0936 51.6942 23.9201 49.3525 23.9201C46.8832 23.9512 44.7963 23.0624 43.6016 22.1424V25.0895ZM59.1816 6.73633V19.9126C59.1816 24.3723 61.3322 26.3682 65.4263 26.3682C66.637 26.3682 67.9911 26.1811 69.1381 25.6977V22.8909C68.1345 23.5302 67.0512 23.8733 65.729 23.8733C63.3554 23.8733 62.0491 22.7973 62.0491 19.6787V13.2543H69.3134V10.7126H62.065V6.73633H59.1816ZM85.4987 10.7126H82.6313V23.5926C81.7551 23.8109 80.7515 23.9357 79.7 23.9357C75.7652 23.9357 75.3829 22.158 75.3829 18.8834V10.7126H72.5154V19.1173C72.5154 23.5458 73.6465 26.3682 79.0788 26.3682C80.6399 26.3682 81.8985 26.1499 82.6472 25.994H85.5147V10.7126H85.4987ZM99.9631 10.7438C99.3099 10.5567 98.2426 10.3384 96.9682 10.3384C92.2209 10.3384 89.2578 13.3946 89.2578 18.3533C89.2578 23.3119 92.2209 26.3682 96.9682 26.3682C98.2426 26.3682 99.3099 26.1499 99.9631 25.994H102.831V6.73633H99.9631V10.7438ZM92.1895 18.3533C92.1895 15.1411 93.687 12.7865 97.59 12.7865C98.4343 12.7865 99.2149 12.9111 99.9636 13.1295V23.5614C99.2149 23.8109 98.4343 23.9356 97.59 23.9356C93.687 23.9201 92.1895 21.5655 92.1895 18.3533V18.3533ZM114.81 30.0482V26.0096C118.554 22.2516 120.338 17.0435 120.561 10.7126H117.773C117.614 16.0299 116.339 20.1933 113.488 23.7486H113.36C110.525 20.1933 109.234 16.0455 109.075 10.7126H106.176C106.399 17.0435 108.183 22.236 111.927 26.0096V30.0482H114.81V30.0482Z" fill="#0D0D0B"/>
<mask id="mask0_194_547" style="mask-type:alpha" maskUnits="userSpaceOnUse" x="0" y="0" width="33" height="31">
<path fill-rule="evenodd" clip-rule="evenodd" d="M0 0.0623779H32.2114V30.0856H0V0.0623779Z" fill="white"/>
</mask>
<g mask="url(#mask0_194_547)">
<path fill-rule="evenodd" clip-rule="evenodd" d="M0.03125 9.30915V10.6658H2.53234C2.53234 11.3519 2.53234 25.9939 2.53234 25.9939H5.46355V10.0732C7.91684 9.34034 11.0233 8.63864 14.289 8.42034C14.289 9.83932 14.289 26.0095 14.289 26.0095H17.953C17.953 26.0095 17.953 9.80813 17.953 8.42034C21.2188 8.62305 24.3252 9.32474 26.7945 10.0576L26.7785 10.0732V26.0095H29.7097C29.7097 26.0095 29.7097 11.3675 29.7097 10.6814H32.2108V9.32474C32.2108 9.32474 24.2774 5.62915 16.1051 5.62915C7.93277 5.62915 0.03125 9.30915 0.03125 9.30915" fill="#0D0D0B"/>
<path fill-rule="evenodd" clip-rule="evenodd" d="M32.1955 7.8434C32.1955 7.8434 24.4214 4.1478 16.0898 4.1478C7.75815 4.1478 0 7.8434 0 7.8434V5.3017L16.0898 0.0623779L32.1796 5.3017L32.1955 7.8434" fill="#0D0D0B"/>
<path fill-rule="evenodd" clip-rule="evenodd" d="M0.03125 30.0856H32.2108V27.5065H0.03125V30.0856Z" fill="#0D0D0B"/>
</g>
<path fill-rule="evenodd" clip-rule="evenodd" d="M147.339 45.3763L143.909 35.7079H143.845C143.936 37.1438 143.982 38.4899 143.982 39.7463V45.3763H142.227V33.7996H144.953L148.237 43.0087H148.286L151.667 33.7996H154.402V45.3763H152.541V39.6513C152.541 39.0759 152.556 38.3263 152.585 37.4024C152.615 36.4786 152.641 35.9191 152.662 35.7237H152.598L149.046 45.3763H147.339ZM162.913 45.3764L162.532 44.1569H162.468C162.036 44.6901 161.602 45.053 161.165 45.2457C160.728 45.4384 160.168 45.5347 159.483 45.5347C158.604 45.5347 157.917 45.3025 157.424 44.8379C156.93 44.3734 156.684 43.7161 156.684 42.8662C156.684 41.9635 157.026 41.2825 157.711 40.8233C158.396 40.364 159.439 40.1132 160.842 40.071L162.387 40.0235V39.5563C162.387 38.9967 162.253 38.5784 161.986 38.3012C161.719 38.0241 161.306 37.8855 160.745 37.8855C160.286 37.8855 159.847 37.9515 159.426 38.0835C159.005 38.2155 158.601 38.3712 158.213 38.5507L157.598 37.2204C158.083 36.9723 158.614 36.7835 159.191 36.6542C159.768 36.5249 160.313 36.4602 160.826 36.4602C161.963 36.4602 162.822 36.703 163.402 37.1887C163.982 37.6744 164.272 38.4372 164.272 39.4771V45.3764H162.913ZM160.08 44.1094C160.77 44.1094 161.325 43.9207 161.742 43.5432C162.16 43.1658 162.369 42.6366 162.369 41.9556V41.1954L161.221 41.2429C160.325 41.2746 159.674 41.4211 159.267 41.6824C158.86 41.9437 158.656 42.3436 158.656 42.8821C158.656 43.2727 158.775 43.5749 159.012 43.7887C159.249 44.0025 159.605 44.1094 160.08 44.1094ZM172.934 42.8821C172.934 43.7372 172.616 44.3931 171.98 44.8498C171.343 45.3064 170.432 45.5347 169.245 45.5347C168.054 45.5347 167.096 45.3579 166.374 45.0042V43.3967C167.425 43.8719 168.404 44.1094 169.31 44.1094C170.48 44.1094 171.066 43.7636 171.066 43.0721C171.066 42.8504 171.001 42.6656 170.871 42.5178C170.742 42.37 170.529 42.2169 170.232 42.0585C169.936 41.9002 169.523 41.7207 168.995 41.5201C167.965 41.1294 167.268 40.7388 166.903 40.3482C166.539 39.9575 166.357 39.4507 166.357 38.8278C166.357 38.0782 166.666 37.4962 167.284 37.0818C167.901 36.6674 168.741 36.4602 169.804 36.4602C170.855 36.4602 171.85 36.6687 172.789 37.0858L172.174 38.4873C171.209 38.0967 170.397 37.9014 169.739 37.9014C168.736 37.9014 168.234 38.1811 168.234 38.7407C168.234 39.0152 168.365 39.2475 168.627 39.4375C168.888 39.6276 169.458 39.8889 170.338 40.2215C171.076 40.5012 171.613 40.7573 171.947 40.9895C172.282 41.2218 172.53 41.4897 172.692 41.7933C172.853 42.0968 172.934 42.4597 172.934 42.8821ZM178.322 44.0301C178.786 44.0301 179.249 43.9589 179.713 43.8163V45.2179C179.503 45.3076 179.232 45.3828 178.9 45.4436C178.569 45.5043 178.225 45.5346 177.869 45.5346C176.068 45.5346 175.167 44.6055 175.167 42.7473V38.0279H173.945V37.2044L175.256 36.5234L175.903 34.6705H177.076V36.6185H179.624V38.0279H177.076V42.7157C177.076 43.1644 177.191 43.4956 177.42 43.7094C177.649 43.9232 177.95 44.0301 178.322 44.0301ZM185.41 45.5347C184.019 45.5347 182.931 45.1375 182.146 44.343C181.361 43.5485 180.969 42.4545 180.969 41.0608C180.969 39.6302 181.333 38.5058 182.061 37.6876C182.789 36.8693 183.789 36.4602 185.062 36.4602C186.243 36.4602 187.176 36.8113 187.861 37.5134C188.546 38.2155 188.889 39.1815 188.889 40.4115V41.4171H182.926C182.953 42.2671 183.188 42.9203 183.63 43.377C184.073 43.8336 184.695 44.0619 185.499 44.0619C186.028 44.0619 186.52 44.0131 186.975 43.9154C187.431 43.8177 187.92 43.6554 188.444 43.4284V44.9408C187.98 45.1573 187.511 45.3104 187.036 45.4001C186.561 45.4899 186.019 45.5347 185.41 45.5347ZM185.062 37.8696C184.458 37.8696 183.974 38.057 183.61 38.4318C183.246 38.8066 183.029 39.353 182.959 40.071H187.02C187.009 39.3477 186.831 38.8 186.486 38.4279C186.141 38.0557 185.666 37.8696 185.062 37.8696ZM195.587 36.4602C195.97 36.4602 196.286 36.4866 196.534 36.5394L196.348 38.2735C196.078 38.2102 195.797 38.1785 195.506 38.1785C194.746 38.1785 194.13 38.4213 193.658 38.907C193.186 39.3927 192.95 40.0235 192.95 40.7995V45.3764H191.049V36.6186H192.537L192.788 38.1627H192.885C193.182 37.64 193.569 37.2257 194.046 36.9195C194.523 36.6133 195.037 36.4602 195.587 36.4602ZM204.202 42.882C204.202 43.7372 203.884 44.3931 203.247 44.8497C202.611 45.3064 201.699 45.5347 200.513 45.5347C199.321 45.5347 198.364 45.3578 197.641 45.0041V43.3967C198.693 43.8718 199.672 44.1094 200.578 44.1094C201.748 44.1094 202.333 43.7636 202.333 43.072C202.333 42.8503 202.268 42.6656 202.139 42.5178C202.009 42.3699 201.796 42.2169 201.5 42.0585C201.203 41.9001 200.791 41.7206 200.262 41.52C199.232 41.1294 198.535 40.7387 198.171 40.3481C197.807 39.9575 197.625 39.4507 197.625 38.8278C197.625 38.0782 197.934 37.4962 198.551 37.0818C199.169 36.6674 200.009 36.4602 201.071 36.4602C202.123 36.4602 203.118 36.6687 204.056 37.0857L203.441 38.4873C202.476 38.0966 201.664 37.9013 201.006 37.9013C200.003 37.9013 199.502 38.1811 199.502 38.7407C199.502 39.0152 199.632 39.2474 199.894 39.4375C200.156 39.6275 200.726 39.8888 201.605 40.2214C202.344 40.5012 202.88 40.7572 203.215 40.9895C203.549 41.2218 203.797 41.4897 203.959 41.7932C204.121 42.0968 204.202 42.4597 204.202 42.882Z" fill="#0D0D0B"/>
</g>
</svg>
