<svg width="135" height="38" viewBox="0 0 135 38" fill="none" xmlns="http://www.w3.org/2000/svg">
<g opacity="0.75" clip-path="url(#clip0_372_7231)">
<path d="M133.002 18.205C129.92 18.205 127.421 15.7564 127.421 12.7359C127.421 12.4066 127.148 12.1396 126.812 12.1396C126.476 12.1396 126.204 12.4066 126.204 12.7359C126.204 15.7564 123.705 18.205 120.622 18.205C117.539 18.205 115.04 15.7564 115.04 12.7359C115.04 12.4066 114.769 12.1386 114.432 12.1377C114.096 12.1377 113.823 12.4037 113.822 12.733V12.7359C113.822 15.7564 111.323 18.205 108.24 18.205C105.157 18.205 102.658 15.7564 102.658 12.7359C102.658 12.4066 102.386 12.1396 102.05 12.1396C101.714 12.1396 101.441 12.4066 101.441 12.7359C101.441 15.7564 98.9421 18.205 95.8594 18.205V5.97485C98.9023 5.97485 101.385 3.58669 101.441 0.605154C101.441 0.275821 101.714 0.00884658 102.05 0.00884658C102.381 -0.0457175 102.695 0.172539 102.752 0.497975C102.758 0.534026 102.761 0.570077 102.761 0.606129C102.761 3.62664 105.26 6.07521 108.343 6.07521C111.425 6.07521 113.924 3.62664 113.924 0.606129C113.924 0.276795 114.196 0.00884658 114.532 0.00787222C114.868 0.00787222 115.141 0.273872 115.142 0.603206V0.606129C115.142 3.62664 117.641 6.07521 120.724 6.07521C123.807 6.07521 126.306 3.62664 126.306 0.606129C126.302 0.311872 126.517 0.0585389 126.813 0.00982094C127.149 0.00982094 127.422 0.276795 127.422 0.606129C127.422 3.62664 129.921 6.07521 133.003 6.07521V18.206M133.003 30.3368V28.3481H130.365V25.3646H129.858L126.306 29.8389V30.3358H127.321V34.81C127.209 36.4538 128.479 37.8754 130.156 37.9855C130.226 37.9903 130.297 37.9923 130.366 37.9923C131.279 38.0147 132.173 37.7341 132.903 37.1972V35.0098C132.47 35.4336 131.891 35.6821 131.279 35.7055C130.569 35.7055 130.264 35.1092 130.264 34.2137V30.4352L133.003 30.3368ZM99.9196 35.4083C102.254 35.4083 102.965 33.6184 102.965 30.8346C102.965 28.2497 102.255 26.1616 100.124 26.1616H99.1082V35.4093L99.9196 35.4083ZM95.8604 23.8748H100.021C104.486 23.8748 106.11 27.3552 106.11 30.7362C106.11 33.9185 104.588 37.6971 100.224 37.6971H95.8604V23.8748ZM112.606 32.1276C112.606 30.5365 112.2 29.8408 111.387 29.8408C110.575 29.8408 110.169 30.6359 110.169 32.1276H112.606ZM115.141 37.0004C114.099 37.6084 112.904 37.9182 111.691 37.8948C108.037 37.8948 107.226 35.1111 107.226 33.2218C107.226 30.2383 109.053 28.1503 111.488 28.1503C113.72 28.1503 115.547 29.8408 115.446 33.4206H110.27C110.371 35.1111 111.285 35.9062 112.604 35.9062C113.5 35.9179 114.381 35.6762 115.14 35.2105V37.0004H115.141ZM116.562 23.7754H119.607V37.6961H116.562V23.7754Z" fill="#0D0D0B"/>
<path d="M122.042 30.3368H121.129V28.3482H122.144V27.6525C121.975 25.6277 123.513 23.8515 125.58 23.6858C125.72 23.6751 125.86 23.6712 126.001 23.6751C126.547 23.6829 127.092 23.7492 127.624 23.8739V25.8626C127.29 25.7992 126.95 25.7661 126.609 25.7632C125.594 25.7632 125.087 26.3595 125.087 27.3543V28.3491H125.898V30.3378H125.087V37.6962H122.042V30.3368ZM12.1339 36.3038C11.4666 36.826 10.7108 37.2304 9.90137 37.4974C9.14262 37.7078 8.35602 37.8082 7.56744 37.7955C4.01532 37.7955 1.47852 34.9114 1.47852 30.8347C1.47852 26.758 4.11675 23.4764 7.66887 23.4764C9.06804 23.4617 10.4413 23.8417 11.6267 24.5706V27.554C10.7397 26.6635 9.54536 26.1315 8.27746 26.0623C6.04496 26.0623 4.72534 27.8522 4.72534 30.8357C4.72534 33.6194 5.74066 35.1112 7.56644 35.1112C8.02289 35.1034 8.47237 35.002 8.88605 34.813V32.4268H7.26214V30.14H12.1339V36.106M19.2381 32.1287C19.2381 30.6369 18.8324 29.8418 18.1214 29.8418C17.4103 29.8418 16.8018 30.5375 16.8018 32.1287H19.2381ZM21.7739 37.0014C20.6999 37.6231 19.4688 37.9329 18.2218 37.8959C15.4821 37.8959 13.8582 36.106 13.8582 33.2229C13.8582 30.3397 15.5836 28.1513 17.9175 28.1513C19.7811 28.0695 21.4229 29.3401 21.7739 31.1348C21.9828 31.8792 22.0852 32.649 22.0782 33.4216H16.6993C16.8008 35.0128 17.7146 35.9072 19.1347 35.9072C20.0287 35.9033 20.9058 35.6627 21.6715 35.2115L21.7739 37.0014ZM23.905 28.2507H26.9499V29.8418C27.5635 28.8772 28.6315 28.279 29.791 28.2507C31.0371 28.1962 32.1628 28.9727 32.5307 30.14C32.9802 28.887 34.2212 28.0763 35.5757 28.1513C36.5711 28.1971 37.481 28.7165 38.011 29.5437C38.4048 30.2413 38.5809 31.0364 38.5182 31.8305V37.7965H35.4732V32.228C35.4732 30.8357 35.1689 30.4382 34.4579 30.4382C33.7469 30.4382 33.2397 30.8357 32.7326 31.7311V37.7965H29.6876V32.6256C29.6876 31.0345 29.4848 30.4382 28.6723 30.4382C28.0637 30.4382 27.4541 30.9351 26.947 31.8305V37.7965H23.902V28.4495M45.9238 32.1287C45.9238 30.6369 45.518 29.8418 44.7056 29.8418C43.8931 29.8418 43.4874 30.5375 43.4874 32.1287H45.8213M48.3581 37.0014C47.2841 37.6231 46.053 37.9329 44.806 37.8959C42.1678 37.8959 40.4424 36.106 40.4424 33.2229C40.4424 30.3397 42.2692 28.1513 44.6031 28.1513C46.4289 28.1192 48.0131 29.3781 48.3581 31.1348C48.567 31.8792 48.6694 32.649 48.6624 33.4216H43.4864C43.4864 35.0128 44.5017 35.9072 45.9218 35.9072C46.781 35.8858 47.6203 35.6461 48.3571 35.2115L48.3581 37.0014ZM55.6652 32.1287C55.6652 30.6369 55.2595 29.8418 54.447 29.8418C53.6346 29.8418 53.2289 30.5375 53.2289 32.1287H55.6642M58.201 37.0014C57.127 37.6231 55.8959 37.9329 54.6489 37.8959C51.9092 37.8959 50.1839 36.106 50.1839 33.2229C50.1839 30.3397 52.0107 28.1513 54.3446 28.1513C56.1704 28.1192 57.7545 29.3781 58.0996 31.1348C58.3084 31.8792 58.4109 32.649 58.4039 33.4216H53.2279C53.3293 35.0128 54.2432 35.9072 55.6632 35.9072C56.5572 35.9033 57.4343 35.6627 58.2 35.2115L58.201 37.0014ZM60.3321 28.2507H63.3771V29.6431C63.9389 28.6882 64.993 28.1143 66.1167 28.1513C67.1589 28.1241 68.1324 28.658 68.6535 29.5437C69.0225 30.2501 69.1975 31.0384 69.1607 31.8305V37.7965H66.1157V32.8244C66.1157 30.8357 65.9129 30.3388 64.8976 30.3388C64.1875 30.3388 63.6794 30.8357 63.2736 31.8305V37.7965H60.3301V28.2507M84.2801 32.1287C84.2801 30.6369 83.9758 29.8418 83.2648 29.8418C82.5537 29.8418 81.9451 30.5375 81.9451 32.1287H84.2801ZM86.8159 37.0014C85.7419 37.6231 84.5108 37.9329 83.2638 37.8959C80.6255 37.8959 78.9002 36.106 78.9002 33.2229C78.9002 30.3397 80.727 28.1513 83.0609 28.1513C84.8867 28.1192 86.4708 29.3781 86.8159 31.1348C87.0307 31.8783 87.1331 32.649 87.1202 33.4216H81.8427C82.0456 35.0128 82.858 35.9072 84.3795 35.9072C85.2387 35.8858 86.078 35.6461 86.8149 35.2115L86.8159 37.0014ZM77.4791 30.3388V28.3501H74.8409V25.3666H74.3337L70.9845 29.8409V30.3378H71.7959V34.812C71.6796 36.4558 72.9455 37.8803 74.6231 37.9943C74.7633 38.004 74.9035 38.004 75.0438 37.9943C75.9218 37.9943 76.7771 37.7156 77.4791 37.1992V35.0118C77.0525 35.4444 76.4688 35.6938 75.8552 35.7075C75.1452 35.7075 74.8399 35.1112 74.8399 34.2157V30.4372L77.4781 30.3378L77.4791 30.3388Z" fill="#0D0D0B"/>
</g>
<defs>
<clipPath id="clip0_372_7231">
<rect width="134" height="38" fill="white" transform="translate(0.5)"/>
</clipPath>
</defs>
</svg>
