<svg width="179" height="50" viewBox="0 0 179 50" fill="none" xmlns="http://www.w3.org/2000/svg">
<g opacity="0.75">
<g clip-path="url(#clip0_165_651)">
<path d="M25.8057 28.4852C25.444 28.4852 25.1405 28.4852 24.7851 28.4852C24.7851 28.8343 24.8083 29.1709 24.7734 29.5029C24.7598 29.636 24.6196 29.7565 24.5369 29.883C24.4364 29.8171 24.3045 29.7723 24.2395 29.6821C22.6365 27.4417 21.0403 25.1961 19.4441 22.9511C19.3942 22.8813 19.3532 22.8056 19.291 22.7048C19.6075 22.5236 19.9015 22.3359 20.2159 22.1896C20.2938 22.1534 20.4716 22.2193 20.5481 22.2924C21.5735 23.2752 22.6017 24.2561 23.599 25.2653C23.9306 25.6006 24.2225 25.8977 24.7851 25.5979C24.7851 26.0413 24.7926 26.4009 24.7816 26.7599C24.7762 26.9437 24.8391 27.0313 25.0141 27.1341C25.3025 27.3034 25.5404 27.5524 25.805 27.7718C25.805 27.696 25.805 27.5715 25.805 27.4477C25.805 23.1777 25.8036 18.9078 25.8063 14.6379C25.807 14.0654 25.7209 14.159 26.3122 14.0964C27.8845 13.9304 29.4602 13.7572 31.0393 13.6893C33.1078 13.6004 35.1818 13.5668 37.2524 13.5872C39.9055 13.6129 42.5558 13.7466 45.1835 14.1425C45.2272 14.1491 45.2696 14.1603 45.3373 14.1741C45.3373 18.7629 45.3373 23.3477 45.3373 27.9325C45.5526 27.5359 45.8192 27.2211 46.2629 27.0616C46.3278 27.0386 46.3736 26.8877 46.3771 26.7942C46.39 26.4246 46.3825 26.0544 46.3825 25.6915C46.4598 25.675 46.5001 25.6526 46.524 25.6638C47.008 25.8865 47.263 25.5637 47.5494 25.2817C48.5618 24.2857 49.5865 23.3022 50.5955 22.3036C50.7616 22.1389 50.8833 22.1066 51.0836 22.241C51.3324 22.4083 51.6038 22.5454 51.8937 22.7114C51.4726 23.3036 51.0754 23.8628 50.6775 24.4214C49.4348 26.1684 48.194 27.9167 46.9444 29.659C46.874 29.7565 46.7332 29.8073 46.6252 29.8797C46.5445 29.7513 46.4085 29.6281 46.3941 29.493C46.36 29.1689 46.3832 28.8396 46.3832 28.4904C46.025 28.4904 45.701 28.4904 45.3523 28.4904C45.3523 29.2664 45.3147 30.0246 45.3599 30.7782C45.4672 32.5548 44.6667 33.9125 43.3248 35.0356C42.0602 36.0942 40.5911 36.8195 39.0339 37.3695C37.9996 37.7345 36.9298 38.0079 35.8729 38.3129C35.7369 38.3524 35.5749 38.3702 35.4389 38.3392C32.9711 37.7839 30.6086 36.9783 28.5216 35.5501C27.5728 34.9006 26.7668 34.1193 26.252 33.0924C25.9335 32.4567 25.805 31.7835 25.8057 31.0826C25.8063 30.2282 25.8057 29.3731 25.8057 28.4852ZM42.7027 30.2091C42.7301 30.0846 42.7595 30.0141 42.7595 29.943C42.7615 29.1775 42.8559 28.3976 42.7403 27.6486C42.3363 25.0341 40.9432 23.0434 38.5089 21.77C37.6202 21.3056 36.642 21.2292 35.6597 21.2028C34.9323 21.1831 34.2043 21.1989 33.4339 21.1989C33.4845 21.0494 33.52 20.9367 33.5604 20.826C33.965 19.7075 34.3827 18.5929 34.7717 17.4698C35.0164 16.763 34.7102 16.0509 34.0942 15.792C33.5228 15.5516 32.8624 15.8223 32.4789 16.4349C32.3695 16.6095 32.3894 16.7169 32.5425 16.8519C32.794 17.0739 33.0135 17.3301 33.2671 17.5502C33.4476 17.7063 33.4783 17.8466 33.3806 18.0627C32.9615 18.9875 32.5726 19.9256 32.1474 20.8478C31.4269 22.4116 31.7365 23.8022 32.9574 24.9814C33.695 25.6934 34.5338 26.3087 35.3391 26.9536C35.9399 27.4351 36.5593 27.8963 37.1048 28.3152C37.3201 28.2197 37.4972 28.0675 37.6127 28.1024C38.1391 28.2632 38.6627 28.4476 39.1597 28.6802C39.5835 28.8784 39.969 29.1525 40.3737 29.3942C40.5214 29.2216 40.641 29.0807 40.7757 28.9232C41.4224 29.3547 42.0444 29.7697 42.7027 30.2091ZM29.4273 26.6229C29.2975 26.7955 29.1792 26.953 29.0603 27.1104C28.9003 27.3232 28.9495 27.4898 29.1826 27.6334C29.4895 27.2467 29.789 26.87 30.1212 26.4517C30.3639 26.8331 30.5662 27.1519 30.7692 27.4714C30.8123 27.4687 30.8547 27.4668 30.8978 27.4641C30.9381 27.2843 30.9784 27.1045 31.0208 26.9154C31.0434 26.9226 31.1083 26.9358 31.1664 26.9628C32.5124 27.5774 33.8591 28.1901 35.201 28.8126C35.3274 28.8712 35.4478 28.9726 35.5318 29.082C35.6973 29.2967 35.9283 29.2671 36.0657 29.1452C36.1683 29.0543 36.156 28.8264 36.1621 28.6584C36.1655 28.5701 36.0644 28.4759 36.0726 28.3897C36.1006 28.0873 35.8996 27.974 35.6487 27.8436C35.6351 28.0735 35.6234 28.2724 35.6105 28.497C35.4936 28.4555 35.4184 28.4358 35.3486 28.4041C33.7962 27.6973 32.2437 26.9925 30.6961 26.2771C30.5642 26.2158 30.4835 26.0544 30.3529 25.9859C30.2374 25.9253 29.9954 25.8713 29.9653 25.9148C29.8102 26.1381 29.5846 26.1519 29.3617 26.1506C28.9502 26.148 28.6993 26.3535 28.4874 26.6677C28.3363 26.891 28.3773 27.0432 28.5667 27.2006C29.225 26.613 29.225 26.613 29.4273 26.6229ZM35.6747 36.4275C36.4677 36.1067 37.0706 35.3749 38.0454 35.5765C37.9825 34.952 37.4931 35.2418 37.1745 35.0969C37.1745 35.0001 37.1745 34.8828 37.1745 34.7649C37.1745 33.1629 37.1697 31.5608 37.1807 29.9588C37.182 29.771 37.2846 29.5859 37.3058 29.3962C37.3188 29.2776 37.3058 29.1215 37.234 29.0379C37.1157 28.8995 36.9407 28.8053 36.7931 28.6953C36.6222 29.0168 36.4704 29.3145 36.7268 29.6399C36.7657 29.6893 36.7356 29.7895 36.7356 29.8665C36.7356 31.5127 36.7363 33.1582 36.735 34.8044C36.735 34.9105 36.724 35.0165 36.7192 35.1022C36.1997 35.1641 35.7109 35.2333 35.2201 35.2767C34.946 35.3011 34.8537 35.4329 34.8578 35.7458C35.3356 35.6865 35.7841 35.6311 36.2462 35.5745C36.0459 35.8696 35.4197 35.8485 35.6747 36.4275ZM29.6434 17.9171C29.5025 18.1107 29.426 18.2287 29.3364 18.3367C29.1881 18.5159 28.9994 18.6713 28.8853 18.8676C28.6125 19.338 29.0165 19.9664 29.5914 19.9512C29.5559 19.8972 29.5354 19.8478 29.4991 19.8142C29.009 19.3564 29.0165 19.1977 29.4889 18.7076C29.6707 18.5192 29.791 18.2761 29.9592 18.0732C30.0221 17.9968 30.139 17.9217 30.2347 17.9171C30.6325 17.8999 31.0311 17.9098 31.4296 17.9098C31.8896 17.9098 32.3504 17.9098 32.8104 17.9098C32.8234 17.8822 32.8371 17.8545 32.8501 17.8275C32.6061 17.591 32.3497 17.3657 32.1228 17.1147C31.9888 16.9665 31.8575 16.9435 31.6743 16.9889C31.1678 17.1134 30.6599 17.232 30.1492 17.342C30.0474 17.3637 29.9264 17.3604 29.8286 17.3282C29.523 17.228 29.2229 17.1108 28.9229 16.9948C28.7937 16.9448 28.6706 16.8815 28.5441 16.8242C28.6118 16.7169 28.6925 16.6148 28.7431 16.5008C28.7813 16.4145 28.7807 16.3131 28.7978 16.2182C28.6959 16.2221 28.5646 16.1886 28.4983 16.2373C28.2762 16.4 28.093 16.6082 28.1565 16.9053C28.2188 17.1944 28.4628 17.2959 28.7308 17.3506C28.9187 17.3888 29.1088 17.4197 29.2975 17.454C29.2961 17.4784 29.2947 17.5034 29.2934 17.5278C28.8634 17.6325 28.4341 17.7372 28.0041 17.842C28.0082 17.867 28.0123 17.892 28.0171 17.9171C28.5243 17.9171 29.0309 17.9171 29.6434 17.9171Z" fill="#0D0D0B"/>
<path d="M66.8587 47.6887C65.6446 47.7777 64.5222 47.8765 63.3983 47.9404C57.9029 48.2519 52.402 48.0859 46.9032 48.1255C45.9715 48.1321 45.0391 48.1261 44.082 48.1261C44.082 45.9688 44.082 43.8364 44.082 41.6613C44.2331 41.6613 44.3773 41.6613 44.5209 41.6613C47.9949 41.6613 51.4683 41.6685 54.9423 41.6593C58.1866 41.6508 61.431 41.6191 64.6664 41.3425C64.9077 41.322 65.0437 41.3938 65.1641 41.5836C65.9085 42.7548 66.2913 44.0479 66.5326 45.3838C66.6659 46.1249 66.7452 46.8752 66.8587 47.6887ZM59.6598 46.0788C59.3043 46.0801 59.2701 46.2507 59.3713 46.5023C59.7801 46.5023 60.1731 46.5023 60.5635 46.5023C60.6681 46.2125 60.586 46.061 60.2695 46.0854C60.2695 45.26 60.2695 44.4629 60.2695 43.6606C60.3871 43.6237 60.4896 43.5914 60.6079 43.5545C60.5963 43.4346 60.586 43.3319 60.5758 43.2251C60.152 43.2251 59.7589 43.2251 59.3747 43.2251C59.2264 43.542 59.4157 43.6256 59.6659 43.65C59.6659 43.9833 59.6659 44.2962 59.6659 44.6203C59.1478 44.6203 58.6528 44.6203 58.1374 44.6203C58.1374 44.2903 58.1374 43.9781 58.1374 43.6619C58.2591 43.6243 58.3616 43.5934 58.4751 43.5578C58.4642 43.4353 58.4553 43.3312 58.4464 43.2291C58.0144 43.2291 57.6103 43.2291 57.2036 43.2291C57.2036 43.3589 57.2036 43.4649 57.2036 43.5789C57.3164 43.6026 57.4128 43.623 57.5071 43.6434C57.5071 44.4642 57.5071 45.2699 57.5071 46.0656C57.3827 46.0985 57.2891 46.1229 57.1824 46.1512C57.1886 46.2757 57.194 46.3818 57.2009 46.5043C57.6302 46.5043 58.0349 46.5043 58.4498 46.5043C58.4498 46.3693 58.4498 46.254 58.4498 46.1269C58.3377 46.1078 58.2413 46.0913 58.1367 46.0735C58.1367 45.7428 58.1367 45.4312 58.1367 45.1124C58.6638 45.1124 59.1655 45.1124 59.6591 45.1124C59.6598 45.4405 59.6598 45.7362 59.6598 46.0788ZM48.4933 45.1473C48.7831 45.0768 48.9786 45.1374 49.1126 45.3838C49.25 45.6361 49.4072 45.8785 49.561 46.1216C49.8112 46.5162 50.002 46.5867 50.5187 46.478C50.5187 46.366 50.5187 46.2514 50.5187 46.1526C49.8871 45.9707 49.9056 45.2955 49.425 44.9807C49.5241 44.9339 49.5727 44.9122 49.6191 44.8878C50.0033 44.6902 50.1749 44.368 50.1127 43.9629C50.0525 43.571 49.8126 43.2805 49.3833 43.2475C48.7893 43.2021 48.1884 43.2363 47.5971 43.2363C47.4679 43.5249 47.6046 43.6336 47.876 43.6415C47.876 44.4669 47.876 45.2731 47.876 46.0794C47.8466 46.0636 47.8172 46.0478 47.7878 46.032C47.7099 46.1229 47.6025 46.2053 47.567 46.31C47.5506 46.3581 47.6695 46.5096 47.7338 46.5135C48.094 46.534 48.457 46.5234 48.8351 46.5234C48.8351 46.3719 48.8351 46.2566 48.8351 46.1308C48.71 46.1117 48.6026 46.0946 48.4926 46.0775C48.4933 45.7534 48.4933 45.4523 48.4933 45.1473ZM53.3591 46.507C53.3591 46.175 53.3591 45.8845 53.3591 45.6124C52.8026 45.3957 52.9209 45.8423 52.8437 46.0729C52.5114 46.0729 52.2018 46.0729 51.8873 46.0729C51.8873 45.7198 51.8873 45.397 51.8873 45.0353C52.212 45.0353 52.5114 45.0353 52.8095 45.0353C52.8095 44.8779 52.8095 44.7606 52.8095 44.596C52.4923 44.596 52.1922 44.596 51.8948 44.596C51.8948 44.2468 51.8948 43.9465 51.8948 43.6408C52.2277 43.6408 52.5278 43.6408 52.832 43.6408C52.8519 43.8061 52.8683 43.9445 52.8853 44.0901C53.0378 44.0901 53.169 44.0901 53.3105 44.0901C53.3105 43.7949 53.3105 43.5183 53.3105 43.2251C52.5005 43.2251 51.7226 43.2251 50.9282 43.2251C50.9282 43.3569 50.9282 43.4689 50.9282 43.5762C51.0602 43.6065 51.1675 43.6309 51.2659 43.654C51.2659 44.4708 51.2659 45.2672 51.2659 46.0597C51.1456 46.0926 51.052 46.1183 50.9426 46.1479C50.9508 46.2757 50.9583 46.389 50.9651 46.5063C51.7738 46.507 52.5436 46.507 53.3591 46.507ZM56.6485 44.1698C56.8208 43.3622 56.7477 43.2587 55.941 43.1672C55.7838 43.1494 55.6225 43.1415 55.4645 43.1514C54.4897 43.2106 53.813 43.8523 53.759 44.76C53.7036 45.698 54.2163 46.4062 55.1159 46.5234C55.5459 46.5794 55.995 46.501 56.4346 46.4688C56.5063 46.4635 56.626 46.3825 56.6301 46.3298C56.6499 46.0623 56.6396 45.7922 56.6396 45.5268C56.1871 45.4714 56.1933 45.4721 56.1379 45.8937C56.1276 45.9694 56.0497 46.0887 55.9882 46.0979C55.5151 46.1677 55.0387 46.1789 54.7003 45.7764C54.3031 45.3041 54.3004 44.7633 54.5082 44.2205C54.6798 43.7725 55.0708 43.6138 55.5356 43.5894C56.0606 43.5617 56.1092 43.6013 56.1905 44.1032C56.1939 44.123 56.2124 44.1408 56.2309 44.1704C56.3676 44.1698 56.5104 44.1698 56.6485 44.1698ZM62.2171 43.6375C62.2171 44.4596 62.2171 45.2573 62.2171 46.0755C61.9204 46.0847 61.7673 46.1921 61.9225 46.5023C62.3285 46.5023 62.7435 46.5023 63.168 46.5023C63.168 46.366 63.168 46.2514 63.168 46.1295C63.0381 46.1091 62.9294 46.0926 62.8323 46.0775C62.8323 45.254 62.8323 44.4491 62.8323 43.6342C63.0969 43.6342 63.319 43.6342 63.5515 43.6342C63.5768 43.7996 63.5986 43.9451 63.6212 44.0894C63.7866 44.0894 63.9186 44.0894 64.0676 44.0894C64.0676 43.7949 64.0676 43.5176 64.0676 43.2324C63.0217 43.2324 62.0052 43.2324 60.9723 43.2324C60.9723 43.5361 60.9723 43.8127 60.9723 44.0835C61.1452 44.0835 61.2874 44.0835 61.4439 44.0835C61.4631 43.9241 61.4795 43.7857 61.4966 43.6368C61.7413 43.6375 61.9737 43.6375 62.2171 43.6375Z" fill="#0D0D0B"/>
<path d="M4.49485 41.1744C5.618 41.264 6.71517 41.3793 7.81575 41.4333C9.63411 41.5223 11.4538 41.6145 13.2742 41.6283C17.7033 41.6626 22.1329 41.6533 26.5626 41.6612C26.6754 41.6612 26.7889 41.6612 26.9311 41.6612C26.9311 43.816 26.9311 45.949 26.9311 48.1353C26.8224 48.1353 26.7034 48.1353 26.5838 48.1353C22.0858 48.132 17.587 48.1458 13.089 48.1175C11.2918 48.1063 9.49534 48.0055 7.69886 47.9344C7.56761 47.9291 7.39876 47.8659 7.31809 47.773C5.69593 45.889 4.76419 43.7204 4.47913 41.291C4.47571 41.2607 4.48733 41.2285 4.49485 41.1744ZM11.028 46.5181C11.4477 46.5181 11.8517 46.5181 12.2673 46.5181C12.2673 46.3811 12.2673 46.2658 12.2673 46.1413C12.1408 46.1222 12.0328 46.1057 11.9269 46.0893C11.9269 45.7665 11.9269 45.4654 11.9269 45.1743C12.2407 45.088 12.4355 45.1763 12.5701 45.4345C12.6925 45.669 12.8415 45.891 12.9824 46.1163C13.2414 46.5293 13.4287 46.6018 13.9626 46.495C13.9626 46.3837 13.9626 46.2691 13.9626 46.1716C13.318 45.9898 13.3337 45.3113 12.8757 44.9991C13.4616 44.6934 13.6536 44.3377 13.5231 43.8641C13.4055 43.4379 13.0569 43.2257 12.4608 43.2218C12.0397 43.2192 11.6179 43.2126 11.1982 43.2304C11.125 43.2336 11.0054 43.3417 10.9999 43.4089C10.9938 43.478 11.0929 43.5637 11.1613 43.6276C11.1941 43.6585 11.2617 43.6546 11.313 43.6658C11.313 44.4839 11.313 45.281 11.313 46.0926C10.9965 46.0926 10.9179 46.2381 11.028 46.5181ZM17.693 43.6585C17.693 44.4747 17.693 45.2724 17.693 46.0754C17.5659 46.1044 17.4592 46.1294 17.3348 46.1578C17.3409 46.2843 17.3471 46.3989 17.3519 46.4852C18.0662 46.4852 18.7539 46.5504 19.4225 46.468C20.1881 46.3738 20.6776 45.7098 20.7179 44.9049C20.7569 44.1322 20.3775 43.4701 19.6556 43.339C18.9091 43.2033 18.1319 43.2271 17.3533 43.1803C17.3533 43.3786 17.3533 43.484 17.3533 43.6006C17.466 43.6197 17.5645 43.6368 17.693 43.6585ZM21.0946 46.5003C21.9128 46.5003 22.6955 46.5003 23.5001 46.5003C23.5001 46.1802 23.5001 45.8996 23.5001 45.6044C23.3477 45.6044 23.2089 45.6044 23.0667 45.6044C23.0353 45.7843 23.0079 45.9417 22.982 46.0886C22.6381 46.0886 22.3264 46.0886 22.0304 46.0886C22.0304 45.7303 22.0304 45.3996 22.0304 45.0386C22.3619 45.0386 22.6532 45.0386 22.9539 45.0386C22.9539 44.8923 22.9539 44.7777 22.9539 44.6176C22.6354 44.6176 22.3366 44.6176 22.0379 44.6176C22.0379 44.2698 22.0379 43.9681 22.0379 43.6717C22.8083 43.5472 22.8999 43.5867 23.0531 44.0946C23.1836 44.0946 23.3142 44.0946 23.4659 44.0946C23.4659 43.8456 23.4769 43.617 23.4584 43.3911C23.4536 43.3325 23.3573 43.233 23.3019 43.2323C22.5554 43.2218 21.8082 43.2251 21.046 43.2251C21.046 43.3746 21.046 43.4807 21.046 43.5979C21.1752 43.6223 21.2928 43.644 21.4117 43.6658C21.4117 44.482 21.4117 45.2784 21.4117 46.0774C21.2949 46.1057 21.1992 46.1288 21.0946 46.1545C21.0946 46.2724 21.0946 46.3798 21.0946 46.5003ZM16.2609 43.6473C16.2848 43.8219 16.3033 43.9589 16.3224 44.0972C16.4748 44.0972 16.6061 44.0972 16.7722 44.0972C16.7722 43.9069 16.7633 43.733 16.7742 43.5604C16.79 43.3173 16.7148 43.2047 16.429 43.2145C15.8377 43.2356 15.2444 43.233 14.6524 43.2159C14.3311 43.2066 14.2798 43.3364 14.37 43.6006C14.4801 43.6216 14.5881 43.6427 14.7009 43.6638C14.7009 44.4747 14.7009 45.2724 14.7009 46.0761C14.5847 46.1038 14.489 46.1262 14.3974 46.1479C14.3974 46.2783 14.3974 46.3936 14.3974 46.5161C15.1999 46.5161 15.9792 46.5161 16.7866 46.5161C16.7866 46.194 16.7866 45.8949 16.7866 45.5926C16.6321 45.5926 16.509 45.5926 16.36 45.5926C16.334 45.7606 16.3094 45.9187 16.2821 46.0932C15.9594 46.0932 15.647 46.0932 15.3189 46.0932C15.3189 45.7395 15.3189 45.4062 15.3189 45.0399C15.6463 45.0399 15.9492 45.0399 16.265 45.0399C16.265 44.893 16.265 44.7784 16.265 44.6275C15.9457 44.6275 15.6436 44.6275 15.3278 44.6275C15.3278 44.281 15.3278 43.9714 15.3278 43.6467C15.6525 43.6473 15.9437 43.6473 16.2609 43.6473ZM7.10892 43.5617C7.14104 43.5538 7.17249 43.5459 7.20462 43.538C7.31331 43.6757 7.45823 43.7995 7.52454 43.9543C7.85472 44.7237 8.17327 45.4984 8.47474 46.279C8.5595 46.4977 8.68391 46.5464 8.90608 46.5471C9.1221 46.5484 9.22942 46.4819 9.30598 46.2862C9.6095 45.5063 9.91985 44.729 10.25 43.9596C10.3198 43.7975 10.4838 43.673 10.6048 43.5314C10.6294 43.5479 10.654 43.5643 10.6786 43.5815C10.6786 43.4741 10.6786 43.3661 10.6786 43.2409C10.2616 43.2409 9.85765 43.2409 9.43245 43.2409C9.43245 43.3726 9.43245 43.4846 9.43245 43.5946C9.55755 43.6249 9.66145 43.6493 9.78587 43.6796C9.50628 44.4385 9.23558 45.1736 8.93821 45.9812C8.6347 45.1703 8.35784 44.4319 8.07483 43.6743C8.19309 43.6427 8.28675 43.6177 8.37015 43.596C8.47063 43.2962 8.35647 43.1961 8.06184 43.2192C7.8472 43.2363 7.62845 43.2356 7.4138 43.2192C7.13352 43.1968 7.03099 43.2989 7.10892 43.5617Z" fill="#0D0D0B"/>
<path d="M51.9538 39.1231C51.3953 39.2028 50.8368 39.2864 50.2776 39.3615C47.9548 39.6751 45.6319 39.99 43.307 40.2923C43.0596 40.3246 43.0227 40.43 43.024 40.6355C43.0309 41.953 43.0274 43.2705 43.0274 44.5879C43.0274 44.7059 43.0274 44.8244 43.0274 44.9792C42.8511 44.9792 42.7075 44.9799 42.564 44.9792C39.6368 44.9621 36.7097 44.9417 33.7818 44.9305C32.9396 44.9272 32.0968 44.9463 31.2539 44.9674C31.0222 44.9733 30.8943 44.9199 30.7952 44.6914C30.1396 43.1717 29.4561 41.6638 28.7998 40.1441C28.687 39.8826 28.5428 39.7904 28.2522 39.7752C24.9888 39.6046 21.7267 39.4202 18.4639 39.239C18.4311 39.237 18.3982 39.2285 18.3613 39.1771C19.0812 39.0987 19.7996 38.9926 20.5215 38.9465C22.7363 38.8049 24.9512 38.6527 27.1687 38.5697C28.8634 38.5065 30.5621 38.5401 32.2588 38.5394C32.4475 38.5394 32.6409 38.5822 32.8241 38.633C33.6335 38.8569 34.436 39.104 35.2495 39.3128C35.4683 39.3688 35.7273 39.3615 35.9481 39.3075C36.6099 39.1468 37.2709 38.9735 37.9148 38.7568C38.4187 38.5875 38.9238 38.5236 39.4522 38.5203C43.4178 38.4913 47.3778 38.5862 51.3249 38.9946C51.5286 39.0157 51.7316 39.0401 51.9347 39.0631C51.9415 39.0822 51.9477 39.1026 51.9538 39.1231ZM38.1794 43.2757C38.1794 43.1532 38.1794 43.0346 38.1794 42.9161C38.1794 42.3232 38.1739 41.7303 38.1849 41.1381C38.1869 41.0314 38.2307 40.8509 38.2949 40.8325C38.5451 40.76 38.461 40.6223 38.4303 40.4814C38.0892 40.4814 37.7672 40.4814 37.4459 40.4814C37.4233 40.5104 37.4015 40.5393 37.3789 40.5683C37.4568 40.65 37.5396 40.7277 37.61 40.8154C37.6646 40.8826 37.7371 40.959 37.7433 41.0354C37.7645 41.2864 37.7604 41.5393 37.7624 41.7916C37.7645 42.0083 37.7631 42.2257 37.7631 42.5333C37.2142 41.8423 36.7377 41.2409 36.2599 40.6408C36.1122 40.455 35.4771 40.3661 35.3138 40.5288C35.3199 40.6013 35.3281 40.6928 35.3363 40.7824C35.4621 40.8048 35.5605 40.8219 35.672 40.8417C35.672 41.4965 35.6754 42.1421 35.6665 42.787C35.6658 42.8443 35.6016 42.9352 35.5469 42.9516C35.3042 43.0261 35.3896 43.1638 35.4409 43.3172C35.728 43.3172 36.0008 43.3245 36.2729 43.3113C36.3282 43.3087 36.4219 43.2342 36.4246 43.1888C36.4287 43.1183 36.3877 43.0267 36.3337 42.9767C36.2872 42.9332 36.1956 42.9345 36.1382 42.92C36.1382 42.3759 36.1382 41.8601 36.1382 41.2811C36.6543 41.9253 37.1328 42.5103 37.5942 43.1078C37.7385 43.2935 37.8916 43.366 38.1794 43.2757ZM33.0921 40.843C33.0921 41.4958 33.0962 42.1295 33.0866 42.7632C33.0859 42.8291 33.0155 42.9398 32.9602 42.951C32.6929 43.0037 32.8043 43.1565 32.8159 43.2935C33.5187 43.2935 34.1934 43.2935 34.8879 43.2935C34.8879 43.0221 34.8879 42.7758 34.8879 42.53C34.6227 42.4536 34.4736 42.4951 34.4675 42.783C34.4661 42.8436 34.3533 42.9451 34.2843 42.9523C34.0642 42.974 33.8406 42.9602 33.6116 42.9602C33.6116 42.6295 33.6116 42.3496 33.6116 42.0334C33.7969 42.0334 33.9664 42.0235 34.1332 42.0353C34.4244 42.0571 34.4928 41.9378 34.3909 41.6559C34.1339 41.6559 33.8775 41.6559 33.6219 41.6559C33.6219 41.3615 33.6219 41.1045 33.6219 40.8529C34.2966 40.7317 34.3861 40.7673 34.5167 41.1948C34.6329 41.1948 34.7491 41.1948 34.8585 41.1948C34.8585 40.9425 34.8585 40.7172 34.8585 40.4722C34.1592 40.4722 33.4824 40.4722 32.8132 40.4722C32.658 40.7765 32.8843 40.8088 33.0921 40.843Z" fill="#0D0D0B"/>
<path d="M60.23 21.3815C60.4248 21.5211 60.6217 21.6588 60.8151 21.8011C62.3601 22.942 63.9077 24.0803 65.4444 25.2324C65.5798 25.3339 65.696 25.5183 65.7268 25.6804C65.9188 26.7126 65.4267 27.735 64.5086 28.2732C63.5769 28.8186 62.3901 28.7652 61.5213 28.1381C61.4311 28.0729 61.3436 28.0057 61.2314 27.9227C60.6559 28.6631 60.0878 29.3891 59.53 30.1216C59.476 30.1927 59.4671 30.3073 59.4657 30.4022C59.4534 31.0715 59.4527 31.7401 59.4384 32.4094C59.4356 32.524 59.422 32.6656 59.3529 32.748C58.6174 33.6261 57.8702 34.4949 57.0472 35.3559C57.0472 35.2571 57.0472 35.1583 57.0472 35.0588C57.0438 32.8316 57.0137 30.6038 57.0485 28.3772C57.067 27.1922 56.663 26.1896 55.9158 25.2845C55.8393 25.1916 55.7641 25.0981 55.6328 24.936C56.0683 24.992 56.4292 25.0361 56.7901 25.0849C58.0746 25.2588 59.3598 25.4307 60.6429 25.6152C60.7769 25.6343 60.9204 25.7113 61.023 25.8003C61.3183 26.0572 61.576 26.3569 61.885 26.5967C62.1646 26.8134 62.4742 27.015 62.803 27.1474C63.315 27.3536 63.7895 27.1968 64.1039 26.7897C64.4129 26.3898 64.4341 25.8365 64.1442 25.4327C64.0547 25.3075 63.9419 25.1956 63.8298 25.0875C62.7682 24.0619 61.7024 23.0408 60.6449 22.0125C60.4679 21.84 60.3223 21.6371 60.1623 21.448C60.1835 21.4263 60.2067 21.4039 60.23 21.3815Z" fill="#0D0D0B"/>
<path d="M15.5193 24.9504C15.304 25.2283 15.1249 25.4536 14.9519 25.6842C14.2806 26.5787 14.0995 27.5892 14.1138 28.6742C14.1426 30.7696 14.122 32.8664 14.122 34.9625C14.122 35.0804 14.122 35.1983 14.122 35.392C14.0065 35.2886 13.9395 35.2405 13.8883 35.1805C13.2129 34.394 12.5354 33.6101 11.8723 32.8143C11.7828 32.707 11.7322 32.541 11.7274 32.4C11.7083 31.7749 11.7267 31.1491 11.6994 30.5246C11.6912 30.3316 11.6242 30.1129 11.5094 29.9561C11.0643 29.3461 10.5892 28.7559 10.1244 28.1591C10.0642 28.082 9.99656 28.0108 9.92273 27.9252C9.17146 28.5589 8.32722 28.7941 7.37224 28.5622C6.02214 28.2348 5.16492 26.9134 5.44587 25.6032C5.46912 25.4945 5.53406 25.368 5.62224 25.3028C7.37156 24.0031 9.12703 22.7107 10.8818 21.4182C10.9057 21.4011 10.9399 21.3965 11.024 21.4327C10.8415 21.6455 10.6747 21.8721 10.4744 22.0677C9.39295 23.1204 8.30261 24.1651 7.2157 25.2132C6.85545 25.561 6.71804 25.974 6.88142 26.4463C7.02429 26.8594 7.3196 27.14 7.77556 27.2204C8.19734 27.2948 8.57605 27.1374 8.88914 26.8982C9.3157 26.5728 9.69373 26.1888 10.1052 25.8436C10.2269 25.7415 10.3835 25.6394 10.5366 25.6177C12.1123 25.3897 13.6907 25.1776 15.2684 24.9629C15.3361 24.9536 15.4038 24.9556 15.5193 24.9504Z" fill="#0D0D0B"/>
<path d="M27.584 9.6586C32.8805 8.99789 38.1503 8.97681 43.4721 9.65399C43.3538 10.5887 43.2355 11.5268 43.1139 12.4879C42.4877 12.4437 41.8998 12.3989 41.3119 12.3607C37.9814 12.144 34.6489 12.1256 31.3164 12.2975C30.2938 12.3502 29.2738 12.4431 28.2519 12.5037C28.15 12.5096 27.9579 12.4332 27.949 12.3752C27.8137 11.4761 27.7022 10.5742 27.584 9.6586ZM35.5547 10.0611C35.3011 10.1375 35.0468 10.1751 34.8349 10.2877C34.5272 10.4511 34.5402 10.7541 34.8301 10.9497C35.1828 11.1875 35.9177 11.1829 36.2622 10.9418C36.5363 10.7501 36.5514 10.4616 36.2602 10.3002C36.0523 10.1836 35.7994 10.1401 35.5547 10.0611ZM29.3518 10.4616C29.1022 10.5545 28.8295 10.6125 28.6087 10.7488C28.2806 10.9524 28.3359 11.3074 28.714 11.4102C28.9553 11.4754 29.2314 11.4747 29.4823 11.4392C29.887 11.3819 30.1427 11.1368 30.1146 10.9043C30.0873 10.6698 29.7852 10.5117 29.3518 10.4616ZM41.7932 10.4866C41.5901 10.5242 41.4274 10.5189 41.3078 10.5854C41.1738 10.6592 41.0132 10.7857 40.9872 10.9128C40.9653 11.0202 41.0884 11.2047 41.2012 11.2784C41.5587 11.5116 41.9668 11.5637 42.3701 11.4075C42.4973 11.3588 42.649 11.2079 42.6613 11.0907C42.6736 10.9741 42.5547 10.7936 42.4398 10.7277C42.232 10.6092 41.9846 10.5545 41.7932 10.4866ZM33.3022 10.6691C32.5612 10.1441 31.9795 10.1678 31.5119 10.7422C32.3828 11.2356 32.5749 11.2277 33.3022 10.6691ZM39.6016 10.7053C38.7389 10.1408 38.3533 10.1408 37.7839 10.6908C38.6247 11.2323 38.8086 11.2356 39.6016 10.7053Z" fill="#0D0D0B"/>
<path d="M55.2716 10.0795C54.8532 11.2415 54.4185 12.3601 54.0493 13.4984C53.7185 14.5187 53.5728 15.574 53.6029 16.6484C53.6063 16.7591 53.5496 16.902 53.4689 16.9804C52.8605 17.5693 52.2392 18.1457 51.6219 18.7261C51.1912 19.1312 50.7824 19.5627 50.3237 19.9355C49.7563 20.3973 49.0645 20.5442 48.3365 20.4507C48.1485 20.4263 47.9797 20.2642 47.8047 20.1213C48.6715 19.9454 48.9449 19.3044 49.111 18.6365C49.4139 17.4218 49.6449 16.1913 49.9266 14.9719C50.213 13.7329 50.5937 12.5102 51.4373 11.5156C51.8775 10.9965 52.0655 10.4853 51.9869 9.84764C51.9726 9.72972 51.9849 9.60852 51.9849 9.4188C52.5044 9.63223 52.9795 9.82722 53.4095 10.0038C53.6487 9.72314 53.8757 9.45767 54.1539 9.13159C54.3638 9.75937 54.8587 9.88914 55.2716 10.0795Z" fill="#0D0D0B"/>
<path d="M23.2829 20.1845C23.1783 20.3472 22.9821 20.4526 22.6861 20.4731C21.5869 20.5488 20.7939 20.0172 20.0905 19.3025C19.5266 18.7294 18.9831 18.1385 18.426 17.5595C18.318 17.4475 18.2052 17.3223 18.0671 17.2584C17.6036 17.0443 17.5687 16.688 17.5633 16.24C17.5428 14.5477 17.0226 12.9575 16.3937 11.3963C16.2214 10.9695 16.0354 10.5472 15.8516 10.1131C16.2966 9.87992 16.8106 9.76925 17.0089 9.13818C17.2851 9.44779 17.51 9.69943 17.7752 9.99652C18.1635 9.83513 18.6352 9.63882 19.1704 9.41683C19.1704 9.85621 19.1636 10.235 19.1745 10.6131C19.1779 10.7257 19.1991 10.868 19.2716 10.9431C20.3482 12.0597 20.8719 13.4318 21.2164 14.8777C21.5097 16.1056 21.7482 17.346 22.0374 18.5752C22.1119 18.8908 22.2336 19.2228 22.4312 19.4764C22.6437 19.7471 22.9712 19.9329 23.2829 20.1845Z" fill="#0D0D0B"/>
<path d="M49.4336 20.8446C50.4104 20.5528 51.0564 19.9757 51.6621 19.3381C52.2151 18.7571 52.7818 18.1879 53.3485 17.6194C53.4483 17.52 53.5803 17.4501 53.7047 17.3612C54.6036 19.3895 56.1301 20.7596 58.2294 21.6166C58.1487 22.0185 57.865 22.3208 57.4836 22.4592C56.8403 22.6937 56.1718 22.8761 55.5005 23.0244C55.0719 23.1186 54.6193 23.11 54.1784 23.1502C53.7368 23.1904 53.3554 23.1001 52.963 22.8584C51.9472 22.2332 50.8938 21.6667 49.8547 21.0765C49.7405 21.0119 49.6257 20.95 49.4336 20.8446Z" fill="#0D0D0B"/>
<path d="M17.4854 17.3044C17.9161 17.7122 18.3283 18.085 18.7193 18.4777C19.0974 18.8577 19.446 19.2648 19.8192 19.6495C20.3319 20.1765 20.9191 20.6021 21.6909 20.83C21.6096 20.8946 21.5604 20.9453 21.5009 20.9795C20.2971 21.6686 19.0926 22.3569 17.8854 23.0407C17.791 23.0941 17.6769 23.1468 17.5723 23.1468C16.4293 23.1468 15.2904 23.0816 14.2083 22.6949C13.8645 22.5717 13.5445 22.3616 13.2506 22.1448C13.094 22.0289 13.0161 21.8135 12.8965 21.633C15.0231 20.7727 16.5592 19.4078 17.4854 17.3044Z" fill="#0D0D0B"/>
<path d="M58.6805 15.4066C57.9955 15.9639 58.0775 16.535 58.541 17.2056C57.0159 16.7748 55.594 16.4619 54.0293 16.7333C54.0628 16.2228 54.0683 15.7551 54.1284 15.2946C54.3526 13.5911 54.9795 12.0042 55.6713 10.4371C55.7458 10.2678 55.8347 10.2428 56.0104 10.2797C56.5319 10.3897 57.0603 10.4727 57.5819 10.584C57.6783 10.6044 57.826 10.7085 57.8294 10.779C57.8574 11.4081 58.2819 11.7473 58.7755 12.0464C58.8903 12.1162 59.0127 12.1887 59.0981 12.2868C59.1788 12.3797 59.2725 12.5174 59.2547 12.6182C59.2355 12.7282 59.094 12.8178 58.9669 12.9607C59.0845 13.3599 59.0776 13.4251 58.8411 13.9594C58.4022 13.9231 57.9757 13.8283 57.5614 13.8645C56.5087 13.9561 56.4068 14.7116 56.7678 15.4758C56.7992 15.543 56.9742 15.5845 57.0774 15.5759C57.5853 15.5344 58.0919 15.4712 58.6805 15.4066ZM57.1916 11.1979C56.7664 11.1538 56.3897 11.1143 55.9857 11.0721C56.0356 11.4641 56.2441 11.5938 56.5265 11.6162C56.8156 11.6393 57.0549 11.5444 57.1916 11.1979Z" fill="#0D0D0B"/>
<path d="M12.6977 17.1952C12.8126 16.8909 12.8864 16.6504 12.9944 16.4251C13.099 16.2071 13.0853 16.0404 12.8905 15.8744C12.7579 15.7611 12.6581 15.6122 12.4817 15.408C13.0306 15.4686 13.4989 15.4983 13.9589 15.5773C14.2837 15.6333 14.4279 15.5372 14.5154 15.2361C14.7505 14.4252 14.4443 13.9285 13.5755 13.8607C13.1797 13.8297 12.7736 13.9226 12.3245 13.9634C12.2616 13.6598 11.9403 13.3251 12.2684 12.8976C12.157 12.866 12.0237 12.8666 11.9943 12.8133C11.9068 12.6532 11.7462 12.4721 12.0196 12.312C12.1843 12.2158 12.3224 12.0768 12.4885 11.9833C12.965 11.7158 13.2904 11.3608 13.3437 10.8035C13.3519 10.7211 13.5003 10.6072 13.6021 10.5848C14.123 10.4695 14.648 10.372 15.1751 10.289C15.266 10.2745 15.4335 10.3318 15.4635 10.399C16.3173 12.3074 17.0953 14.2375 17.111 16.3619C17.1117 16.4495 17.1062 16.5371 17.1001 16.6247C17.0987 16.6445 17.0816 16.6636 17.0563 16.7143C15.5968 16.4745 14.1811 16.7558 12.6977 17.1952ZM14.0314 11.1934C14.0998 11.505 14.324 11.6519 14.6507 11.6203C14.9857 11.588 15.1573 11.4082 15.145 11.0742C14.784 11.1131 14.4245 11.1513 14.0314 11.1934Z" fill="#0D0D0B"/>
<path d="M61.2512 28.7507C61.2512 28.9543 61.2512 29.1572 61.2512 29.3607C61.2512 29.8106 61.2608 30.2606 61.2492 30.7098C61.2341 31.273 61.4802 31.717 61.9895 31.9469C62.455 32.1571 62.9739 32.2592 63.4715 32.4014C63.5761 32.4311 63.6896 32.4311 63.8099 32.4462C63.0867 33.7953 63.1393 35.2294 63.1229 36.6509C63.1174 37.1549 63.1646 37.6588 63.1749 38.1627C63.1769 38.2767 63.1461 38.4019 63.0942 38.504C62.9896 38.7102 62.8577 38.9038 62.7401 39.1047C62.4878 39.5369 62.0859 39.938 62.5343 40.552C61.8398 40.552 61.2587 40.552 60.6353 40.552C60.6305 40.2022 60.5628 39.8438 60.8089 39.4644C61.7058 38.0824 61.7427 36.5897 61.3182 35.0568C61.0858 34.2169 60.6647 33.4732 60.1001 32.7967C59.9845 32.6584 59.9278 32.4509 59.908 32.269C59.8793 32.0095 59.9579 31.7341 59.9045 31.4819C59.6468 30.2606 60.5451 29.5636 61.2512 28.7507Z" fill="#0D0D0B"/>
<path d="M10.5854 40.5677C9.92578 40.5677 9.33926 40.5677 8.76641 40.5677C8.74727 40.5084 8.72949 40.4827 8.73633 40.4682C8.94551 40.0137 8.80264 39.6211 8.51621 39.2489C8.09443 38.7002 7.96318 38.1066 8.00625 37.409C8.06709 36.4275 8.00215 35.4361 7.94199 34.452C7.89961 33.7623 7.76289 33.0812 7.32812 32.4507C7.4751 32.4316 7.58584 32.4257 7.69316 32.4027C8.0582 32.3236 8.43691 32.2762 8.7835 32.1477C9.64072 31.8302 9.92373 31.3987 9.92373 30.5167C9.92373 29.9311 9.92373 29.3455 9.92373 28.7598C9.95176 28.7519 9.97979 28.744 10.0085 28.7355C10.407 29.2493 10.8076 29.7618 11.2014 30.2789C11.2369 30.3257 11.2383 30.4027 11.241 30.466C11.2499 30.6629 11.2417 30.8612 11.2574 31.0582C11.3299 31.9679 11.2984 32.848 10.5321 33.5284C9.39873 35.5567 9.16426 37.5869 10.4556 39.6534C10.606 39.8925 10.5465 40.2541 10.5854 40.5677Z" fill="#0D0D0B"/>
<path d="M4.794 18.1674C4.48911 17.7294 4.07964 17.3157 4.43989 16.6925C4.87261 17.2307 5.47759 17.3736 6.08736 17.4329C7.04781 17.5271 8.01646 17.5475 8.97964 17.6187C10.379 17.7221 11.4939 19.0626 11.3066 20.4058C11.2943 20.4921 11.2382 20.5955 11.1678 20.6476C9.53404 21.857 7.89614 23.0605 6.25825 24.2647C6.25142 24.2699 6.23775 24.2673 6.16734 24.2746C6.27056 24.1645 6.34302 24.0809 6.423 24.0038C7.42857 23.0335 8.43618 22.0645 9.44175 21.0942C9.89292 20.6581 10.0235 20.1772 9.7938 19.6944C9.54908 19.1806 9.11636 18.9605 8.52915 18.9737C7.52769 18.9954 6.52622 18.9961 5.52476 19.008C5.43452 19.0093 5.34292 19.0211 5.25337 19.0369C3.9313 19.2695 3.37349 19.9519 3.46577 21.2714C3.37281 21.2305 3.28941 21.2108 3.2272 21.164C2.62017 20.7121 2.33784 20.1153 2.43765 19.3801C2.50327 18.8953 2.7815 18.533 3.29077 18.4171C3.77271 18.3071 4.269 18.2524 4.794 18.1674Z" fill="#0D0D0B"/>
<path d="M64.8406 24.2251C64.2103 23.7607 63.5793 23.2963 62.9491 22.8312C62.018 22.1442 61.0931 21.4485 60.1511 20.7753C59.9098 20.6027 59.8339 20.4071 59.836 20.1363C59.8442 18.8973 60.9072 17.5699 62.571 17.5791C63.5335 17.5844 64.5001 17.475 65.4579 17.3604C66.0704 17.2873 66.3096 17.1167 66.7027 16.7445C67.0007 17.0884 66.9413 17.3499 66.3575 18.197C66.7068 18.2306 67.0404 18.2484 67.3699 18.2971C67.8005 18.3604 68.2332 18.4454 68.5046 18.8235C69.1137 19.6706 68.4998 21.0263 67.7062 21.2568C67.7192 21.0573 67.7534 20.8662 67.7397 20.6785C67.6877 19.9815 67.2837 19.496 66.6336 19.2635C66.1743 19.0988 65.6657 19.0139 65.1735 18.9895C64.3101 18.9467 63.4433 18.9756 62.5772 18.9783C61.9996 18.9796 61.5518 19.247 61.3618 19.7207C61.1601 20.2239 61.2784 20.6699 61.6694 21.0487C62.6661 22.0124 63.6655 22.9742 64.6635 23.9366C64.7435 24.0137 64.8194 24.0934 64.8973 24.1724C64.8782 24.1895 64.8597 24.2073 64.8406 24.2251Z" fill="#0D0D0B"/>
<path d="M60.2066 40.6112C58.8216 40.6112 57.5385 40.6112 56.2561 40.6112C56.1529 39.6817 57.058 38.8352 58.0013 38.994C58.2337 39.0329 58.3862 38.9782 58.5516 38.8405C59.562 37.9986 59.8375 36.4078 59.1559 35.226C58.9912 34.9401 58.782 34.6773 58.5673 34.3664C58.9228 33.9487 59.2954 33.5113 59.7124 33.0212C59.927 33.3203 60.1533 33.5785 60.3153 33.8704C61.1787 35.4243 61.4179 37.0343 60.7248 38.7134C60.7207 38.7233 60.7166 38.7338 60.7111 38.7437C60.3713 39.3076 59.966 39.8523 60.2066 40.6112Z" fill="#0D0D0B"/>
<path d="M11.4866 33.0581C11.8687 33.506 12.2365 33.9369 12.5817 34.3407C12.3233 34.7708 12.0382 35.1575 11.8455 35.583C11.367 36.6416 11.6951 38.0158 12.5639 38.795C12.7478 38.9597 12.9249 39.0467 13.2004 38.9894C13.7712 38.8714 14.2463 39.073 14.5464 39.5513C14.7412 39.8622 14.8601 40.2172 15.0372 40.6066C13.6488 40.6066 12.3582 40.6066 11.0799 40.6066C11.0525 40.5756 11.0252 40.5578 11.0265 40.5433C11.099 39.8918 10.7893 39.3662 10.5043 38.7996C9.61969 37.0487 10.1057 34.3262 11.4866 33.0581Z" fill="#0D0D0B"/>
<path d="M51.4881 37.9843C50.691 37.9105 49.935 37.8413 49.1406 37.7675C49.1755 37.672 49.1946 37.591 49.2322 37.5198C50.1435 35.7782 51.0554 34.0365 51.9755 32.2987C52.0295 32.1966 52.1484 32.0859 52.2592 32.057C53.6312 31.7006 55.0072 31.358 56.3826 31.0135C56.4339 31.001 56.4906 31.0069 56.585 31.0023C56.585 31.1591 56.5754 31.2994 56.587 31.4384C56.6021 31.6202 56.5139 31.692 56.3382 31.7184C56.0237 31.7658 55.7127 31.8356 55.3976 31.8791C55.1337 31.9153 54.9553 32.0319 54.7994 32.25C53.6934 33.7921 52.5791 35.3289 51.4484 36.8539C51.2529 37.118 51.1887 37.3433 51.3568 37.6272C51.4122 37.7201 51.4334 37.8314 51.4881 37.9843Z" fill="#0D0D0B"/>
<path d="M19.5876 37.9947C20.1317 37.3722 19.8063 36.9644 19.4714 36.5158C18.4091 35.0923 17.3721 33.651 16.3364 32.2084C16.2011 32.02 16.0466 31.9245 15.8203 31.8889C15.4177 31.8256 15.0178 31.7459 14.6035 31.6708C14.6035 31.4429 14.6035 31.2381 14.6035 31.0101C14.6876 31.0154 14.7648 31.0082 14.8353 31.0259C16.1778 31.3619 17.5197 31.6979 18.8596 32.045C18.9751 32.0746 19.1139 32.1609 19.1658 32.2584C20.1201 34.0522 21.0635 35.8518 22.0082 37.6508C22.0178 37.6693 22.015 37.693 22.0246 37.7641C21.2535 37.8366 20.4838 37.9097 19.5876 37.9947Z" fill="#0D0D0B"/>
<path d="M44.334 13.0715C44.4905 12.8067 44.6054 12.5827 44.753 12.3805C44.7968 12.3205 44.9308 12.2981 45.0237 12.2975C45.7073 12.2909 46.3909 12.2882 47.0738 12.3001C47.1798 12.3021 47.3514 12.3594 47.3787 12.4312C47.6617 13.1802 48.3542 13.4964 48.9838 13.8804C49.6182 14.2671 49.6106 14.2651 49.4568 14.9686C49.2148 16.074 48.9865 17.182 48.7486 18.288C48.724 18.4026 48.6769 18.5133 48.6215 18.6846C48.1081 18.2188 47.6645 17.7446 47.1456 17.3658C46.5112 16.902 46.2768 16.35 46.3554 15.5925C46.4217 14.9509 46.3499 14.298 46.3772 13.6512C46.3902 13.3429 46.2686 13.2533 45.9773 13.2335C45.4558 13.1973 44.9362 13.1327 44.334 13.0715Z" fill="#0D0D0B"/>
<path d="M26.8363 13.072C26.2368 13.1326 25.7063 13.1992 25.1731 13.2361C24.8915 13.2552 24.7855 13.3441 24.7924 13.6353C24.8129 14.545 24.8047 15.456 24.7944 16.3664C24.7931 16.4968 24.7575 16.6668 24.6686 16.7504C24.0097 17.371 23.3336 17.975 22.6616 18.583C22.6384 18.6041 22.6028 18.6114 22.5263 18.6476C22.4394 18.3222 22.3431 18.0132 22.2747 17.699C22.0409 16.6266 21.8112 15.5535 21.5966 14.4771C21.5781 14.3829 21.6533 14.2275 21.7367 14.1669C21.9903 13.9824 22.2617 13.8171 22.5399 13.6695C23.0704 13.3889 23.5127 13.0371 23.7601 12.4825C23.7998 12.3935 23.9625 12.3046 24.0705 12.302C24.7643 12.2855 25.4596 12.2862 26.1534 12.3013C26.2635 12.304 26.405 12.3843 26.4733 12.4719C26.6087 12.6425 26.7023 12.8435 26.8363 13.072Z" fill="#0D0D0B"/>
<path d="M22.0466 31.9613C21.847 32.2294 21.6392 32.2894 21.3411 32.213C19.1967 31.6623 17.0502 31.1215 14.901 30.5912C14.6542 30.5306 14.6091 30.4245 14.5735 30.194C14.4587 29.4562 14.7109 28.9536 15.4055 28.5972C15.8628 28.3627 16.2613 28.0214 16.7152 27.7079C18.4885 29.1235 20.2569 30.5339 22.0466 31.9613Z" fill="#0D0D0B"/>
<path d="M54.4542 27.7079C55.1269 28.1723 55.7687 28.6077 56.3983 29.0596C56.4906 29.1261 56.5624 29.2684 56.5733 29.3817C56.6 29.6538 56.5706 29.9305 56.5904 30.2038C56.6068 30.4304 56.5275 30.5286 56.291 30.5866C54.6586 30.9851 53.0303 31.3994 51.4013 31.8092C50.8729 31.9422 50.341 32.0628 49.8181 32.2143C49.5166 32.3019 49.3129 32.2222 49.127 31.9581C50.8988 30.5451 52.6659 29.1347 54.4542 27.7079Z" fill="#0D0D0B"/>
<path d="M16.987 39.5947C18.5921 39.6837 20.1603 39.77 21.7284 39.8582C23.8312 39.9768 25.9346 40.0987 28.0373 40.2139C28.2212 40.2238 28.3518 40.2495 28.4352 40.4412C29.0606 41.8779 29.6984 43.3093 30.3314 44.7427C30.3533 44.7915 30.3656 44.8442 30.3971 44.9423C29.5959 44.9423 28.8214 44.9423 28.0045 44.9423C28.0045 43.5359 28.0045 42.1144 28.0045 40.6441C24.3124 40.6441 20.662 40.6441 16.9863 40.6441C16.987 40.2745 16.987 39.9524 16.987 39.5947Z" fill="#0D0D0B"/>
<path d="M6.69685 47.908C5.56823 47.7809 4.43825 47.6577 3.31101 47.5193C3.23718 47.5101 3.12234 47.3856 3.12165 47.3145C3.1114 45.2085 3.11345 43.1025 3.11345 40.9406C3.39441 40.988 3.65554 41.0018 3.88864 41.0868C3.97409 41.1184 4.024 41.3154 4.03835 41.4425C4.2031 42.8865 4.60778 44.2665 5.30026 45.5537C5.68103 46.2618 6.15681 46.9225 6.59021 47.6043C6.63601 47.6761 6.68659 47.7459 6.73444 47.8164C6.72282 47.8467 6.70984 47.8777 6.69685 47.908Z" fill="#0D0D0B"/>
<path d="M51.4885 32.2426C51.1187 32.954 50.7946 33.5798 50.4672 34.2036C49.8971 35.2899 49.3181 36.3715 48.7589 37.4637C48.6495 37.6771 48.5265 37.7358 48.2872 37.718C47.4587 37.6554 46.6288 37.6172 45.7996 37.5684C45.6772 37.5612 45.5556 37.5454 45.4004 37.5296C45.5583 37.0671 45.7586 36.6712 46.1079 36.3557C46.4388 36.0566 46.8325 36.1139 47.2358 36.139C47.43 36.1508 47.6699 36.1074 47.823 36.0006C48.9134 35.2438 49.4944 34.17 49.7713 32.9316C49.8219 32.707 49.9203 32.624 50.1329 32.5778C50.5533 32.4876 50.9669 32.3736 51.4885 32.2426Z" fill="#0D0D0B"/>
<path d="M25.7401 37.5402C25.2165 37.5718 24.6977 37.6041 24.1788 37.635C23.7242 37.6627 23.2703 37.7029 22.8157 37.7088C22.6981 37.7101 22.5177 37.6357 22.4691 37.5448C21.5579 35.838 20.6624 34.1233 19.7648 32.4099C19.7505 32.3823 19.7491 32.3487 19.7266 32.2551C20.2584 32.3895 20.7608 32.5054 21.2523 32.6537C21.3275 32.6761 21.3761 32.8447 21.4 32.9534C21.603 33.873 21.994 34.7036 22.653 35.4039C22.8506 35.614 23.083 35.7939 23.3038 35.9836C23.4911 36.1443 23.6928 36.1937 23.958 36.1562C24.8952 36.0231 25.5323 36.5185 25.7401 37.5402Z" fill="#0D0D0B"/>
<path d="M14.617 28.6229C14.3334 26.7146 15.8126 24.9498 17.6413 23.8049C18.1198 24.3662 18.6003 24.9301 19.1007 25.517C17.6009 26.5558 16.1285 27.5755 14.617 28.6229Z" fill="#0D0D0B"/>
<path d="M52.0684 25.5162C52.5688 24.9293 53.0438 24.3714 53.5176 23.816C55.1384 24.7567 56.915 26.6908 56.5247 28.6037C55.0358 27.5722 53.5634 26.5518 52.0684 25.5162Z" fill="#0D0D0B"/>
<path d="M68.0539 40.9524C68.0539 41.1191 68.0539 41.2488 68.0539 41.3779C68.0539 43.2534 68.0553 45.1288 68.0525 47.0049C68.0519 47.5444 68.1298 47.491 67.5617 47.5635C67.4845 47.5733 67.4072 47.5826 67.2972 47.5957C67.0606 45.4193 66.7455 43.2731 65.5137 41.2982C66.3647 41.183 67.181 41.0716 68.0539 40.9524Z" fill="#0D0D0B"/>
<path d="M54.1191 17.122C54.6653 17.1009 55.1131 17.0838 55.5608 17.068C55.5943 17.0667 55.6285 17.0766 55.662 17.0798C56.6553 17.1793 57.0524 17.5634 57.1659 18.5357C57.1762 18.6219 57.1775 18.7096 57.183 18.7926C57.7846 19.0238 57.8687 19.1443 57.8393 19.7701C57.8215 20.1489 57.7894 20.527 57.76 20.9736C56.1433 20.0652 54.8458 18.9388 54.1191 17.122Z" fill="#0D0D0B"/>
<path d="M17.0022 17.2419C16.3288 18.9316 15.0307 20.062 13.4564 20.946C13.4181 20.9328 13.3805 20.919 13.3422 20.9058C13.3422 20.4177 13.3354 19.9296 13.3449 19.4415C13.3504 19.1516 13.4789 18.9454 13.7954 18.8572C13.8809 18.8334 13.9595 18.707 13.9944 18.6121C14.0429 18.4797 14.0374 18.3302 14.073 18.1925C14.2746 17.4139 14.574 17.1484 15.3957 17.0957C15.9098 17.0628 16.428 17.0898 16.9447 17.0898C16.9639 17.1405 16.983 17.1912 17.0022 17.2419Z" fill="#0D0D0B"/>
<path d="M44.395 40.5657C46.0732 40.345 47.7508 40.1237 49.429 39.9036C50.8604 39.7159 52.2919 39.5301 53.7233 39.3431C54.2087 39.2798 54.2661 39.3246 54.2675 39.7765C54.2695 40.646 54.2695 40.646 53.3569 40.646C50.5118 40.646 47.666 40.646 44.8209 40.646C44.6753 40.646 44.5297 40.646 44.3848 40.646C44.3882 40.6197 44.3916 40.5927 44.395 40.5657Z" fill="#0D0D0B"/>
<path d="M60.1875 25.1052C59.4253 25.0024 58.6624 24.8997 57.9002 24.7962C57.1455 24.6935 56.3929 24.5756 55.6361 24.4919C55.2718 24.4517 54.9594 24.3588 54.7023 24.0914C54.5424 23.9254 54.3421 23.7956 54.1035 23.6039C54.5294 23.571 54.8931 23.5473 55.2561 23.5137C56.1112 23.4353 56.9425 23.2746 57.7067 22.8668C57.7765 22.8292 57.9344 22.847 57.9904 22.8997C58.7396 23.6019 59.4779 24.3154 60.2189 25.0261C60.2087 25.0525 60.1984 25.0788 60.1875 25.1052Z" fill="#0D0D0B"/>
<path d="M17.0687 23.5889C16.5144 24.0414 16.0844 24.4696 15.3447 24.5329C13.9994 24.6475 12.6644 24.8807 11.3252 25.0631C11.2165 25.0776 11.1058 25.0796 11.0449 25.0836C11.7976 24.3471 12.5646 23.5955 13.363 22.8142C14.4403 23.4301 15.7057 23.5303 17.0687 23.5889Z" fill="#0D0D0B"/>
<path d="M23.4125 29.5491C22.9586 29.1433 22.4548 28.7777 22.0597 28.3245C20.7492 26.8212 19.4777 25.287 18.1919 23.764C18.129 23.6896 18.0723 23.6099 17.9902 23.5038C18.2903 23.3141 18.5713 23.1363 18.8857 22.938C20.4416 25.1243 21.9824 27.2903 23.5232 29.4555C23.4863 29.4871 23.4494 29.5181 23.4125 29.5491Z" fill="#0D0D0B"/>
<path d="M52.2832 22.936C52.6004 23.1389 52.8813 23.3181 53.1876 23.5137C52.7009 24.0908 52.2429 24.6349 51.7835 25.1777C50.8483 26.2831 49.9296 27.4023 48.9664 28.4852C48.6191 28.8759 48.1645 29.1789 47.7592 29.5221C47.727 29.4931 47.6942 29.4641 47.6621 29.4358C49.1927 27.2824 50.7239 25.129 52.2832 22.936Z" fill="#0D0D0B"/>
<path d="M67.2463 21.0514C66.8977 20.3841 66.3091 20.3123 65.6911 20.3222C65.1688 20.3301 64.6466 20.3689 64.1236 20.3736C63.518 20.3782 63.1666 20.0495 63.1133 19.4889C64.0601 19.4889 65.0144 19.4414 65.9577 19.5132C66.3159 19.5403 66.6871 19.7998 66.9879 20.0317C67.2805 20.257 67.3413 20.6179 67.2463 21.0514Z" fill="#0D0D0B"/>
<path d="M3.95039 21.056C3.8164 20.5105 3.95859 20.0718 4.42822 19.8195C4.77548 19.6331 5.18154 19.477 5.57187 19.4506C6.3956 19.3953 7.22617 19.4335 8.05468 19.4335C8.0164 20.029 7.65888 20.3762 7.06142 20.3722C6.47148 20.3683 5.88154 20.3182 5.2916 20.3254C4.74199 20.3327 4.21699 20.4308 3.95039 21.056Z" fill="#0D0D0B"/>
<path d="M14.057 14.9936C13.3105 14.7703 12.6475 15.1359 11.9495 15.2947C10.9016 15.5332 10.1544 15.2407 9.63281 14.3784C9.61094 14.3428 9.59795 14.302 9.56445 14.2242C9.86182 14.3527 10.1188 14.4792 10.3868 14.5767C10.985 14.7934 11.5831 14.7908 12.1792 14.551C12.6926 14.3448 13.2244 14.2453 13.7761 14.3817C14.1404 14.4726 14.189 14.5813 14.057 14.9936Z" fill="#0D0D0B"/>
<path d="M57.0906 15.0094C56.999 14.5371 57.0455 14.4021 57.4433 14.3817C57.8993 14.3586 58.4004 14.35 58.8119 14.5062C59.758 14.8645 60.6131 14.7598 61.4567 14.2763C61.4854 14.2598 61.5175 14.2479 61.549 14.2367C61.5558 14.2341 61.5674 14.2447 61.577 14.2486C61.2092 15.1517 60.3165 15.5536 59.2309 15.2999C59.0429 15.2558 58.8556 15.2057 58.6738 15.1438C58.1632 14.9686 57.6484 14.8434 57.0906 15.0094Z" fill="#0D0D0B"/>
<path d="M31.0435 7.3661C31.4865 7.3582 31.8529 7.70008 31.8597 8.1276C31.8666 8.54458 31.4926 8.90688 31.0565 8.90623C30.6313 8.90557 30.2731 8.56895 30.2601 8.15658C30.2471 7.72972 30.5992 7.37466 31.0435 7.3661Z" fill="#0D0D0B"/>
<path d="M22.8741 23.7904C22.2295 23.1995 21.5158 22.5447 20.7734 21.8636C21.3347 21.5672 21.8692 21.2852 22.4756 20.9651C22.3601 21.4611 22.2452 21.8807 22.1721 22.3069C22.1454 22.4617 22.1782 22.6534 22.2541 22.7918C22.4592 23.1653 22.7025 23.519 22.8741 23.7904Z" fill="#0D0D0B"/>
<path d="M30.0381 8.2772C30.0305 8.71592 29.6812 9.03738 29.2225 9.02618C28.7686 9.01498 28.4412 8.67574 28.4555 8.23109C28.4692 7.81016 28.8131 7.49396 29.2533 7.4966C29.7017 7.49989 30.0456 7.84112 30.0381 8.2772Z" fill="#0D0D0B"/>
<path d="M41.9338 9.02548C41.4881 9.02416 41.1327 8.67832 41.1368 8.25146C41.1409 7.84437 41.4956 7.50248 41.9222 7.49655C42.3652 7.48997 42.7329 7.83383 42.7357 8.25739C42.7391 8.68425 42.3809 9.02745 41.9338 9.02548Z" fill="#0D0D0B"/>
<path d="M35.5757 5.41556C36.0242 5.407 36.3851 5.74427 36.3885 6.17377C36.3919 6.60129 36.0317 6.95437 35.5921 6.95437C35.1676 6.95437 34.8108 6.61776 34.7992 6.20605C34.7868 5.77128 35.128 5.42413 35.5757 5.41556Z" fill="#0D0D0B"/>
<path d="M26.379 6.70277C26.3742 6.2634 26.716 5.92744 27.1665 5.9281C27.5964 5.92876 27.9485 6.25813 27.9608 6.67116C27.9738 7.09999 27.6292 7.4511 27.1829 7.4623C26.7392 7.47415 26.3831 7.13754 26.379 6.70277Z" fill="#0D0D0B"/>
<path d="M43.7535 9.15395C43.3024 9.15592 42.953 8.82062 42.9551 8.38718C42.9571 7.97415 43.3017 7.63358 43.7282 7.62304C44.1726 7.6125 44.5369 7.94978 44.5438 8.37861C44.5499 8.81536 44.2074 9.15197 43.7535 9.15395Z" fill="#0D0D0B"/>
<path d="M40.9136 8.1315C40.9157 8.56363 40.5609 8.90946 40.1166 8.90683C39.69 8.90419 39.3386 8.5689 39.3284 8.15389C39.3174 7.72242 39.6654 7.37197 40.1104 7.36604C40.5582 7.36012 40.9109 7.69673 40.9136 8.1315Z" fill="#0D0D0B"/>
<path d="M48.6924 20.9651C49.3117 21.2912 49.8374 21.5678 50.4034 21.8662C49.6549 22.5447 48.9323 23.2008 48.3164 23.7588C48.4545 23.5394 48.6972 23.1923 48.8934 22.8227C48.9768 22.6653 49.0116 22.4532 48.985 22.2779C48.9221 21.8702 48.8086 21.4697 48.6924 20.9651Z" fill="#0D0D0B"/>
<path d="M28.227 8.40691C28.2201 8.843 27.8653 9.16709 27.4094 9.15458C26.9739 9.14206 26.6349 8.8094 26.6328 8.39308C26.6314 7.97017 26.9999 7.61775 27.4395 7.62236C27.8852 7.62763 28.2338 7.97478 28.227 8.40691Z" fill="#0D0D0B"/>
<path d="M38.3042 8.7719C37.8517 8.77058 37.516 8.43463 37.5236 7.99196C37.5311 7.56839 37.866 7.24166 38.2994 7.23639C38.7397 7.23112 39.104 7.57761 39.1054 8.00316C39.1054 8.43463 38.7527 8.77322 38.3042 8.7719Z" fill="#0D0D0B"/>
<path d="M34.6812 8.63493C34.2238 8.6323 33.88 8.29898 33.8868 7.86553C33.8937 7.43603 34.2546 7.10337 34.7037 7.11325C35.1282 7.12247 35.483 7.46567 35.4892 7.87146C35.4953 8.29041 35.1275 8.63757 34.6812 8.63493Z" fill="#0D0D0B"/>
<path d="M33.667 7.99724C33.6711 8.42871 33.317 8.77323 32.8726 8.77191C32.4256 8.77059 32.0708 8.42542 32.0762 7.99658C32.0817 7.57828 32.4208 7.24694 32.8555 7.23574C33.2971 7.22454 33.6635 7.5684 33.667 7.99724Z" fill="#0D0D0B"/>
<path d="M43.2207 6.69091C43.2235 6.26405 43.5912 5.91755 44.0308 5.92809C44.4758 5.93863 44.8197 6.28776 44.8101 6.71857C44.8005 7.13358 44.4491 7.46492 44.0198 7.46558C43.5741 7.46558 43.2173 7.11974 43.2207 6.69091Z" fill="#0D0D0B"/>
<path d="M35.7053 7.85829C35.7149 7.42551 36.0724 7.10075 36.5249 7.11326C36.9706 7.12512 37.2994 7.4703 37.2858 7.91099C37.2721 8.3339 36.9337 8.64087 36.4873 8.63494C36.0279 8.62902 35.6957 8.29965 35.7053 7.85829Z" fill="#0D0D0B"/>
<path d="M34.7634 22.9946C35.3875 23.3754 35.9693 23.7304 36.5455 24.0822C36.9639 23.6784 37.3269 23.7456 37.5709 24.239C38.0276 25.1619 38.2832 26.1315 38.3243 27.1532C38.3304 27.3008 38.3249 27.449 38.3249 27.6124C36.2167 26.8489 34.6746 24.8661 34.7634 22.9946Z" fill="#0D0D0B"/>
<path d="M41.0779 28.592C40.9323 28.5097 40.8072 28.4392 40.6589 28.3555C40.5276 28.5051 40.3991 28.652 40.2521 28.8199C39.829 28.5663 39.412 28.3233 39.006 28.0637C38.9362 28.0196 38.8781 27.9043 38.8781 27.822C38.8733 26.3918 38.5575 25.0368 37.8473 23.774C37.8281 23.7391 37.8302 23.693 37.8145 23.608C38.2301 23.6792 38.6204 23.7365 39.0053 23.8188C39.0873 23.8366 39.1625 23.9354 39.2158 24.0132C40.1489 25.3787 40.7259 26.8826 41.0779 28.4735C41.0841 28.5024 41.0779 28.5347 41.0779 28.592Z" fill="#0D0D0B"/>
<path d="M42.3271 29.408C41.8479 29.2242 41.6147 28.9225 41.5197 28.437C41.1704 26.6512 40.4814 24.9886 39.3985 23.4919C39.095 23.0723 38.745 22.6836 38.4258 22.2924C40.56 22.8147 42.8849 27.0234 42.3271 29.408Z" fill="#0D0D0B"/>
<path d="M35.0271 25.7476C34.5862 25.4136 34.1002 25.1218 33.716 24.7358C33.1664 24.1837 33.3141 23.1317 34.0311 22.4684C34.1173 22.6397 34.2437 22.78 34.2547 22.9288C34.3237 23.8708 34.5309 24.77 35.0463 25.5868C35.0668 25.6191 35.0716 25.66 35.0839 25.6968C35.0647 25.714 35.0456 25.7304 35.0271 25.7476Z" fill="#0D0D0B"/>
<path d="M34.0513 16.7222C33.8722 16.7828 33.6944 16.8783 33.5126 16.8882C33.4203 16.8935 33.3185 16.7439 33.2207 16.6642C33.3164 16.5937 33.4176 16.4593 33.5058 16.4666C33.689 16.4831 33.8653 16.5746 34.0444 16.6352C34.0465 16.6642 34.0485 16.6932 34.0513 16.7222Z" fill="#0D0D0B"/>
<path d="M48.5039 44.6644C48.5039 44.3153 48.5039 43.9826 48.5039 43.6315C48.8471 43.6183 49.2176 43.5162 49.4165 43.8403C49.5102 43.9932 49.5061 44.2909 49.4104 44.4444C49.2142 44.7612 48.8505 44.6954 48.5039 44.6644Z" fill="#0D0D0B"/>
<path d="M11.9297 44.6684C11.9297 44.3206 11.9297 43.9952 11.9297 43.6257C12.2523 43.6243 12.6153 43.5124 12.8293 43.8187C12.9318 43.9649 12.9428 44.264 12.8553 44.4221C12.6618 44.7699 12.2838 44.6875 11.9297 44.6684Z" fill="#0D0D0B"/>
<path d="M18.2949 46.0913C18.2949 45.2606 18.2949 44.4583 18.2949 43.6236C18.8753 43.6078 19.4598 43.5301 19.8419 44.0367C20.2015 44.5136 20.1755 45.0617 19.8973 45.561C19.5568 46.1716 18.9313 46.1202 18.2949 46.0913Z" fill="#0D0D0B"/>
</g>
<path d="M127.973 21.2111C127.449 21.1325 126.954 21.0438 126.455 20.9876C126.102 20.9483 126.002 20.7775 125.997 20.4327C125.977 19.069 125.965 19.069 127.335 19.069C128.832 19.069 130.33 19.0858 131.827 19.0589C132.282 19.051 132.395 19.2027 132.391 19.6363C132.379 20.9326 132.394 20.9225 131.095 21.1516C130.943 21.1786 130.711 21.401 130.708 21.5369C130.678 22.7512 130.69 23.9666 130.69 25.2303C132.895 25.2303 135.072 25.2303 137.337 25.2303C137.337 24.608 137.337 23.979 137.337 23.351C137.337 23.0702 137.337 22.7894 137.337 22.5086C137.337 21.2572 137.339 21.2471 136.112 21.028C135.783 20.9696 135.611 20.8652 135.636 20.4956C135.665 20.0519 135.643 19.6048 135.643 19.1139C137.78 19.1139 139.863 19.1139 142.023 19.1139C142.023 19.6239 142.051 20.126 142.004 20.6203C141.991 20.7506 141.766 20.9292 141.611 20.964C141.121 21.073 140.619 21.1246 140.08 21.2044C140.08 24.9315 140.08 28.6441 140.08 32.3959C140.599 32.4847 141.133 32.5487 141.651 32.6812C141.801 32.7194 141.99 32.9418 142.007 33.0957C142.056 33.5383 142.024 33.9899 142.024 34.4931C139.898 34.4931 137.8 34.4931 135.673 34.4931C135.673 33.8978 135.673 33.3238 135.673 32.688C136.197 32.5959 136.723 32.5038 137.293 32.4038C137.293 30.903 137.293 29.4001 137.293 27.8611C135.108 27.8611 132.943 27.8611 130.735 27.8611C130.735 29.3641 130.735 30.8671 130.735 32.4027C131.264 32.4936 131.792 32.5846 132.348 32.6812C132.348 33.2856 132.348 33.8585 132.348 34.4943C132.193 34.5122 132.035 34.5448 131.876 34.5459C130.098 34.5493 128.32 34.5369 126.542 34.5572C126.129 34.5617 125.992 34.4493 125.994 34.0225C126 32.7071 125.982 32.706 127.291 32.506C127.509 32.4723 127.728 32.4453 127.973 32.4116C127.973 28.6677 127.973 24.9529 127.973 21.2111Z" fill="#0D0D0B"/>
<path d="M79.0049 34.5653C79.0049 33.9823 78.987 33.4801 79.0195 32.9814C79.0263 32.8736 79.2004 32.7118 79.3217 32.686C79.8497 32.5714 80.3855 32.4972 80.9674 32.4006C80.9752 32.2243 80.991 32.0423 80.991 31.8603C80.9921 28.4938 80.9842 25.1272 81.0011 21.7607C81.0033 21.308 80.8764 21.1339 80.4147 21.1159C79.9553 21.0979 79.5003 20.9811 79.0364 20.9058C79.0364 20.2779 79.0364 19.7073 79.0364 19.104C79.1757 19.0906 79.2824 19.0737 79.3902 19.0726C81.6897 19.0445 83.9902 18.9715 86.2885 19.0119C87.286 19.0299 88.3071 19.1804 89.2686 19.4467C91.5793 20.0869 92.9811 21.6573 93.5282 23.9848C93.9011 25.5743 93.9202 27.1773 93.5832 28.7712C92.9239 31.8839 90.6267 34.0497 87.277 34.4462C85.3966 34.6686 83.4746 34.5405 81.5706 34.5641C80.7337 34.5731 79.8969 34.5653 79.0049 34.5653ZM83.9936 21.5012C83.9644 21.627 83.934 21.6978 83.934 21.7685C83.9307 25.0609 83.9329 28.3534 83.9239 31.6458C83.9228 31.967 84.061 32.0895 84.3553 32.0805C85.2123 32.0535 86.0863 32.1153 86.9243 31.9727C88.6283 31.6817 89.8112 30.6797 90.3391 29.0139C90.8457 27.4176 90.7997 25.8012 90.2976 24.2095C89.9875 23.2255 89.3832 22.4549 88.4419 21.9898C87.0164 21.2855 85.5055 21.4214 83.9936 21.5012Z" fill="#0D0D0B"/>
<path d="M169.305 39.866C169.398 38.9819 169.487 38.1529 169.573 37.334C170.487 37.4891 171.36 37.6845 172.244 37.7721C172.85 37.8317 173.481 37.8047 174.084 37.707C175.334 37.5048 176.026 36.7376 176.118 35.457C176.175 34.6583 176.128 33.8529 176.065 32.9408C176.009 33.0486 175.967 33.1666 175.895 33.262C174.91 34.564 173.579 34.956 172.018 34.7089C170.553 34.4763 169.552 33.6384 169.077 32.2522C168.397 30.2718 168.415 28.2678 169.216 26.3256C170.003 24.4194 171.51 23.3612 173.52 23.0534C175.237 22.7906 176.951 23.0051 178.661 23.2298C179.073 23.2837 178.991 23.56 178.991 23.8072C178.995 26.557 179 29.308 178.99 32.0579C178.986 33.3104 179.047 34.5741 178.901 35.812C178.622 38.1889 177.324 39.5436 174.977 40.0311C173.098 40.4198 171.227 40.2647 169.305 39.866ZM176.218 25.3787C175.549 25.327 175.015 25.2472 174.48 25.2506C173.214 25.2574 172.339 25.8853 171.952 27.0827C171.534 28.3768 171.507 29.7 171.896 31.002C172.337 32.4724 174.008 32.8768 175.028 31.7265C175.455 31.2446 175.842 30.5863 175.925 29.9651C176.123 28.4756 176.13 26.9603 176.218 25.3787Z" fill="#0D0D0B"/>
<path d="M144.098 23.7052C146.024 23.0245 147.874 22.7268 149.787 23.0043C151.867 23.3053 152.92 24.5162 152.939 26.6269C152.954 28.3119 152.942 29.9969 152.942 31.6807C152.942 31.884 152.942 32.0862 152.942 32.3401C153.61 32.4299 154.236 32.5153 154.902 32.6052C154.902 33.1713 154.902 33.7397 154.902 34.4193C153.363 34.489 151.845 34.5586 150.253 34.6305C150.281 33.9835 150.304 33.4555 150.335 32.7726C149.682 33.797 148.881 34.4418 147.826 34.6181C147.141 34.7316 146.402 34.7619 145.726 34.6305C144.586 34.4092 143.845 33.6386 143.581 32.4996C143.294 31.2662 143.456 30.1092 144.414 29.1768C145.344 28.2715 146.527 27.9266 147.762 27.7401C148.482 27.6323 149.212 27.593 149.938 27.5222C150.317 26.163 149.668 25.1374 148.279 25.1655C147.231 25.1868 146.189 25.4812 145.145 25.6643C144.965 25.6957 144.795 25.7743 144.539 25.8575C144.386 25.1206 144.244 24.4219 144.098 23.7052ZM149.97 29.3319C148.987 29.5397 148.026 29.6587 147.127 29.9564C146.346 30.2148 146.079 30.9685 146.334 31.6874C146.565 32.3401 147.256 32.6748 148.031 32.5086C149.3 32.2379 150.137 30.9696 149.97 29.3319Z" fill="#0D0D0B"/>
<path d="M165.559 32.3469C166.235 32.4345 166.844 32.5142 167.496 32.5985C167.496 33.1568 167.496 33.7252 167.496 34.4182C165.987 34.4879 164.473 34.5575 162.917 34.6294C162.917 34.0139 162.917 33.5185 162.917 32.9018C162.741 33.104 162.635 33.2174 162.537 33.3376C161.507 34.5912 159.573 35.1237 158.05 34.5721C155.793 33.7555 155.319 30.5754 157.227 28.9871C158.407 28.0053 159.85 27.7694 161.315 27.6234C161.74 27.5807 162.168 27.5661 162.582 27.5402C162.891 26.0912 162.25 25.1386 160.842 25.1633C159.831 25.1813 158.824 25.4666 157.817 25.6463C157.603 25.6845 157.398 25.7789 157.138 25.8643C157.004 25.2094 156.862 24.6118 156.771 24.0052C156.753 23.8827 156.894 23.6457 157.011 23.6064C158.937 22.9616 160.903 22.6527 162.917 23.1155C164.535 23.4873 165.449 24.5489 165.51 26.2102C165.576 28.0042 165.547 29.8026 165.558 31.5987C165.56 31.8223 165.559 32.0447 165.559 32.3469ZM162.587 29.3476C161.642 29.5307 160.715 29.6341 159.837 29.9026C158.987 30.162 158.67 30.9203 158.936 31.6841C159.179 32.3772 159.909 32.7007 160.74 32.4839C161.944 32.1694 162.779 30.8562 162.587 29.3476Z" fill="#0D0D0B"/>
<path d="M111.369 23.0668C111.332 23.7487 111.302 24.2834 111.273 24.8192C111.321 24.8607 111.369 24.9034 111.419 24.945C111.472 24.8315 111.505 24.7046 111.58 24.608C112.73 23.1061 114.8 22.4962 116.572 23.1511C117.866 23.6285 118.415 24.6732 118.445 25.9537C118.506 28.5171 118.478 31.0816 118.486 33.6461C118.487 33.9236 118.486 34.2011 118.486 34.5145C117.521 34.5145 116.613 34.5145 115.64 34.5145C115.64 34.2932 115.64 34.0943 115.64 33.8944C115.64 31.7601 115.643 29.6269 115.638 27.4927C115.638 27.213 115.634 26.9288 115.59 26.6535C115.407 25.5123 114.587 25.0483 113.494 25.4628C112.748 25.7459 112.22 26.2986 111.972 27.022C111.732 27.7184 111.554 28.4666 111.528 29.1978C111.465 30.9536 111.508 32.7116 111.508 34.5088C110.556 34.5088 109.649 34.5088 108.676 34.5088C108.665 34.2898 108.645 34.0741 108.645 33.8596C108.643 31.2018 108.634 28.543 108.653 25.8852C108.657 25.4527 108.526 25.2809 108.095 25.2618C107.632 25.2416 107.173 25.1596 106.68 25.1011C106.68 24.5215 106.68 23.9688 106.68 23.2758C108.203 23.2072 109.737 23.1398 111.369 23.0668Z" fill="#0D0D0B"/>
<path d="M98.4218 29.4362C98.2264 31.0527 99.1363 32.3557 100.679 32.44C101.799 32.5017 102.934 32.2737 104.062 32.1591C104.299 32.1355 104.529 32.0412 104.864 31.9536C104.952 32.6332 105.046 33.2701 105.101 33.9104C105.109 33.9969 104.938 34.1519 104.824 34.1867C103.068 34.7124 101.282 34.9887 99.4587 34.6304C97.2435 34.1946 96.0258 32.9533 95.6181 30.7224C95.2845 28.8937 95.3732 27.1009 96.3213 25.4429C97.6872 23.0536 100.973 22.155 103.386 23.4928C104.109 23.8938 104.657 24.4622 105.017 25.2148C105.659 26.5583 105.599 27.9636 105.447 29.4362C103.077 29.4362 100.746 29.4362 98.4218 29.4362ZM102.659 27.4704C102.726 25.936 101.918 25.0171 100.599 25.0598C99.3722 25.0991 98.3477 26.2651 98.496 27.4704C99.8709 27.4704 101.247 27.4704 102.659 27.4704Z" fill="#0D0D0B"/>
</g>
<defs>
<clipPath id="clip0_165_651">
<rect width="70" height="50" fill="white" transform="translate(0.591797)"/>
</clipPath>
</defs>
</svg>
