<svg width="149" height="50" viewBox="0 0 149 50" fill="none" xmlns="http://www.w3.org/2000/svg">
<g opacity="0.75">
<g clip-path="url(#clip0_165_651)">
<path d="M26.2861 28.4852C25.9245 28.4852 25.621 28.4852 25.2655 28.4852C25.2655 28.8343 25.2888 29.1709 25.2539 29.5029C25.2402 29.636 25.1001 29.7565 25.0174 29.883C24.9169 29.8171 24.785 29.7723 24.72 29.6821C23.117 27.4417 21.5208 25.1961 19.9246 22.9511C19.8747 22.8813 19.8337 22.8056 19.7715 22.7048C20.088 22.5236 20.3819 22.3359 20.6964 22.1896C20.7743 22.1534 20.952 22.2193 21.0286 22.2924C22.054 23.2752 23.0821 24.2561 24.0795 25.2653C24.411 25.6006 24.7029 25.8977 25.2655 25.5979C25.2655 26.0413 25.273 26.4009 25.2621 26.7599C25.2566 26.9437 25.3195 27.0313 25.4945 27.1341C25.783 27.3034 26.0209 27.5524 26.2854 27.7718C26.2854 27.696 26.2854 27.5715 26.2854 27.4477C26.2854 23.1777 26.2841 18.9078 26.2868 14.6379C26.2875 14.0654 26.2014 14.159 26.7927 14.0964C28.3649 13.9304 29.9406 13.7572 31.5197 13.6893C33.5883 13.6004 35.6623 13.5668 37.7329 13.5872C40.3859 13.6129 43.0362 13.7466 45.664 14.1425C45.7077 14.1491 45.7501 14.1603 45.8178 14.1741C45.8178 18.7629 45.8178 23.3477 45.8178 27.9325C46.0331 27.5359 46.2997 27.2211 46.7434 27.0616C46.8083 27.0386 46.8541 26.8877 46.8575 26.7942C46.8705 26.4246 46.863 26.0544 46.863 25.6915C46.9402 25.675 46.9806 25.6526 47.0045 25.6638C47.4885 25.8865 47.7435 25.5637 48.0299 25.2817C49.0423 24.2857 50.067 23.3022 51.076 22.3036C51.2421 22.1389 51.3638 22.1066 51.5641 22.241C51.8129 22.4083 52.0843 22.5454 52.3741 22.7114C51.953 23.3036 51.5559 23.8628 51.158 24.4214C49.9152 26.1684 48.6745 27.9167 47.4249 29.659C47.3545 29.7565 47.2137 29.8073 47.1057 29.8797C47.025 29.7513 46.889 29.6281 46.8746 29.493C46.8404 29.1689 46.8637 28.8396 46.8637 28.4904C46.5055 28.4904 46.1814 28.4904 45.8328 28.4904C45.8328 29.2664 45.7952 30.0246 45.8403 30.7782C45.9477 32.5548 45.1472 33.9125 43.8053 35.0356C42.5406 36.0942 41.0716 36.8195 39.5144 37.3695C38.4801 37.7345 37.4103 38.0079 36.3534 38.3129C36.2174 38.3524 36.0554 38.3702 35.9193 38.3392C33.4516 37.7839 31.0891 36.9783 29.0021 35.5501C28.0532 34.9006 27.2473 34.1193 26.7325 33.0924C26.414 32.4567 26.2854 31.7835 26.2861 31.0826C26.2868 30.2282 26.2861 29.3731 26.2861 28.4852ZM43.1832 30.2091C43.2105 30.0846 43.2399 30.0141 43.2399 29.943C43.242 29.1775 43.3363 28.3976 43.2208 27.6486C42.8168 25.0341 41.4236 23.0434 38.9894 21.77C38.1007 21.3056 37.1225 21.2292 36.1401 21.2028C35.4128 21.1831 34.6848 21.1989 33.9144 21.1989C33.9649 21.0494 34.0005 20.9367 34.0408 20.826C34.4455 19.7075 34.8632 18.5929 35.2521 17.4698C35.4969 16.763 35.1906 16.0509 34.5747 15.792C34.0032 15.5516 33.3429 15.8223 32.9594 16.4349C32.85 16.6095 32.8698 16.7169 33.0229 16.8519C33.2745 17.0739 33.4939 17.3301 33.7476 17.5502C33.928 17.7063 33.9588 17.8466 33.861 18.0627C33.442 18.9875 33.053 19.9256 32.6278 20.8478C31.9073 22.4116 32.217 23.8022 33.4379 24.9814C34.1755 25.6934 35.0143 26.3087 35.8195 26.9536C36.4204 27.4351 37.0397 27.8963 37.5853 28.3152C37.8006 28.2197 37.9776 28.0675 38.0932 28.1024C38.6195 28.2632 39.1432 28.4476 39.6401 28.6802C40.064 28.8784 40.4495 29.1525 40.8542 29.3942C41.0019 29.2216 41.1215 29.0807 41.2562 28.9232C41.9028 29.3547 42.5249 29.7697 43.1832 30.2091ZM29.9078 26.6229C29.7779 26.7955 29.6597 26.953 29.5407 27.1104C29.3808 27.3232 29.43 27.4898 29.6631 27.6334C29.97 27.2467 30.2694 26.87 30.6017 26.4517C30.8443 26.8331 31.0467 27.1519 31.2497 27.4714C31.2928 27.4687 31.3352 27.4668 31.3782 27.4641C31.4186 27.2843 31.4589 27.1045 31.5013 26.9154C31.5238 26.9226 31.5888 26.9358 31.6469 26.9628C32.9929 27.5774 34.3396 28.1901 35.6814 28.8126C35.8079 28.8712 35.9282 28.9726 36.0123 29.082C36.1777 29.2967 36.4088 29.2671 36.5462 29.1452C36.6487 29.0543 36.6364 28.8264 36.6426 28.6584C36.646 28.5701 36.5448 28.4759 36.553 28.3897C36.5811 28.0873 36.3801 27.974 36.1292 27.8436C36.1155 28.0735 36.1039 28.2724 36.0909 28.497C35.974 28.4555 35.8988 28.4358 35.8291 28.4041C34.2767 27.6973 32.7242 26.9925 31.1766 26.2771C31.0446 26.2158 30.964 26.0544 30.8334 25.9859C30.7179 25.9253 30.4759 25.8713 30.4458 25.9148C30.2906 26.1381 30.065 26.1519 29.8422 26.1506C29.4307 26.148 29.1798 26.3535 28.9679 26.6677C28.8168 26.891 28.8578 27.0432 29.0472 27.2006C29.7055 26.613 29.7055 26.613 29.9078 26.6229ZM36.1552 36.4275C36.9481 36.1067 37.5511 35.3749 38.5259 35.5765C38.463 34.952 37.9735 35.2418 37.655 35.0969C37.655 35.0001 37.655 34.8828 37.655 34.7649C37.655 33.1629 37.6502 31.5608 37.6611 29.9588C37.6625 29.771 37.765 29.5859 37.7862 29.3962C37.7992 29.2776 37.7862 29.1215 37.7145 29.0379C37.5962 28.8995 37.4212 28.8053 37.2735 28.6953C37.1026 29.0168 36.9509 29.3145 37.2072 29.6399C37.2462 29.6893 37.2161 29.7895 37.2161 29.8665C37.2161 31.5127 37.2168 33.1582 37.2154 34.8044C37.2154 34.9105 37.2045 35.0165 37.1997 35.1022C36.6802 35.1641 36.1914 35.2333 35.7006 35.2767C35.4265 35.3011 35.3342 35.4329 35.3383 35.7458C35.8161 35.6865 36.2646 35.6311 36.7267 35.5745C36.5264 35.8696 35.9002 35.8485 36.1552 36.4275ZM30.1238 17.9171C29.983 18.1107 29.9064 18.2287 29.8169 18.3367C29.6686 18.5159 29.4799 18.6713 29.3657 18.8676C29.093 19.338 29.497 19.9664 30.0719 19.9512C30.0363 19.8972 30.0158 19.8478 29.9796 19.8142C29.4895 19.3564 29.497 19.1977 29.9693 18.7076C30.1512 18.5192 30.2715 18.2761 30.4396 18.0732C30.5025 17.9968 30.6194 17.9217 30.7151 17.9171C31.113 17.8999 31.5115 17.9098 31.9101 17.9098C32.3701 17.9098 32.8309 17.9098 33.2909 17.9098C33.3039 17.8822 33.3176 17.8545 33.3306 17.8275C33.0865 17.591 32.8302 17.3657 32.6032 17.1147C32.4692 16.9665 32.338 16.9435 32.1548 16.9889C31.6482 17.1134 31.1403 17.232 30.6297 17.342C30.5278 17.3637 30.4068 17.3604 30.3091 17.3282C30.0035 17.228 29.7034 17.1108 29.4033 16.9948C29.2741 16.9448 29.1511 16.8815 29.0246 16.8242C29.0923 16.7169 29.1729 16.6148 29.2235 16.5008C29.2618 16.4145 29.2611 16.3131 29.2782 16.2182C29.1764 16.2221 29.0451 16.1886 28.9788 16.2373C28.7566 16.4 28.5734 16.6082 28.637 16.9053C28.6992 17.1944 28.9433 17.2959 29.2112 17.3506C29.3992 17.3888 29.5893 17.4197 29.7779 17.454C29.7766 17.4784 29.7752 17.5034 29.7738 17.5278C29.3438 17.6325 28.9145 17.7372 28.4846 17.842C28.4887 17.867 28.4928 17.892 28.4976 17.9171C29.0048 17.9171 29.5113 17.9171 30.1238 17.9171Z" fill="#0D0D0B"/>
<path d="M67.3392 47.6887C66.1251 47.7777 65.0026 47.8765 63.8788 47.9404C58.3834 48.2519 52.8825 48.0859 47.3837 48.1255C46.452 48.1321 45.5195 48.1261 44.5625 48.1261C44.5625 45.9688 44.5625 43.8364 44.5625 41.6613C44.7136 41.6613 44.8578 41.6613 45.0014 41.6613C48.4754 41.6613 51.9487 41.6685 55.4228 41.6593C58.6671 41.6508 61.9114 41.6191 65.1469 41.3425C65.3882 41.322 65.5242 41.3938 65.6445 41.5836C66.389 42.7548 66.7718 44.0479 67.0131 45.3838C67.1464 46.1249 67.2257 46.8752 67.3392 47.6887ZM60.1402 46.0788C59.7848 46.0801 59.7506 46.2507 59.8518 46.5023C60.2605 46.5023 60.6536 46.5023 61.0439 46.5023C61.1485 46.2125 61.0665 46.061 60.75 46.0854C60.75 45.26 60.75 44.4629 60.75 43.6606C60.8676 43.6237 60.9701 43.5914 61.0884 43.5545C61.0768 43.4346 61.0665 43.3319 61.0562 43.2251C60.6324 43.2251 60.2394 43.2251 59.8552 43.2251C59.7068 43.542 59.8962 43.6256 60.1464 43.65C60.1464 43.9833 60.1464 44.2962 60.1464 44.6203C59.6282 44.6203 59.1333 44.6203 58.6179 44.6203C58.6179 44.2903 58.6179 43.9781 58.6179 43.6619C58.7395 43.6243 58.8421 43.5934 58.9556 43.5578C58.9446 43.4353 58.9357 43.3312 58.9269 43.2291C58.4948 43.2291 58.0908 43.2291 57.6841 43.2291C57.6841 43.3589 57.6841 43.4649 57.6841 43.5789C57.7969 43.6026 57.8933 43.623 57.9876 43.6434C57.9876 44.4642 57.9876 45.2699 57.9876 46.0656C57.8632 46.0985 57.7695 46.1229 57.6629 46.1512C57.669 46.2757 57.6745 46.3818 57.6813 46.5043C58.1106 46.5043 58.5153 46.5043 58.9303 46.5043C58.9303 46.3693 58.9303 46.254 58.9303 46.1269C58.8182 46.1078 58.7218 46.0913 58.6172 46.0735C58.6172 45.7428 58.6172 45.4312 58.6172 45.1124C59.1442 45.1124 59.646 45.1124 60.1396 45.1124C60.1402 45.4405 60.1402 45.7362 60.1402 46.0788ZM48.9737 45.1473C49.2636 45.0768 49.4591 45.1374 49.5931 45.3838C49.7305 45.6361 49.8877 45.8785 50.0415 46.1216C50.2917 46.5162 50.4824 46.5867 50.9992 46.478C50.9992 46.366 50.9992 46.2514 50.9992 46.1526C50.3676 45.9707 50.386 45.2955 49.9055 44.9807C50.0046 44.9339 50.0531 44.9122 50.0996 44.8878C50.4838 44.6902 50.6554 44.368 50.5932 43.9629C50.533 43.571 50.2931 43.2805 49.8638 43.2475C49.2697 43.2021 48.6688 43.2363 48.0775 43.2363C47.9483 43.5249 48.0851 43.6336 48.3564 43.6415C48.3564 44.4669 48.3564 45.2731 48.3564 46.0794C48.3271 46.0636 48.2977 46.0478 48.2683 46.032C48.1903 46.1229 48.083 46.2053 48.0475 46.31C48.0311 46.3581 48.15 46.5096 48.2143 46.5135C48.5745 46.534 48.9375 46.5234 49.3155 46.5234C49.3155 46.3719 49.3155 46.2566 49.3155 46.1308C49.1904 46.1117 49.0831 46.0946 48.973 46.0775C48.9737 45.7534 48.9737 45.4523 48.9737 45.1473ZM53.8395 46.507C53.8395 46.175 53.8395 45.8845 53.8395 45.6124C53.2831 45.3957 53.4014 45.8423 53.3241 46.0729C52.9919 46.0729 52.6822 46.0729 52.3678 46.0729C52.3678 45.7198 52.3678 45.397 52.3678 45.0353C52.6925 45.0353 52.9919 45.0353 53.2899 45.0353C53.2899 44.8779 53.2899 44.7606 53.2899 44.596C52.9728 44.596 52.6727 44.596 52.3753 44.596C52.3753 44.2468 52.3753 43.9465 52.3753 43.6408C52.7082 43.6408 53.0083 43.6408 53.3125 43.6408C53.3323 43.8061 53.3487 43.9445 53.3658 44.0901C53.5183 44.0901 53.6495 44.0901 53.791 44.0901C53.791 43.7949 53.791 43.5183 53.791 43.2251C52.981 43.2251 52.203 43.2251 51.4087 43.2251C51.4087 43.3569 51.4087 43.4689 51.4087 43.5762C51.5406 43.6065 51.6479 43.6309 51.7464 43.654C51.7464 44.4708 51.7464 45.2672 51.7464 46.0597C51.6261 46.0926 51.5324 46.1183 51.423 46.1479C51.4312 46.2757 51.4388 46.389 51.4456 46.5063C52.2543 46.507 53.024 46.507 53.8395 46.507ZM57.129 44.1698C57.3013 43.3622 57.2281 43.2587 56.4215 43.1672C56.2643 43.1494 56.1029 43.1415 55.945 43.1514C54.9702 43.2106 54.2935 43.8523 54.2395 44.76C54.1841 45.698 54.6968 46.4062 55.5964 46.5234C56.0264 46.5794 56.4755 46.501 56.915 46.4688C56.9868 46.4635 57.1064 46.3825 57.1105 46.3298C57.1304 46.0623 57.1201 45.7922 57.1201 45.5268C56.6676 45.4714 56.6737 45.4721 56.6184 45.8937C56.6081 45.9694 56.5302 46.0887 56.4687 46.0979C55.9956 46.1677 55.5191 46.1789 55.1808 45.7764C54.7836 45.3041 54.7809 44.7633 54.9887 44.2205C55.1603 43.7725 55.5513 43.6138 56.0161 43.5894C56.5411 43.5617 56.5896 43.6013 56.671 44.1032C56.6744 44.123 56.6929 44.1408 56.7113 44.1704C56.848 44.1698 56.9909 44.1698 57.129 44.1698ZM62.6976 43.6375C62.6976 44.4596 62.6976 45.2573 62.6976 46.0755C62.4009 46.0847 62.2478 46.1921 62.4029 46.5023C62.809 46.5023 63.2239 46.5023 63.6484 46.5023C63.6484 46.366 63.6484 46.2514 63.6484 46.1295C63.5186 46.1091 63.4099 46.0926 63.3128 46.0775C63.3128 45.254 63.3128 44.4491 63.3128 43.6342C63.5773 43.6342 63.7995 43.6342 64.0319 43.6342C64.0572 43.7996 64.0791 43.9451 64.1017 44.0894C64.2671 44.0894 64.399 44.0894 64.548 44.0894C64.548 43.7949 64.548 43.5176 64.548 43.2324C63.5021 43.2324 62.4856 43.2324 61.4527 43.2324C61.4527 43.5361 61.4527 43.8127 61.4527 44.0835C61.6257 44.0835 61.7679 44.0835 61.9244 44.0835C61.9436 43.9241 61.96 43.7857 61.9771 43.6368C62.2218 43.6375 62.4542 43.6375 62.6976 43.6375Z" fill="#0D0D0B"/>
<path d="M4.97532 41.1744C6.09847 41.264 7.19563 41.3793 8.29622 41.4333C10.1146 41.5223 11.9343 41.6145 13.7547 41.6283C18.1837 41.6626 22.6134 41.6533 27.0431 41.6612C27.1559 41.6612 27.2694 41.6612 27.4116 41.6612C27.4116 43.816 27.4116 45.949 27.4116 48.1353C27.3029 48.1353 27.1839 48.1353 27.0643 48.1353C22.5662 48.132 18.0675 48.1458 13.5695 48.1175C11.7723 48.1063 9.97581 48.0055 8.17933 47.9344C8.04808 47.9291 7.87923 47.8659 7.79856 47.773C6.1764 45.889 5.24466 43.7204 4.9596 41.291C4.95618 41.2607 4.9678 41.2285 4.97532 41.1744ZM11.5084 46.5181C11.9282 46.5181 12.3322 46.5181 12.7478 46.5181C12.7478 46.3811 12.7478 46.2658 12.7478 46.1413C12.6213 46.1222 12.5133 46.1057 12.4074 46.0893C12.4074 45.7665 12.4074 45.4654 12.4074 45.1743C12.7211 45.088 12.9159 45.1763 13.0506 45.4345C13.173 45.669 13.322 45.891 13.4628 46.1163C13.7219 46.5293 13.9092 46.6018 14.4431 46.495C14.4431 46.3837 14.4431 46.2691 14.4431 46.1716C13.7985 45.9898 13.8142 45.3113 13.3562 44.9991C13.942 44.6934 14.1341 44.3377 14.0035 43.8641C13.886 43.4379 13.5373 43.2257 12.9412 43.2218C12.5201 43.2192 12.0984 43.2126 11.6786 43.2304C11.6055 43.2336 11.4859 43.3417 11.4804 43.4089C11.4742 43.478 11.5734 43.5637 11.6417 43.6276C11.6745 43.6585 11.7422 43.6546 11.7935 43.6658C11.7935 44.4839 11.7935 45.281 11.7935 46.0926C11.477 46.0926 11.3984 46.2381 11.5084 46.5181ZM18.1735 43.6585C18.1735 44.4747 18.1735 45.2724 18.1735 46.0754C18.0463 46.1044 17.9397 46.1294 17.8153 46.1578C17.8214 46.2843 17.8276 46.3989 17.8324 46.4852C18.5467 46.4852 19.2344 46.5504 19.903 46.468C20.6686 46.3738 21.158 45.7098 21.1984 44.9049C21.2373 44.1322 20.8579 43.4701 20.1361 43.339C19.3896 43.2033 18.6123 43.2271 17.8337 43.1803C17.8337 43.3786 17.8337 43.484 17.8337 43.6006C17.9465 43.6197 18.045 43.6368 18.1735 43.6585ZM21.575 46.5003C22.3933 46.5003 23.176 46.5003 23.9806 46.5003C23.9806 46.1802 23.9806 45.8996 23.9806 45.6044C23.8282 45.6044 23.6894 45.6044 23.5472 45.6044C23.5158 45.7843 23.4884 45.9417 23.4624 46.0886C23.1186 46.0886 22.8069 46.0886 22.5109 46.0886C22.5109 45.7303 22.5109 45.3996 22.5109 45.0386C22.8424 45.0386 23.1336 45.0386 23.4344 45.0386C23.4344 44.8923 23.4344 44.7777 23.4344 44.6176C23.1158 44.6176 22.8171 44.6176 22.5184 44.6176C22.5184 44.2698 22.5184 43.9681 22.5184 43.6717C23.2888 43.5472 23.3804 43.5867 23.5335 44.0946C23.6641 44.0946 23.7947 44.0946 23.9464 44.0946C23.9464 43.8456 23.9574 43.617 23.9389 43.3911C23.9341 43.3325 23.8377 43.233 23.7824 43.2323C23.0359 43.2218 22.2887 43.2251 21.5265 43.2251C21.5265 43.3746 21.5265 43.4807 21.5265 43.5979C21.6557 43.6223 21.7733 43.644 21.8922 43.6658C21.8922 44.482 21.8922 45.2784 21.8922 46.0774C21.7753 46.1057 21.6796 46.1288 21.575 46.1545C21.575 46.2724 21.575 46.3798 21.575 46.5003ZM16.7413 43.6473C16.7653 43.8219 16.7837 43.9589 16.8029 44.0972C16.9553 44.0972 17.0866 44.0972 17.2527 44.0972C17.2527 43.9069 17.2438 43.733 17.2547 43.5604C17.2704 43.3173 17.1952 43.2047 16.9095 43.2145C16.3182 43.2356 15.7248 43.233 15.1328 43.2159C14.8116 43.2066 14.7603 43.3364 14.8505 43.6006C14.9606 43.6216 15.0686 43.6427 15.1814 43.6638C15.1814 44.4747 15.1814 45.2724 15.1814 46.0761C15.0652 46.1038 14.9695 46.1262 14.8779 46.1479C14.8779 46.2783 14.8779 46.3936 14.8779 46.5161C15.6804 46.5161 16.4597 46.5161 17.267 46.5161C17.267 46.194 17.267 45.8949 17.267 45.5926C17.1125 45.5926 16.9895 45.5926 16.8405 45.5926C16.8145 45.7606 16.7899 45.9187 16.7625 46.0932C16.4399 46.0932 16.1275 46.0932 15.7993 46.0932C15.7993 45.7395 15.7993 45.4062 15.7993 45.0399C16.1268 45.0399 16.4296 45.0399 16.7454 45.0399C16.7454 44.893 16.7454 44.7784 16.7454 44.6275C16.4262 44.6275 16.1241 44.6275 15.8082 44.6275C15.8082 44.281 15.8082 43.9714 15.8082 43.6467C16.1329 43.6473 16.4241 43.6473 16.7413 43.6473ZM7.58938 43.5617C7.62151 43.5538 7.65296 43.5459 7.68509 43.538C7.79378 43.6757 7.9387 43.7995 8.00501 43.9543C8.33518 44.7237 8.65374 45.4984 8.9552 46.279C9.03997 46.4977 9.16438 46.5464 9.38655 46.5471C9.60257 46.5484 9.70989 46.4819 9.78645 46.2862C10.09 45.5063 10.4003 44.729 10.7305 43.9596C10.8002 43.7975 10.9643 43.673 11.0853 43.5314C11.1099 43.5479 11.1345 43.5643 11.1591 43.5815C11.1591 43.4741 11.1591 43.3661 11.1591 43.2409C10.7421 43.2409 10.3381 43.2409 9.91292 43.2409C9.91292 43.3726 9.91292 43.4846 9.91292 43.5946C10.038 43.6249 10.1419 43.6493 10.2663 43.6796C9.98675 44.4385 9.71604 45.1736 9.41868 45.9812C9.11517 45.1703 8.83831 44.4319 8.5553 43.6743C8.67356 43.6427 8.76722 43.6177 8.85061 43.596C8.9511 43.2962 8.83694 43.1961 8.54231 43.2192C8.32767 43.2363 8.10892 43.2356 7.89427 43.2192C7.61399 43.1968 7.51145 43.2989 7.58938 43.5617Z" fill="#0D0D0B"/>
<path d="M52.4343 39.1231C51.8758 39.2028 51.3173 39.2864 50.7581 39.3615C48.4353 39.6751 46.1124 39.99 43.7875 40.2923C43.54 40.3246 43.5031 40.43 43.5045 40.6355C43.5113 41.953 43.5079 43.2705 43.5079 44.5879C43.5079 44.7059 43.5079 44.8244 43.5079 44.9792C43.3315 44.9792 43.188 44.9799 43.0444 44.9792C40.1173 44.9621 37.1901 44.9417 34.2623 44.9305C33.4201 44.9272 32.5772 44.9463 31.7344 44.9674C31.5026 44.9733 31.3748 44.9199 31.2757 44.6914C30.6201 43.1717 29.9365 41.6638 29.2803 40.1441C29.1675 39.8826 29.0232 39.7904 28.7327 39.7752C25.4692 39.6046 22.2071 39.4202 18.9443 39.239C18.9115 39.237 18.8787 39.2285 18.8418 39.1771C19.5616 39.0987 20.2801 38.9926 21.002 38.9465C23.2168 38.8049 25.4316 38.6527 27.6492 38.5697C29.3438 38.5065 31.0426 38.5401 32.7393 38.5394C32.9279 38.5394 33.1214 38.5822 33.3046 38.633C34.114 38.8569 34.9165 39.104 35.73 39.3128C35.9487 39.3688 36.2078 39.3615 36.4286 39.3075C37.0903 39.1468 37.7514 38.9735 38.3953 38.7568C38.8991 38.5875 39.4043 38.5236 39.9327 38.5203C43.8982 38.4913 47.8583 38.5862 51.8054 38.9946C52.0091 39.0157 52.2121 39.0401 52.4151 39.0631C52.422 39.0822 52.4281 39.1026 52.4343 39.1231ZM38.6599 43.2757C38.6599 43.1532 38.6599 43.0346 38.6599 42.9161C38.6599 42.3232 38.6544 41.7303 38.6653 41.1381C38.6674 41.0314 38.7111 40.8509 38.7754 40.8325C39.0256 40.76 38.9415 40.6223 38.9107 40.4814C38.5696 40.4814 38.2477 40.4814 37.9264 40.4814C37.9038 40.5104 37.8819 40.5393 37.8594 40.5683C37.9373 40.65 38.02 40.7277 38.0904 40.8154C38.1451 40.8826 38.2176 40.959 38.2237 41.0354C38.2449 41.2864 38.2408 41.5393 38.2429 41.7916C38.2449 42.0083 38.2436 42.2257 38.2436 42.5333C37.6946 41.8423 37.2182 41.2409 36.7403 40.6408C36.5927 40.455 35.9576 40.3661 35.7942 40.5288C35.8004 40.6013 35.8086 40.6928 35.8168 40.7824C35.9426 40.8048 36.041 40.8219 36.1524 40.8417C36.1524 41.4965 36.1559 42.1421 36.147 42.787C36.1463 42.8443 36.082 42.9352 36.0273 42.9516C35.7847 43.0261 35.8701 43.1638 35.9214 43.3172C36.2085 43.3172 36.4812 43.3245 36.7533 43.3113C36.8087 43.3087 36.9023 43.2342 36.9051 43.1888C36.9092 43.1183 36.8682 43.0267 36.8142 42.9767C36.7677 42.9332 36.6761 42.9345 36.6187 42.92C36.6187 42.3759 36.6187 41.8601 36.6187 41.2811C37.1348 41.9253 37.6133 42.5103 38.0747 43.1078C38.2189 43.2935 38.3721 43.366 38.6599 43.2757ZM33.5726 40.843C33.5726 41.4958 33.5767 42.1295 33.5671 42.7632C33.5664 42.8291 33.496 42.9398 33.4406 42.951C33.1733 43.0037 33.2848 43.1565 33.2964 43.2935C33.9991 43.2935 34.6738 43.2935 35.3684 43.2935C35.3684 43.0221 35.3684 42.7758 35.3684 42.53C35.1031 42.4536 34.9541 42.4951 34.948 42.783C34.9466 42.8436 34.8338 42.9451 34.7647 42.9523C34.5446 42.974 34.3211 42.9602 34.0921 42.9602C34.0921 42.6295 34.0921 42.3496 34.0921 42.0334C34.2773 42.0334 34.4469 42.0235 34.6137 42.0353C34.9049 42.0571 34.9732 41.9378 34.8714 41.6559C34.6144 41.6559 34.358 41.6559 34.1023 41.6559C34.1023 41.3615 34.1023 41.1045 34.1023 40.8529C34.7771 40.7317 34.8666 40.7673 34.9972 41.1948C35.1134 41.1948 35.2296 41.1948 35.339 41.1948C35.339 40.9425 35.339 40.7172 35.339 40.4722C34.6396 40.4722 33.9629 40.4722 33.2937 40.4722C33.1385 40.7765 33.3647 40.8088 33.5726 40.843Z" fill="#0D0D0B"/>
<path d="M60.7104 21.3815C60.9053 21.5211 61.1021 21.6588 61.2956 21.8011C62.8405 22.942 64.3882 24.0803 65.9249 25.2324C66.0603 25.3339 66.1765 25.5183 66.2072 25.6804C66.3993 26.7126 65.9071 27.735 64.9891 28.2732C64.0573 28.8186 62.8706 28.7652 62.0018 28.1381C61.9115 28.0729 61.824 28.0057 61.7119 27.9227C61.1363 28.6631 60.5683 29.3891 60.0104 30.1216C59.9564 30.1927 59.9476 30.3073 59.9462 30.4022C59.9339 31.0715 59.9332 31.7401 59.9189 32.4094C59.9161 32.524 59.9024 32.6656 59.8334 32.748C59.0979 33.6261 58.3507 34.4949 57.5276 35.3559C57.5276 35.2571 57.5276 35.1583 57.5276 35.0588C57.5242 32.8316 57.4941 30.6038 57.529 28.3772C57.5475 27.1922 57.1435 26.1896 56.3963 25.2845C56.3197 25.1916 56.2445 25.0981 56.1133 24.936C56.5487 24.992 56.9097 25.0361 57.2706 25.0849C58.5551 25.2588 59.8402 25.4307 61.1233 25.6152C61.2573 25.6343 61.4009 25.7113 61.5034 25.8003C61.7987 26.0572 62.0564 26.3569 62.3654 26.5967C62.645 26.8134 62.9547 27.015 63.2835 27.1474C63.7955 27.3536 64.2699 27.1968 64.5844 26.7897C64.8934 26.3898 64.9146 25.8365 64.6247 25.4327C64.5352 25.3075 64.4224 25.1956 64.3103 25.0875C63.2486 24.0619 62.1829 23.0408 61.1254 22.0125C60.9483 21.84 60.8027 21.6371 60.6428 21.448C60.664 21.4263 60.6872 21.4039 60.7104 21.3815Z" fill="#0D0D0B"/>
<path d="M15.9998 24.9504C15.7844 25.2283 15.6053 25.4536 15.4324 25.6842C14.7611 26.5787 14.58 27.5892 14.5943 28.6742C14.623 30.7696 14.6025 32.8664 14.6025 34.9625C14.6025 35.0804 14.6025 35.1983 14.6025 35.392C14.487 35.2886 14.42 35.2405 14.3687 35.1805C13.6933 34.394 13.0159 33.6101 12.3528 32.8143C12.2633 32.707 12.2127 32.541 12.2079 32.4C12.1887 31.7749 12.2072 31.1491 12.1799 30.5246C12.1717 30.3316 12.1047 30.1129 11.9898 29.9561C11.5448 29.3461 11.0697 28.7559 10.6049 28.1591C10.5447 28.082 10.477 28.0108 10.4032 27.9252C9.65193 28.5589 8.80769 28.7941 7.85271 28.5622C6.50261 28.2348 5.64539 26.9134 5.92634 25.6032C5.94959 25.4945 6.01453 25.368 6.10271 25.3028C7.85203 24.0031 9.6075 22.7107 11.3623 21.4182C11.3862 21.4011 11.4204 21.3965 11.5045 21.4327C11.3219 21.6455 11.1552 21.8721 10.9549 22.0677C9.87341 23.1204 8.78308 24.1651 7.69617 25.2132C7.33591 25.561 7.19851 25.974 7.36189 26.4463C7.50476 26.8594 7.80007 27.14 8.25603 27.2204C8.67781 27.2948 9.05652 27.1374 9.3696 26.8982C9.79617 26.5728 10.1742 26.1888 10.5857 25.8436C10.7074 25.7415 10.8639 25.6394 11.0171 25.6177C12.5927 25.3897 14.1712 25.1776 15.7489 24.9629C15.8166 24.9536 15.8843 24.9556 15.9998 24.9504Z" fill="#0D0D0B"/>
<path d="M28.0645 9.6586C33.3609 8.99789 38.6308 8.97681 43.9525 9.65399C43.8343 10.5887 43.716 11.5268 43.5943 12.4879C42.9682 12.4437 42.3803 12.3989 41.7924 12.3607C38.4619 12.144 35.1294 12.1256 31.7969 12.2975C30.7742 12.3502 29.7543 12.4431 28.7323 12.5037C28.6305 12.5096 28.4384 12.4332 28.4295 12.3752C28.2941 11.4761 28.1827 10.5742 28.0645 9.6586ZM36.0352 10.0611C35.7815 10.1375 35.5272 10.1751 35.3153 10.2877C35.0077 10.4511 35.0207 10.7541 35.3105 10.9497C35.6633 11.1875 36.3981 11.1829 36.7427 10.9418C37.0168 10.7501 37.0318 10.4616 36.7406 10.3002C36.5328 10.1836 36.2799 10.1401 36.0352 10.0611ZM29.8322 10.4616C29.5827 10.5545 29.31 10.6125 29.0892 10.7488C28.761 10.9524 28.8164 11.3074 29.1944 11.4102C29.4357 11.4754 29.7119 11.4747 29.9628 11.4392C30.3675 11.3819 30.6231 11.1368 30.5951 10.9043C30.5678 10.6698 30.2656 10.5117 29.8322 10.4616ZM42.2736 10.4866C42.0706 10.5242 41.9079 10.5189 41.7883 10.5854C41.6543 10.6592 41.4937 10.7857 41.4677 10.9128C41.4458 11.0202 41.5688 11.2047 41.6816 11.2784C42.0392 11.5116 42.4473 11.5637 42.8506 11.4075C42.9777 11.3588 43.1295 11.2079 43.1418 11.0907C43.1541 10.9741 43.0352 10.7936 42.9203 10.7277C42.7125 10.6092 42.465 10.5545 42.2736 10.4866ZM33.7827 10.6691C33.0417 10.1441 32.46 10.1678 31.9924 10.7422C32.8633 11.2356 33.0554 11.2277 33.7827 10.6691ZM40.082 10.7053C39.2193 10.1408 38.8338 10.1408 38.2644 10.6908C39.1052 11.2323 39.2891 11.2356 40.082 10.7053Z" fill="#0D0D0B"/>
<path d="M55.752 10.0795C55.3337 11.2415 54.8989 12.3601 54.5298 13.4984C54.1989 14.5187 54.0533 15.574 54.0834 16.6484C54.0868 16.7591 54.0301 16.902 53.9494 16.9804C53.341 17.5693 52.7196 18.1457 52.1023 18.7261C51.6717 19.1312 51.2629 19.5627 50.8042 19.9355C50.2368 20.3973 49.545 20.5442 48.817 20.4507C48.629 20.4263 48.4602 20.2642 48.2852 20.1213C49.152 19.9454 49.4254 19.3044 49.5915 18.6365C49.8943 17.4218 50.1254 16.1913 50.407 14.9719C50.6935 13.7329 51.0742 12.5102 51.9178 11.5156C52.358 10.9965 52.546 10.4853 52.4674 9.84764C52.453 9.72972 52.4653 9.60852 52.4653 9.4188C52.9849 9.63223 53.46 9.82722 53.8899 10.0038C54.1292 9.72314 54.3562 9.45767 54.6344 9.13159C54.8442 9.75937 55.3392 9.88914 55.752 10.0795Z" fill="#0D0D0B"/>
<path d="M23.7634 20.1845C23.6588 20.3472 23.4626 20.4526 23.1666 20.4731C22.0674 20.5488 21.2744 20.0172 20.571 19.3025C20.007 18.7294 19.4636 18.1385 18.9064 17.5595C18.7984 17.4475 18.6856 17.3223 18.5476 17.2584C18.0841 17.0443 18.0492 16.688 18.0437 16.24C18.0232 14.5477 17.503 12.9575 16.8741 11.3963C16.7019 10.9695 16.5159 10.5472 16.332 10.1131C16.7771 9.87992 17.2911 9.76925 17.4894 9.13818C17.7655 9.44779 17.9904 9.69943 18.2557 9.99652C18.6439 9.83513 19.1156 9.63882 19.6509 9.41683C19.6509 9.85621 19.644 10.235 19.655 10.6131C19.6584 10.7257 19.6796 10.868 19.7521 10.9431C20.8287 12.0597 21.3523 13.4318 21.6969 14.8777C21.9901 16.1056 22.2287 17.346 22.5179 18.5752C22.5924 18.8908 22.7141 19.2228 22.9116 19.4764C23.1242 19.7471 23.4517 19.9329 23.7634 20.1845Z" fill="#0D0D0B"/>
<path d="M49.9141 20.8446C50.8909 20.5528 51.5369 19.9757 52.1426 19.3381C52.6956 18.7571 53.2623 18.1879 53.829 17.6194C53.9288 17.52 54.0607 17.4501 54.1852 17.3612C55.0841 19.3895 56.6105 20.7596 58.7099 21.6166C58.6292 22.0185 58.3455 22.3208 57.9641 22.4592C57.3208 22.6937 56.6522 22.8761 55.981 23.0244C55.5523 23.1186 55.0998 23.11 54.6589 23.1502C54.2173 23.1904 53.8358 23.1001 53.4435 22.8584C52.4276 22.2332 51.3742 21.6667 50.3352 21.0765C50.221 21.0119 50.1062 20.95 49.9141 20.8446Z" fill="#0D0D0B"/>
<path d="M17.9659 17.3044C18.3966 17.7122 18.8088 18.085 19.1998 18.4777C19.5778 18.8577 19.9265 19.2648 20.2997 19.6495C20.8124 20.1765 21.3996 20.6021 22.1714 20.83C22.09 20.8946 22.0408 20.9453 21.9813 20.9795C20.7775 21.6686 19.573 22.3569 18.3658 23.0407C18.2715 23.0941 18.1573 23.1468 18.0527 23.1468C16.9098 23.1468 15.7709 23.0816 14.6888 22.6949C14.3449 22.5717 14.025 22.3616 13.7311 22.1448C13.5745 22.0289 13.4966 21.8135 13.377 21.633C15.5036 20.7727 17.0396 19.4078 17.9659 17.3044Z" fill="#0D0D0B"/>
<path d="M59.1609 15.4066C58.476 15.9639 58.558 16.535 59.0215 17.2056C57.4964 16.7748 56.0745 16.4619 54.5098 16.7333C54.5433 16.2228 54.5487 15.7551 54.6089 15.2946C54.8331 13.5911 55.46 12.0042 56.1518 10.4371C56.2263 10.2678 56.3151 10.2428 56.4908 10.2797C57.0124 10.3897 57.5408 10.4727 58.0624 10.584C58.1588 10.6044 58.3064 10.7085 58.3099 10.779C58.3379 11.4081 58.7624 11.7473 59.256 12.0464C59.3708 12.1162 59.4932 12.1887 59.5786 12.2868C59.6593 12.3797 59.7529 12.5174 59.7352 12.6182C59.716 12.7282 59.5745 12.8178 59.4474 12.9607C59.5649 13.3599 59.5581 13.4251 59.3216 13.9594C58.8827 13.9231 58.4562 13.8283 58.0419 13.8645C56.9892 13.9561 56.8873 14.7116 57.2482 15.4758C57.2797 15.543 57.4547 15.5845 57.5579 15.5759C58.0658 15.5344 58.5724 15.4712 59.1609 15.4066ZM57.6721 11.1979C57.2469 11.1538 56.8702 11.1143 56.4662 11.0721C56.5161 11.4641 56.7246 11.5938 57.0069 11.6162C57.2961 11.6393 57.5353 11.5444 57.6721 11.1979Z" fill="#0D0D0B"/>
<path d="M13.1782 17.1952C13.293 16.8909 13.3669 16.6504 13.4749 16.4251C13.5795 16.2071 13.5658 16.0404 13.371 15.8744C13.2383 15.7611 13.1385 15.6122 12.9622 15.408C13.5111 15.4686 13.9794 15.4983 14.4394 15.5773C14.7641 15.6333 14.9084 15.5372 14.9959 15.2361C15.231 14.4252 14.9248 13.9285 14.0559 13.8607C13.6601 13.8297 13.2541 13.9226 12.8049 13.9634C12.7421 13.6598 12.4208 13.3251 12.7489 12.8976C12.6375 12.866 12.5042 12.8666 12.4748 12.8133C12.3873 12.6532 12.2266 12.4721 12.5001 12.312C12.6648 12.2158 12.8029 12.0768 12.969 11.9833C13.4455 11.7158 13.7709 11.3608 13.8242 10.8035C13.8324 10.7211 13.9807 10.6072 14.0826 10.5848C14.6035 10.4695 15.1285 10.372 15.6555 10.289C15.7464 10.2745 15.9139 10.3318 15.944 10.399C16.7978 12.3074 17.5757 14.2375 17.5915 16.3619C17.5922 16.4495 17.5867 16.5371 17.5805 16.6247C17.5792 16.6445 17.5621 16.6636 17.5368 16.7143C16.0773 16.4745 14.6616 16.7558 13.1782 17.1952ZM14.5119 11.1934C14.5802 11.505 14.8045 11.6519 15.1312 11.6203C15.4662 11.588 15.6378 11.4082 15.6255 11.0742C15.2645 11.1131 14.9049 11.1513 14.5119 11.1934Z" fill="#0D0D0B"/>
<path d="M61.7317 28.7507C61.7317 28.9543 61.7317 29.1572 61.7317 29.3607C61.7317 29.8106 61.7413 30.2606 61.7296 30.7098C61.7146 31.273 61.9607 31.717 62.47 31.9469C62.9355 32.1571 63.4543 32.2592 63.952 32.4014C64.0566 32.4311 64.1701 32.4311 64.2904 32.4462C63.5671 33.7953 63.6198 35.2294 63.6034 36.6509C63.5979 37.1549 63.6451 37.6588 63.6553 38.1627C63.6574 38.2767 63.6266 38.4019 63.5747 38.504C63.4701 38.7102 63.3381 38.9038 63.2206 39.1047C62.9683 39.5369 62.5664 39.938 63.0148 40.552C62.3203 40.552 61.7392 40.552 61.1158 40.552C61.111 40.2022 61.0433 39.8438 61.2894 39.4644C62.1863 38.0824 62.2232 36.5897 61.7987 35.0568C61.5663 34.2169 61.1452 33.4732 60.5805 32.7967C60.465 32.6584 60.4083 32.4509 60.3884 32.269C60.3597 32.0095 60.4383 31.7341 60.385 31.4819C60.1273 30.2606 61.0255 29.5636 61.7317 28.7507Z" fill="#0D0D0B"/>
<path d="M11.0659 40.5677C10.4063 40.5677 9.81973 40.5677 9.24688 40.5677C9.22773 40.5084 9.20996 40.4827 9.2168 40.4682C9.42598 40.0137 9.28311 39.6211 8.99668 39.2489C8.5749 38.7002 8.44365 38.1066 8.48672 37.409C8.54756 36.4275 8.48262 35.4361 8.42246 34.452C8.38008 33.7623 8.24336 33.0812 7.80859 32.4507C7.95557 32.4316 8.06631 32.4257 8.17363 32.4027C8.53867 32.3236 8.91738 32.2762 9.26396 32.1477C10.1212 31.8302 10.4042 31.3987 10.4042 30.5167C10.4042 29.9311 10.4042 29.3455 10.4042 28.7598C10.4322 28.7519 10.4603 28.744 10.489 28.7355C10.8875 29.2493 11.2881 29.7618 11.6818 30.2789C11.7174 30.3257 11.7187 30.4027 11.7215 30.466C11.7304 30.6629 11.7222 30.8612 11.7379 31.0582C11.8104 31.9679 11.7789 32.848 11.0126 33.5284C9.8792 35.5567 9.64473 37.5869 10.936 39.6534C11.0864 39.8925 11.027 40.2541 11.0659 40.5677Z" fill="#0D0D0B"/>
<path d="M5.27447 18.1674C4.96958 17.7294 4.56011 17.3157 4.92036 16.6925C5.35308 17.2307 5.95806 17.3736 6.56782 17.4329C7.52827 17.5271 8.49693 17.5475 9.46011 17.6187C10.8594 17.7221 11.9744 19.0626 11.7871 20.4058C11.7748 20.4921 11.7187 20.5955 11.6483 20.6476C10.0145 21.857 8.37661 23.0605 6.73872 24.2647C6.73189 24.2699 6.71822 24.2673 6.64781 24.2746C6.75103 24.1645 6.82349 24.0809 6.90347 24.0038C7.90904 23.0335 8.91665 22.0645 9.92222 21.0942C10.3734 20.6581 10.504 20.1772 10.2743 19.6944C10.0295 19.1806 9.59683 18.9605 9.00962 18.9737C8.00816 18.9954 7.00669 18.9961 6.00523 19.008C5.91499 19.0093 5.82339 19.0211 5.73384 19.0369C4.41177 19.2695 3.85396 19.9519 3.94624 21.2714C3.85327 21.2305 3.76988 21.2108 3.70767 21.164C3.10064 20.7121 2.81831 20.1153 2.91812 19.3801C2.98374 18.8953 3.26197 18.533 3.77124 18.4171C4.25318 18.3071 4.74947 18.2524 5.27447 18.1674Z" fill="#0D0D0B"/>
<path d="M65.321 24.2251C64.6908 23.7607 64.0598 23.2963 63.4295 22.8312C62.4985 22.1442 61.5736 21.4485 60.6316 20.7753C60.3903 20.6027 60.3144 20.4071 60.3164 20.1363C60.3246 18.8973 61.3876 17.5699 63.0515 17.5791C64.014 17.5844 64.9806 17.475 65.9383 17.3604C66.5508 17.2873 66.7901 17.1167 67.1831 16.7445C67.4812 17.0884 67.4217 17.3499 66.8379 18.197C67.1872 18.2306 67.5208 18.2484 67.8503 18.2971C68.281 18.3604 68.7137 18.4454 68.9851 18.8235C69.5942 19.6706 68.9803 21.0263 68.1867 21.2568C68.1996 21.0573 68.2338 20.8662 68.2202 20.6785C68.1682 19.9815 67.7642 19.496 67.1141 19.2635C66.6547 19.0988 66.1461 19.0139 65.6539 18.9895C64.7906 18.9467 63.9238 18.9756 63.0577 18.9783C62.48 18.9796 62.0323 19.247 61.8422 19.7207C61.6406 20.2239 61.7588 20.6699 62.1498 21.0487C63.1465 22.0124 64.1459 22.9742 65.144 23.9366C65.224 24.0137 65.2998 24.0934 65.3778 24.1724C65.3586 24.1895 65.3402 24.2073 65.321 24.2251Z" fill="#0D0D0B"/>
<path d="M60.6871 40.6112C59.3021 40.6112 58.019 40.6112 56.7366 40.6112C56.6334 39.6817 57.5384 38.8352 58.4818 38.994C58.7142 39.0329 58.8667 38.9782 59.0321 38.8405C60.0424 37.9986 60.3179 36.4078 59.6364 35.226C59.4716 34.9401 59.2625 34.6773 59.0478 34.3664C59.4033 33.9487 59.7758 33.5113 60.1928 33.0212C60.4075 33.3203 60.6337 33.5785 60.7958 33.8704C61.6591 35.4243 61.8984 37.0343 61.2052 38.7134C61.2011 38.7233 61.197 38.7338 61.1916 38.7437C60.8518 39.3076 60.4464 39.8523 60.6871 40.6112Z" fill="#0D0D0B"/>
<path d="M11.9671 33.0581C12.3492 33.506 12.717 33.9369 13.0622 34.3407C12.8038 34.7708 12.5187 35.1575 12.3259 35.583C11.8474 36.6416 12.1756 38.0158 13.0444 38.795C13.2283 38.9597 13.4053 39.0467 13.6808 38.9894C14.2516 38.8714 14.7267 39.073 15.0268 39.5513C15.2216 39.8622 15.3406 40.2172 15.5176 40.6066C14.1293 40.6066 12.8386 40.6066 11.5603 40.6066C11.533 40.5756 11.5056 40.5578 11.507 40.5433C11.5795 39.8918 11.2698 39.3662 10.9847 38.7996C10.1002 37.0487 10.5862 34.3262 11.9671 33.0581Z" fill="#0D0D0B"/>
<path d="M51.9686 37.9843C51.1715 37.9105 50.4154 37.8413 49.6211 37.7675C49.656 37.672 49.6751 37.591 49.7127 37.5198C50.6239 35.7782 51.5358 34.0365 52.456 32.2987C52.51 32.1966 52.6289 32.0859 52.7397 32.057C54.1116 31.7006 55.4877 31.358 56.8631 31.0135C56.9144 31.001 56.9711 31.0069 57.0654 31.0023C57.0654 31.1591 57.0559 31.2994 57.0675 31.4384C57.0825 31.6202 56.9943 31.692 56.8187 31.7184C56.5042 31.7658 56.1932 31.8356 55.878 31.8791C55.6142 31.9153 55.4357 32.0319 55.2799 32.25C54.1738 33.7921 53.0596 35.3289 51.9289 36.8539C51.7334 37.118 51.6691 37.3433 51.8373 37.6272C51.8927 37.7201 51.9139 37.8314 51.9686 37.9843Z" fill="#0D0D0B"/>
<path d="M20.0681 37.9947C20.6122 37.3722 20.2868 36.9644 19.9519 36.5158C18.8896 35.0923 17.8525 33.651 16.8169 32.2084C16.6815 32.02 16.5271 31.9245 16.3008 31.8889C15.8981 31.8256 15.4982 31.7459 15.084 31.6708C15.084 31.4429 15.084 31.2381 15.084 31.0101C15.1681 31.0154 15.2453 31.0082 15.3157 31.0259C16.6583 31.3619 18.0002 31.6979 19.34 32.045C19.4556 32.0746 19.5943 32.1609 19.6463 32.2584C20.6006 34.0522 21.5439 35.8518 22.4887 37.6508C22.4982 37.6693 22.4955 37.693 22.5051 37.7641C21.734 37.8366 20.9643 37.9097 20.0681 37.9947Z" fill="#0D0D0B"/>
<path d="M44.8145 13.0715C44.971 12.8067 45.0858 12.5827 45.2335 12.3805C45.2772 12.3205 45.4112 12.2981 45.5042 12.2975C46.1878 12.2909 46.8714 12.2882 47.5543 12.3001C47.6603 12.3021 47.8318 12.3594 47.8592 12.4312C48.1422 13.1802 48.8347 13.4964 49.4643 13.8804C50.0986 14.2671 50.0911 14.2651 49.9373 14.9686C49.6953 16.074 49.467 17.182 49.2291 18.288C49.2045 18.4026 49.1573 18.5133 49.102 18.6846C48.5886 18.2188 48.1449 17.7446 47.6261 17.3658C46.9917 16.902 46.7572 16.35 46.8358 15.5925C46.9021 14.9509 46.8304 14.298 46.8577 13.6512C46.8707 13.3429 46.749 13.2533 46.4578 13.2335C45.9362 13.1973 45.4167 13.1327 44.8145 13.0715Z" fill="#0D0D0B"/>
<path d="M27.3168 13.072C26.7173 13.1326 26.1868 13.1992 25.6536 13.2361C25.372 13.2552 25.266 13.3441 25.2728 13.6353C25.2933 14.545 25.2851 15.456 25.2749 16.3664C25.2735 16.4968 25.238 16.6668 25.1491 16.7504C24.4901 17.371 23.814 17.975 23.1421 18.583C23.1188 18.6041 23.0833 18.6114 23.0067 18.6476C22.9199 18.3222 22.8235 18.0132 22.7552 17.699C22.5214 16.6266 22.2917 15.5535 22.077 14.4771C22.0586 14.3829 22.1338 14.2275 22.2172 14.1669C22.4708 13.9824 22.7422 13.8171 23.0204 13.6695C23.5509 13.3889 23.9931 13.0371 24.2406 12.4825C24.2803 12.3935 24.443 12.3046 24.551 12.302C25.2448 12.2855 25.94 12.2862 26.6339 12.3013C26.7439 12.304 26.8854 12.3843 26.9538 12.4719C27.0891 12.6425 27.1828 12.8435 27.3168 13.072Z" fill="#0D0D0B"/>
<path d="M22.5271 31.9613C22.3274 32.2294 22.1196 32.2894 21.8216 32.213C19.6772 31.6623 17.5307 31.1215 15.3815 30.5912C15.1347 30.5306 15.0896 30.4245 15.054 30.194C14.9392 29.4562 15.1914 28.9536 15.8859 28.5972C16.3433 28.3627 16.7418 28.0214 17.1957 27.7079C18.969 29.1235 20.7374 30.5339 22.5271 31.9613Z" fill="#0D0D0B"/>
<path d="M54.9347 27.7079C55.6073 28.1723 56.2492 28.6077 56.8788 29.0596C56.9711 29.1261 57.0429 29.2684 57.0538 29.3817C57.0805 29.6538 57.0511 29.9305 57.0709 30.2038C57.0873 30.4304 57.008 30.5286 56.7715 30.5866C55.1391 30.9851 53.5107 31.3994 51.8817 31.8092C51.3533 31.9422 50.8215 32.0628 50.2985 32.2143C49.9971 32.3019 49.7934 32.2222 49.6074 31.9581C51.3793 30.5451 53.1464 29.1347 54.9347 27.7079Z" fill="#0D0D0B"/>
<path d="M17.4675 39.5947C19.0726 39.6837 20.6407 39.77 22.2089 39.8582C24.3116 39.9768 26.415 40.0987 28.5178 40.2139C28.7017 40.2238 28.8322 40.2495 28.9156 40.4412C29.5411 41.8779 30.1789 43.3093 30.8119 44.7427C30.8338 44.7915 30.8461 44.8442 30.8775 44.9423C30.0764 44.9423 29.3019 44.9423 28.485 44.9423C28.485 43.5359 28.485 42.1144 28.485 40.6441C24.7929 40.6441 21.1425 40.6441 17.4668 40.6441C17.4675 40.2745 17.4675 39.9524 17.4675 39.5947Z" fill="#0D0D0B"/>
<path d="M7.17732 47.908C6.0487 47.7809 4.91872 47.6577 3.79148 47.5193C3.71765 47.5101 3.6028 47.3856 3.60212 47.3145C3.59187 45.2085 3.59392 43.1025 3.59392 40.9406C3.87487 40.988 4.13601 41.0018 4.36911 41.0868C4.45456 41.1184 4.50446 41.3154 4.51882 41.4425C4.68357 42.8865 5.08825 44.2665 5.78073 45.5537C6.1615 46.2618 6.63728 46.9225 7.07068 47.6043C7.11648 47.6761 7.16706 47.7459 7.21491 47.8164C7.20329 47.8467 7.1903 47.8777 7.17732 47.908Z" fill="#0D0D0B"/>
<path d="M51.9689 32.2426C51.5991 32.954 51.2751 33.5798 50.9477 34.2036C50.3775 35.2899 49.7985 36.3715 49.2394 37.4637C49.13 37.6771 49.0069 37.7358 48.7677 37.718C47.9392 37.6554 47.1093 37.6172 46.2801 37.5684C46.1577 37.5612 46.036 37.5454 45.8809 37.5296C46.0388 37.0671 46.2391 36.6712 46.5884 36.3557C46.9192 36.0566 47.313 36.1139 47.7163 36.139C47.9104 36.1508 48.1504 36.1074 48.3035 36.0006C49.3938 35.2438 49.9749 34.17 50.2518 32.9316C50.3023 32.707 50.4008 32.624 50.6134 32.5778C51.0338 32.4876 51.4474 32.3736 51.9689 32.2426Z" fill="#0D0D0B"/>
<path d="M26.2206 37.5402C25.697 37.5718 25.1781 37.6041 24.6593 37.635C24.2047 37.6627 23.7508 37.7029 23.2962 37.7088C23.1786 37.7101 22.9981 37.6357 22.9496 37.5448C22.0384 35.838 21.1429 34.1233 20.2453 32.4099C20.231 32.3823 20.2296 32.3487 20.207 32.2551C20.7389 32.3895 21.2413 32.5054 21.7328 32.6537C21.808 32.6761 21.8565 32.8447 21.8805 32.9534C22.0835 33.873 22.4745 34.7036 23.1335 35.4039C23.3311 35.614 23.5635 35.7939 23.7843 35.9836C23.9716 36.1443 24.1732 36.1937 24.4385 36.1562C25.3757 36.0231 26.0128 36.5185 26.2206 37.5402Z" fill="#0D0D0B"/>
<path d="M15.0975 28.6229C14.8138 26.7146 16.2931 24.9498 18.1217 23.8049C18.6002 24.3662 19.0808 24.9301 19.5812 25.517C18.0814 26.5558 16.6089 27.5755 15.0975 28.6229Z" fill="#0D0D0B"/>
<path d="M52.5488 25.5162C53.0492 24.9293 53.5243 24.3714 53.998 23.816C55.6188 24.7567 57.3955 26.6908 57.0052 28.6037C55.5163 27.5722 54.0438 26.5518 52.5488 25.5162Z" fill="#0D0D0B"/>
<path d="M68.5344 40.9524C68.5344 41.1191 68.5344 41.2488 68.5344 41.3779C68.5344 43.2534 68.5357 45.1288 68.533 47.0049C68.5323 47.5444 68.6103 47.491 68.0422 47.5635C67.9649 47.5733 67.8877 47.5826 67.7776 47.5957C67.5411 45.4193 67.226 43.2731 65.9941 41.2982C66.8452 41.183 67.6614 41.0716 68.5344 40.9524Z" fill="#0D0D0B"/>
<path d="M54.5996 17.122C55.1458 17.1009 55.5936 17.0838 56.0413 17.068C56.0748 17.0667 56.109 17.0766 56.1425 17.0798C57.1357 17.1793 57.5329 17.5634 57.6464 18.5357C57.6566 18.6219 57.658 18.7096 57.6635 18.7926C58.265 19.0238 58.3491 19.1443 58.3197 19.7701C58.302 20.1489 58.2698 20.527 58.2404 20.9736C56.6237 20.0652 55.3263 18.9388 54.5996 17.122Z" fill="#0D0D0B"/>
<path d="M17.4826 17.2419C16.8093 18.9316 15.5112 20.062 13.9368 20.946C13.8986 20.9328 13.861 20.919 13.8227 20.9058C13.8227 20.4177 13.8158 19.9296 13.8254 19.4415C13.8309 19.1516 13.9594 18.9454 14.2759 18.8572C14.3613 18.8334 14.44 18.707 14.4748 18.6121C14.5234 18.4797 14.5179 18.3302 14.5534 18.1925C14.7551 17.4139 15.0545 17.1484 15.8762 17.0957C16.3903 17.0628 16.9084 17.0898 17.4252 17.0898C17.4444 17.1405 17.4635 17.1912 17.4826 17.2419Z" fill="#0D0D0B"/>
<path d="M44.8755 40.5657C46.5537 40.345 48.2312 40.1237 49.9095 39.9036C51.3409 39.7159 52.7724 39.5301 54.2038 39.3431C54.6892 39.2798 54.7466 39.3246 54.7479 39.7765C54.75 40.646 54.75 40.646 53.8374 40.646C50.9923 40.646 48.1465 40.646 45.3014 40.646C45.1558 40.646 45.0102 40.646 44.8652 40.646C44.8687 40.6197 44.8721 40.5927 44.8755 40.5657Z" fill="#0D0D0B"/>
<path d="M60.668 25.1052C59.9058 25.0024 59.1429 24.8997 58.3807 24.7962C57.626 24.6935 56.8733 24.5756 56.1166 24.4919C55.7522 24.4517 55.4398 24.3588 55.1828 24.0914C55.0229 23.9254 54.8226 23.7956 54.584 23.6039C55.0099 23.571 55.3735 23.5473 55.7365 23.5137C56.5917 23.4353 57.423 23.2746 58.1872 22.8668C58.2569 22.8292 58.4148 22.847 58.4709 22.8997C59.2201 23.6019 59.9584 24.3154 60.6994 25.0261C60.6892 25.0525 60.6789 25.0788 60.668 25.1052Z" fill="#0D0D0B"/>
<path d="M17.5492 23.5889C16.9948 24.0414 16.5648 24.4696 15.8252 24.5329C14.4799 24.6475 13.1448 24.8807 11.8057 25.0631C11.697 25.0776 11.5862 25.0796 11.5254 25.0836C12.278 24.3471 13.045 23.5955 13.8435 22.8142C14.9208 23.4301 16.1861 23.5303 17.5492 23.5889Z" fill="#0D0D0B"/>
<path d="M23.893 29.5491C23.4391 29.1433 22.9353 28.7777 22.5401 28.3245C21.2297 26.8212 19.9582 25.287 18.6724 23.764C18.6095 23.6896 18.5527 23.6099 18.4707 23.5038C18.7708 23.3141 19.0518 23.1363 19.3662 22.938C20.9221 25.1243 22.4629 27.2903 24.0037 29.4555C23.9668 29.4871 23.9299 29.5181 23.893 29.5491Z" fill="#0D0D0B"/>
<path d="M52.7637 22.936C53.0809 23.1389 53.3618 23.3181 53.6681 23.5137C53.1813 24.0908 52.7233 24.6349 52.264 25.1777C51.3288 26.2831 50.4101 27.4023 49.4469 28.4852C49.0996 28.8759 48.645 29.1789 48.2396 29.5221C48.2075 29.4931 48.1747 29.4641 48.1426 29.4358C49.6731 27.2824 51.2044 25.129 52.7637 22.936Z" fill="#0D0D0B"/>
<path d="M67.7268 21.0514C67.3781 20.3841 66.7896 20.3123 66.1716 20.3222C65.6493 20.3301 65.1271 20.3689 64.6041 20.3736C63.9984 20.3782 63.6471 20.0495 63.5938 19.4889C64.5405 19.4889 65.4948 19.4414 66.4382 19.5132C66.7964 19.5403 67.1676 19.7998 67.4684 20.0317C67.7609 20.257 67.8218 20.6179 67.7268 21.0514Z" fill="#0D0D0B"/>
<path d="M4.43086 21.056C4.29687 20.5105 4.43906 20.0718 4.90869 19.8195C5.25595 19.6331 5.66201 19.477 6.05234 19.4506C6.87607 19.3953 7.70664 19.4335 8.53515 19.4335C8.49687 20.029 8.13935 20.3762 7.54189 20.3722C6.95195 20.3683 6.36201 20.3182 5.77207 20.3254C5.22246 20.3327 4.69746 20.4308 4.43086 21.056Z" fill="#0D0D0B"/>
<path d="M14.5375 14.9936C13.791 14.7703 13.1279 15.1359 12.43 15.2947C11.382 15.5332 10.6349 15.2407 10.1133 14.3784C10.0914 14.3428 10.0784 14.302 10.0449 14.2242C10.3423 14.3527 10.5993 14.4792 10.8673 14.5767C11.4654 14.7934 12.0636 14.7908 12.6597 14.551C13.173 14.3448 13.7049 14.2453 14.2565 14.3817C14.6209 14.4726 14.6694 14.5813 14.5375 14.9936Z" fill="#0D0D0B"/>
<path d="M57.5711 15.0094C57.4795 14.5371 57.5259 14.4021 57.9238 14.3817C58.3798 14.3586 58.8808 14.35 59.2923 14.5062C60.2384 14.8645 61.0936 14.7598 61.9372 14.2763C61.9659 14.2598 61.998 14.2479 62.0295 14.2367C62.0363 14.2341 62.0479 14.2447 62.0575 14.2486C61.6897 15.1517 60.7969 15.5536 59.7114 15.2999C59.5234 15.2558 59.3361 15.2057 59.1543 15.1438C58.6436 14.9686 58.1289 14.8434 57.5711 15.0094Z" fill="#0D0D0B"/>
<path d="M31.524 7.3661C31.9669 7.3582 32.3334 7.70008 32.3402 8.1276C32.347 8.54458 31.9731 8.90688 31.537 8.90623C31.1118 8.90557 30.7536 8.56895 30.7406 8.15658C30.7276 7.72972 31.0796 7.37466 31.524 7.3661Z" fill="#0D0D0B"/>
<path d="M23.3546 23.7904C22.71 23.1995 21.9963 22.5447 21.2539 21.8636C21.8151 21.5672 22.3497 21.2852 22.9561 20.9651C22.8405 21.4611 22.7257 21.8807 22.6525 22.3069C22.6259 22.4617 22.6587 22.6534 22.7346 22.7918C22.9396 23.1653 23.183 23.519 23.3546 23.7904Z" fill="#0D0D0B"/>
<path d="M30.5185 8.2772C30.511 8.71592 30.1617 9.03738 29.703 9.02618C29.2491 9.01498 28.9216 8.67574 28.936 8.23109C28.9497 7.81016 29.2935 7.49396 29.7338 7.4966C30.1822 7.49989 30.526 7.84112 30.5185 8.2772Z" fill="#0D0D0B"/>
<path d="M42.4143 9.02548C41.9686 9.02416 41.6131 8.67832 41.6172 8.25146C41.6213 7.84437 41.9761 7.50248 42.4027 7.49655C42.8456 7.48997 43.2134 7.83383 43.2161 8.25739C43.2196 8.68425 42.8614 9.02745 42.4143 9.02548Z" fill="#0D0D0B"/>
<path d="M36.0562 5.41556C36.5046 5.407 36.8656 5.74427 36.869 6.17377C36.8724 6.60129 36.5121 6.95437 36.0726 6.95437C35.6481 6.95437 35.2912 6.61776 35.2796 6.20605C35.2673 5.77128 35.6084 5.42413 36.0562 5.41556Z" fill="#0D0D0B"/>
<path d="M26.8594 6.70277C26.8546 6.2634 27.1964 5.92744 27.6469 5.9281C28.0769 5.92876 28.429 6.25813 28.4413 6.67116C28.4542 7.09999 28.1097 7.4511 27.6633 7.4623C27.2197 7.47415 26.8635 7.13754 26.8594 6.70277Z" fill="#0D0D0B"/>
<path d="M44.234 9.15395C43.7828 9.15592 43.4335 8.82062 43.4356 8.38718C43.4376 7.97415 43.7821 7.63358 44.2087 7.62304C44.653 7.6125 45.0174 7.94978 45.0242 8.37861C45.0304 8.81536 44.6879 9.15197 44.234 9.15395Z" fill="#0D0D0B"/>
<path d="M41.3941 8.1315C41.3961 8.56363 41.0414 8.90946 40.597 8.90683C40.1705 8.90419 39.8191 8.5689 39.8088 8.15389C39.7979 7.72242 40.1459 7.37197 40.5909 7.36604C41.0386 7.36012 41.3914 7.69673 41.3941 8.1315Z" fill="#0D0D0B"/>
<path d="M49.1729 20.9651C49.7922 21.2912 50.3179 21.5678 50.8839 21.8662C50.1353 22.5447 49.4128 23.2008 48.7969 23.7588C48.935 23.5394 49.1776 23.1923 49.3738 22.8227C49.4572 22.6653 49.4921 22.4532 49.4654 22.2779C49.4025 21.8702 49.2891 21.4697 49.1729 20.9651Z" fill="#0D0D0B"/>
<path d="M28.7074 8.40691C28.7006 8.843 28.3458 9.16709 27.8898 9.15458C27.4544 9.14206 27.1153 8.8094 27.1133 8.39308C27.1119 7.97017 27.4804 7.61775 27.9199 7.62236C28.3656 7.62763 28.7143 7.97478 28.7074 8.40691Z" fill="#0D0D0B"/>
<path d="M38.7847 8.7719C38.3322 8.77058 37.9965 8.43463 38.004 7.99196C38.0115 7.56839 38.3465 7.24166 38.7799 7.23639C39.2201 7.23112 39.5845 7.57761 39.5859 8.00316C39.5859 8.43463 39.2331 8.77322 38.7847 8.7719Z" fill="#0D0D0B"/>
<path d="M35.1616 8.63493C34.7043 8.6323 34.3605 8.29898 34.3673 7.86553C34.3741 7.43603 34.7351 7.10337 35.1842 7.11325C35.6087 7.12247 35.9635 7.46567 35.9696 7.87146C35.9758 8.29041 35.608 8.63757 35.1616 8.63493Z" fill="#0D0D0B"/>
<path d="M34.1474 7.99724C34.1515 8.42871 33.7974 8.77323 33.3531 8.77191C32.906 8.77059 32.5512 8.42542 32.5567 7.99658C32.5622 7.57828 32.9012 7.24694 33.336 7.23574C33.7776 7.22454 34.144 7.5684 34.1474 7.99724Z" fill="#0D0D0B"/>
<path d="M43.7012 6.69091C43.7039 6.26405 44.0717 5.91755 44.5113 5.92809C44.9563 5.93863 45.3001 6.28776 45.2906 6.71857C45.281 7.13358 44.9296 7.46492 44.5003 7.46558C44.0546 7.46558 43.6978 7.11974 43.7012 6.69091Z" fill="#0D0D0B"/>
<path d="M36.1857 7.85829C36.1953 7.42551 36.5528 7.10075 37.0054 7.11326C37.4511 7.12512 37.7799 7.4703 37.7662 7.91099C37.7525 8.3339 37.4142 8.64087 36.9678 8.63494C36.5084 8.62902 36.1762 8.29965 36.1857 7.85829Z" fill="#0D0D0B"/>
<path d="M35.2439 22.9946C35.868 23.3754 36.4497 23.7304 37.026 24.0822C37.4444 23.6784 37.8074 23.7456 38.0514 24.239C38.508 25.1619 38.7637 26.1315 38.8047 27.1532C38.8109 27.3008 38.8054 27.449 38.8054 27.6124C36.6972 26.8489 35.155 24.8661 35.2439 22.9946Z" fill="#0D0D0B"/>
<path d="M41.5584 28.592C41.4128 28.5097 41.2877 28.4392 41.1394 28.3555C41.0081 28.5051 40.8796 28.652 40.7326 28.8199C40.3095 28.5663 39.8925 28.3233 39.4864 28.0637C39.4167 28.0196 39.3586 27.9043 39.3586 27.822C39.3538 26.3918 39.038 25.0368 38.3277 23.774C38.3086 23.7391 38.3106 23.693 38.2949 23.608C38.7105 23.6792 39.1009 23.7365 39.4857 23.8188C39.5678 23.8366 39.643 23.9354 39.6963 24.0132C40.6294 25.3787 41.2063 26.8826 41.5584 28.4735C41.5646 28.5024 41.5584 28.5347 41.5584 28.592Z" fill="#0D0D0B"/>
<path d="M42.8075 29.408C42.3283 29.2242 42.0952 28.9225 42.0002 28.437C41.6509 26.6512 40.9618 24.9886 39.879 23.4919C39.5755 23.0723 39.2255 22.6836 38.9062 22.2924C41.0404 22.8147 43.3653 27.0234 42.8075 29.408Z" fill="#0D0D0B"/>
<path d="M35.5076 25.7476C35.0667 25.4136 34.5807 25.1218 34.1965 24.7358C33.6469 24.1837 33.7945 23.1317 34.5116 22.4684C34.5978 22.6397 34.7242 22.78 34.7352 22.9288C34.8042 23.8708 35.0113 24.77 35.5268 25.5868C35.5473 25.6191 35.552 25.66 35.5644 25.6968C35.5452 25.714 35.5261 25.7304 35.5076 25.7476Z" fill="#0D0D0B"/>
<path d="M34.5317 16.7222C34.3526 16.7828 34.1749 16.8783 33.9931 16.8882C33.9008 16.8935 33.7989 16.7439 33.7012 16.6642C33.7969 16.5937 33.898 16.4593 33.9862 16.4666C34.1694 16.4831 34.3458 16.5746 34.5249 16.6352C34.527 16.6642 34.529 16.6932 34.5317 16.7222Z" fill="#0D0D0B"/>
<path d="M48.9844 44.6644C48.9844 44.3153 48.9844 43.9826 48.9844 43.6315C49.3275 43.6183 49.698 43.5162 49.897 43.8403C49.9906 43.9932 49.9865 44.2909 49.8908 44.4444C49.6946 44.7612 49.331 44.6954 48.9844 44.6644Z" fill="#0D0D0B"/>
<path d="M12.4102 44.6684C12.4102 44.3206 12.4102 43.9952 12.4102 43.6257C12.7328 43.6243 13.0958 43.5124 13.3098 43.8187C13.4123 43.9649 13.4232 44.264 13.3357 44.4221C13.1423 44.7699 12.7643 44.6875 12.4102 44.6684Z" fill="#0D0D0B"/>
<path d="M18.7754 46.0913C18.7754 45.2606 18.7754 44.4583 18.7754 43.6236C19.3558 43.6078 19.9402 43.5301 20.3224 44.0367C20.6819 44.5136 20.656 45.0617 20.3777 45.561C20.0373 46.1716 19.4118 46.1202 18.7754 46.0913Z" fill="#0D0D0B"/>
</g>
<path d="M116.875 19.8779C116.557 19.8301 116.255 19.7761 115.952 19.7419C115.737 19.718 115.676 19.6141 115.673 19.4042C115.66 18.5743 115.654 18.5743 116.487 18.5743C117.398 18.5743 118.31 18.5846 119.221 18.5682C119.497 18.5634 119.566 18.6557 119.564 18.9195C119.557 19.7084 119.566 19.7023 118.776 19.8417C118.683 19.8581 118.542 19.9935 118.54 20.0762C118.521 20.8151 118.529 21.5548 118.529 22.3238C119.871 22.3238 121.195 22.3238 122.574 22.3238C122.574 21.9451 122.574 21.5623 122.574 21.1802C122.574 21.0093 122.574 20.8384 122.574 20.6675C122.574 19.906 122.575 19.8998 121.828 19.7665C121.628 19.731 121.524 19.6674 121.539 19.4425C121.556 19.1725 121.543 18.9004 121.543 18.6017C122.844 18.6017 124.111 18.6017 125.426 18.6017C125.426 18.912 125.443 19.2176 125.414 19.5184C125.406 19.5977 125.269 19.7064 125.175 19.7275C124.877 19.7939 124.571 19.8253 124.243 19.8738C124.243 22.142 124.243 24.4013 124.243 26.6845C124.559 26.7385 124.884 26.7774 125.199 26.8581C125.29 26.8814 125.406 27.0167 125.416 27.1104C125.445 27.3797 125.426 27.6545 125.426 27.9607C124.132 27.9607 122.856 27.9607 121.561 27.9607C121.561 27.5984 121.561 27.2491 121.561 26.8622C121.88 26.8062 122.2 26.7501 122.547 26.6893C122.547 25.776 122.547 24.8613 122.547 23.9248C121.217 23.9248 119.9 23.9248 118.556 23.9248C118.556 24.8395 118.556 25.7541 118.556 26.6886C118.878 26.744 119.199 26.7993 119.538 26.8581C119.538 27.2259 119.538 27.5745 119.538 27.9614C119.443 27.9724 119.347 27.9922 119.251 27.9929C118.168 27.9949 117.086 27.9874 116.004 27.9997C115.753 28.0024 115.67 27.9341 115.671 27.6743C115.675 26.8738 115.664 26.8732 116.46 26.7515C116.593 26.731 116.726 26.7146 116.875 26.694C116.875 24.4156 116.875 22.155 116.875 19.8779Z" fill="#0D0D0B"/>
<path d="M87.0753 28.0047C87.0753 27.6499 87.0643 27.3443 87.0842 27.0408C87.0883 26.9752 87.1942 26.8767 87.268 26.861C87.5893 26.7913 87.9154 26.7462 88.2695 26.6874C88.2743 26.58 88.2839 26.4693 88.2839 26.3586C88.2846 24.3098 88.2798 22.2611 88.29 20.2124C88.2914 19.9369 88.2141 19.8309 87.9332 19.82C87.6536 19.809 87.3767 19.738 87.0944 19.6921C87.0944 19.31 87.0944 18.9628 87.0944 18.5957C87.1792 18.5875 87.2441 18.5772 87.3097 18.5765C88.7091 18.5594 90.1091 18.515 91.5077 18.5396C92.1147 18.5505 92.7361 18.6421 93.3213 18.8042C94.7274 19.1938 95.5805 20.1495 95.9135 21.5659C96.1404 22.5332 96.152 23.5087 95.947 24.4787C95.5457 26.3729 94.1477 27.6909 92.1093 27.9322C90.9649 28.0675 89.7953 27.9896 88.6366 28.004C88.1273 28.0094 87.618 28.0047 87.0753 28.0047ZM90.1111 20.0545C90.0933 20.131 90.0749 20.1741 90.0749 20.2171C90.0728 22.2208 90.0742 24.2244 90.0687 26.228C90.068 26.4235 90.1521 26.498 90.3312 26.4925C90.8528 26.4761 91.3846 26.5137 91.8946 26.4269C92.9316 26.2499 93.6514 25.6401 93.9727 24.6263C94.281 23.6549 94.253 22.6713 93.9474 21.7026C93.7588 21.1038 93.391 20.6348 92.8181 20.3518C91.9507 19.9232 91.0312 20.0059 90.1111 20.0545Z" fill="#0D0D0B"/>
<path d="M142.029 31.2304C142.086 30.6924 142.14 30.188 142.192 29.6896C142.748 29.7839 143.279 29.9029 143.817 29.9562C144.186 29.9924 144.571 29.976 144.937 29.9166C145.698 29.7935 146.119 29.3266 146.175 28.5473C146.21 28.0613 146.181 27.5712 146.143 27.0161C146.109 27.0817 146.083 27.1535 146.04 27.2116C145.44 28.0039 144.63 28.2424 143.68 28.0921C142.788 27.9505 142.179 27.4406 141.89 26.597C141.477 25.3919 141.488 24.1723 141.975 22.9904C142.453 21.8303 143.371 21.1864 144.594 20.9991C145.639 20.8391 146.682 20.9697 147.723 21.1064C147.973 21.1392 147.924 21.3074 147.924 21.4578C147.926 23.1312 147.929 24.8053 147.923 26.4788C147.92 27.241 147.958 28.01 147.869 28.7633C147.699 30.2098 146.909 31.0342 145.48 31.3309C144.337 31.5674 143.199 31.4731 142.029 31.2304ZM146.236 22.4141C145.829 22.3827 145.504 22.3341 145.178 22.3362C144.408 22.3403 143.875 22.7224 143.64 23.4511C143.385 24.2386 143.369 25.0439 143.606 25.8362C143.874 26.731 144.891 26.9771 145.512 26.2771C145.772 25.9839 146.007 25.5833 146.057 25.2052C146.178 24.2988 146.182 23.3766 146.236 22.4141Z" fill="#0D0D0B"/>
<path d="M126.689 21.3958C127.861 20.9815 128.987 20.8004 130.151 20.9692C131.417 21.1524 132.058 21.8893 132.069 23.1738C132.079 24.1992 132.071 25.2246 132.071 26.2493C132.071 26.373 132.071 26.4961 132.071 26.6506C132.478 26.7052 132.859 26.7572 133.264 26.8119C133.264 27.1564 133.264 27.5023 133.264 27.9159C132.328 27.9583 131.404 28.0007 130.435 28.0444C130.452 27.6507 130.466 27.3294 130.485 26.9137C130.088 27.5372 129.6 27.9296 128.958 28.0369C128.541 28.1059 128.091 28.1244 127.68 28.0444C126.986 27.9097 126.536 27.4408 126.375 26.7476C126.2 25.997 126.298 25.2929 126.882 24.7256C127.448 24.1746 128.167 23.9647 128.919 23.8512C129.358 23.7856 129.801 23.7617 130.243 23.7186C130.474 22.8915 130.079 22.2674 129.234 22.2844C128.596 22.2974 127.962 22.4765 127.327 22.588C127.217 22.6071 127.113 22.655 126.957 22.7055C126.864 22.2571 126.778 21.8319 126.689 21.3958ZM130.263 24.8199C129.664 24.9464 129.08 25.0188 128.532 25.2C128.057 25.3572 127.895 25.8159 128.05 26.2534C128.191 26.6506 128.611 26.8543 129.083 26.7531C129.855 26.5884 130.364 25.8166 130.263 24.8199Z" fill="#0D0D0B"/>
<path d="M139.748 26.6547C140.16 26.708 140.531 26.7565 140.927 26.8078C140.927 27.1476 140.927 27.4934 140.927 27.9152C140.009 27.9576 139.087 28 138.141 28.0437C138.141 27.6691 138.141 27.3677 138.141 26.9924C138.033 27.1154 137.969 27.1845 137.91 27.2576C137.283 28.0205 136.106 28.3445 135.179 28.0089C133.805 27.5119 133.517 25.5767 134.678 24.6101C135.396 24.0126 136.274 23.869 137.166 23.7802C137.424 23.7542 137.685 23.7453 137.937 23.7296C138.125 22.8477 137.735 22.2681 136.878 22.2831C136.263 22.294 135.65 22.4677 135.037 22.577C134.907 22.6003 134.782 22.6577 134.624 22.7097C134.542 22.3111 134.456 21.9475 134.401 21.5783C134.39 21.5038 134.475 21.3596 134.546 21.3356C135.719 20.9433 136.915 20.7553 138.141 21.0369C139.125 21.2632 139.681 21.9092 139.718 22.9202C139.759 24.0119 139.741 25.1063 139.748 26.1994C139.749 26.3354 139.748 26.4708 139.748 26.6547ZM137.94 24.8295C137.365 24.9409 136.801 25.0038 136.266 25.1672C135.749 25.3251 135.556 25.7865 135.718 26.2514C135.866 26.6731 136.31 26.87 136.816 26.7381C137.549 26.5467 138.057 25.7476 137.94 24.8295Z" fill="#0D0D0B"/>
<path d="M106.772 21.0072C106.749 21.4221 106.731 21.7475 106.713 22.0736C106.743 22.0989 106.772 22.1249 106.802 22.1502C106.834 22.0811 106.855 22.0039 106.9 21.9451C107.6 21.0311 108.86 20.6599 109.938 21.0585C110.725 21.349 111.059 21.9847 111.078 22.764C111.115 24.324 111.098 25.8846 111.103 27.4453C111.103 27.6141 111.103 27.783 111.103 27.9737C110.515 27.9737 109.963 27.9737 109.371 27.9737C109.371 27.839 109.371 27.718 109.371 27.5964C109.371 26.2975 109.372 24.9994 109.37 23.7006C109.37 23.5304 109.367 23.3574 109.34 23.1899C109.229 22.4954 108.73 22.2131 108.065 22.4653C107.611 22.6376 107.289 22.9739 107.138 23.4141C106.993 23.838 106.884 24.2932 106.868 24.7383C106.83 25.8067 106.856 26.8765 106.856 27.9703C106.277 27.9703 105.725 27.9703 105.133 27.9703C105.126 27.837 105.114 27.7057 105.114 27.5752C105.113 25.9578 105.107 24.3397 105.119 22.7223C105.121 22.4592 105.042 22.3546 104.779 22.343C104.498 22.3306 104.218 22.2807 103.918 22.2452C103.918 21.8925 103.918 21.5561 103.918 21.1344C104.845 21.0927 105.779 21.0516 106.772 21.0072Z" fill="#0D0D0B"/>
<path d="M98.8919 24.8834C98.7729 25.8671 99.3267 26.66 100.265 26.7113C100.947 26.7489 101.638 26.6101 102.324 26.5404C102.468 26.5261 102.609 26.4686 102.812 26.4153C102.866 26.8289 102.923 27.2165 102.957 27.6061C102.961 27.6588 102.857 27.7531 102.788 27.7743C101.719 28.0942 100.632 28.2624 99.5228 28.0443C98.1748 27.7791 97.4338 27.0237 97.1856 25.6661C96.9826 24.5532 97.0366 23.4622 97.6136 22.4532C98.4448 20.9992 100.444 20.4523 101.913 21.2665C102.353 21.5105 102.687 21.8564 102.905 22.3144C103.296 23.132 103.259 23.9872 103.167 24.8834C101.725 24.8834 100.306 24.8834 98.8919 24.8834ZM101.47 23.6871C101.511 22.7533 101.019 22.1941 100.217 22.2201C99.4702 22.244 98.8468 22.9536 98.937 23.6871C99.7737 23.6871 100.611 23.6871 101.47 23.6871Z" fill="#0D0D0B"/>
</g>
<defs>
<clipPath id="clip0_165_651">
<rect width="70" height="50" fill="white" transform="translate(1.07227)"/>
</clipPath>
</defs>
</svg>
