<svg width="195" height="362" viewBox="0 0 195 362" fill="none" xmlns="http://www.w3.org/2000/svg">
<mask id="mask0_149_4276" style="mask-type:alpha" maskUnits="userSpaceOnUse" x="0" y="56" width="41" height="52">
<path fill-rule="evenodd" clip-rule="evenodd" d="M0 56.5378H40.1127V107.019H0V56.5378Z" fill="white"/>
</mask>
<g mask="url(#mask0_149_4276)">
<path fill-rule="evenodd" clip-rule="evenodd" d="M40.1129 91.5698C40.1129 91.5698 34.0832 84.3554 31.5183 80.8113C28.9548 77.2665 25.6128 73.0298 23.9564 70.1564C22.3 67.2845 20.1637 61.3458 19.1405 61.6501C18.1173 61.9545 19.6007 68.2727 19.2676 69.4207C18.9346 70.5695 16.4171 66.47 15.085 63.9549C13.7528 61.4392 10.4415 55.6932 9.65347 56.6427C8.86616 57.5915 11.0754 62.2873 11.5246 63.4441C11.9745 64.6008 13.1708 67.9588 11.7926 65.9978C10.413 64.036 6.97532 58.0381 5.97403 58.2016C4.972 58.3658 7.39599 63.574 8.21032 65.354C9.0261 67.1348 9.4015 70.0805 7.27111 66.4649C5.13998 62.8492 3.01908 60.4203 2.57358 60.9925C2.12807 61.5662 3.04757 64.0126 4.0138 65.9043C4.98077 67.7968 5.83234 70.6643 4.45346 68.7033C3.07459 66.7415 0.380375 63.2185 0.00425106 64.2374C-0.371142 65.2555 24.2405 107.019 24.2405 107.019L40.1129 91.5698Z" fill="#FDC0B9"/>
</g>
<path d="M19.0059 71.2405C19.0132 71.9236 19.4316 74.589 21.4737 78.2185" stroke="black" stroke-width="1.341" stroke-linecap="round"/>
<path d="M13.603 68.1616C13.6658 68.5616 5.88477 72.7071 5.88477 72.7071" stroke="black" stroke-width="1.341" stroke-linecap="round"/>
<path fill-rule="evenodd" clip-rule="evenodd" d="M163.896 59.3658C162.954 55.1495 160.019 52.5236 157.447 49.3167C155.632 47.0549 154.749 44.7646 154.906 41.8088C155.045 39.1872 155.713 36.6087 155.456 33.9703C155.071 30.0336 153.056 26.3245 150.004 23.8898C148.381 22.5929 146.455 21.9725 144.719 20.8807C142.327 19.3757 141.245 16.9636 140.174 14.434C138.529 10.5513 136.373 7.22685 132.98 4.70818C125.653 -0.729849 115.749 -0.237208 108.78 5.35774C108.728 5.34679 108.674 5.34168 108.613 5.3446C98.5018 5.95109 96.9323 18.1168 93.1119 25.3123C90.609 30.0256 86.2452 33.0157 82.8777 36.9977C80.0688 40.3177 78.3854 44.2866 77.9011 48.6459C77.3789 53.3388 78.1619 58.1302 79.5451 62.6063C80.1623 64.6017 80.9109 66.5532 81.7544 68.4589C82.668 70.5243 83.6146 72.9503 85.7041 74.0487C87.4101 74.9464 89.515 74.8515 91.381 74.9354C94.4864 75.0763 97.6093 75.1675 100.707 74.8428C105.893 74.2983 110.606 72.127 115.645 70.9498C119 70.1659 122.271 70.1236 125.555 71.249C128.445 72.2402 131.079 73.8392 133.813 75.1902C137.93 77.2257 142.548 78.6773 146.961 77.152C152.837 78.3401 159.294 75.8959 162.373 70.3521C164.204 67.0546 164.72 63.0515 163.896 59.3658Z" fill="#05293C"/>
<path fill-rule="evenodd" clip-rule="evenodd" d="M115.098 329.689C115.271 329.436 115.317 327.332 115.219 323.934C115.172 322.292 115.354 320.338 115.26 318.154C115.184 316.379 115.011 314.448 114.91 312.391C114.82 310.56 114.661 308.633 114.558 306.629C114.46 304.766 114.192 302.848 114.084 300.875C113.983 298.99 114.065 297.053 113.957 295.102C113.852 293.199 113.601 291.281 113.494 289.348C113.386 287.428 113.215 285.503 113.108 283.583C113.001 281.649 112.598 279.738 112.492 277.834C112.384 275.882 112.686 273.931 112.584 272.044C112.476 270.07 111.958 268.164 111.86 266.3C111.755 264.295 112.123 262.342 112.032 260.51C111.93 258.452 111.373 256.539 111.296 254.763C111.2 252.579 111.731 250.611 111.681 248.969C111.579 245.578 111.324 243.604 111.49 243.346C111.533 243.603 111.753 245.587 112.066 248.983C112.216 250.624 112.135 252.59 112.332 254.771C112.493 256.545 113.187 258.43 113.371 260.487C113.535 262.318 113.117 264.299 113.296 266.302C113.462 268.166 113.987 270.063 114.162 272.036C114.33 273.921 114.489 275.848 114.662 277.799C114.832 279.703 115.257 281.606 115.428 283.541C115.599 285.461 115.449 287.418 115.621 289.338C115.793 291.273 115.837 293.212 116.005 295.117C116.179 297.07 116.836 298.955 117.004 300.841C117.18 302.815 117.31 304.747 117.477 306.611C117.656 308.615 117.719 310.554 117.883 312.385C118.067 314.443 118.182 316.383 118.341 318.157C118.538 320.338 118.95 322.259 119.101 323.9C119.413 327.296 119.255 329.701 119.299 329.958C122.08 330.085 122.095 329.86 124.879 329.86C127.663 329.86 127.663 329.595 130.448 329.595C133.233 329.595 133.233 330.075 136.018 330.075C138.803 330.075 138.803 329.37 141.588 329.37C144.373 329.37 144.373 329.721 147.159 329.721C149.946 329.721 149.946 329.407 152.732 329.407C155.518 329.407 155.518 329.938 158.303 329.938C161.091 329.938 161.091 329.796 163.878 329.796C166.666 329.796 166.669 330.008 169.392 329.409C169.439 328.172 169.811 326.493 169.714 323.978C169.651 322.315 168.842 320.438 168.725 318.317C168.63 316.557 169.123 314.618 168.996 312.591C168.884 310.786 168.513 308.9 168.38 306.918C168.257 305.087 168.131 303.187 167.994 301.231C167.864 299.382 167.887 297.472 167.747 295.533C167.612 293.671 166.976 291.809 166.834 289.883C166.695 288.011 167.05 286.075 166.906 284.159C166.764 282.279 166.843 280.364 166.698 278.458C166.555 276.568 165.936 274.706 165.79 272.808C165.646 270.909 165.71 268.996 165.565 267.105C165.418 265.199 164.828 263.334 164.684 261.453C164.536 259.538 164.674 257.617 164.532 255.745C164.384 253.819 164.303 251.915 164.163 250.053C164.015 248.114 164.051 246.202 163.913 244.353C163.768 242.397 163.831 240.482 163.698 238.651C163.555 236.67 162.718 234.819 162.593 233.014C162.453 230.989 162.545 229.07 162.433 227.312C162.296 225.191 162.523 223.261 162.434 221.598C162.302 219.088 161.934 217.158 161.936 215.922C161.938 214.091 162.116 212.263 162.157 210.434C162.196 208.604 161.916 206.76 162.003 204.933C162.09 203.104 162.43 201.288 162.572 199.463C162.715 197.639 162.967 195.826 163.175 194.007C163.379 192.214 163.646 190.43 163.862 188.641C164.077 186.849 164.189 185.046 164.375 183.253C164.561 181.46 164.594 179.656 164.709 177.856C164.824 176.059 164.82 174.265 164.823 172.457C164.828 170.437 165.018 168.415 164.937 166.397C164.857 164.379 164.622 162.368 164.487 160.353C164.353 158.338 164.17 156.327 164.014 154.313C163.858 152.298 163.842 150.273 163.694 148.261C163.635 147.45 162.515 147.434 162.574 148.252C162.574 148.253 162.373 148.131 162.373 148.132C160.438 148.462 158.557 149.187 156.611 149.434C154.663 149.682 152.668 149.538 150.714 149.703C148.757 149.866 146.802 150.05 144.843 150.133C142.88 150.214 140.918 150.265 138.955 150.265C136.992 150.264 135.03 150.187 133.069 150.104C131.108 150.022 129.143 149.97 127.187 149.804C125.232 149.64 123.272 149.474 121.324 149.227C119.377 148.981 117.481 148.404 115.545 148.076C113.611 147.749 111.645 147.595 109.725 147.187C107.806 146.78 105.948 146.121 104.045 145.633C102.146 145.146 100.171 144.924 98.291 144.357C96.4133 143.791 94.6385 142.904 92.7835 142.258C90.9313 141.614 89.1303 140.852 87.3045 140.129C85.4808 139.406 83.5659 138.91 81.7722 138.109C81.5845 138.026 81.4121 138.029 81.2588 138.096C80.9389 137.935 80.2787 137.948 80.1669 138.403C79.7886 139.937 79.9244 141.897 79.5432 144.038C79.2438 145.724 78.8596 147.566 78.5587 149.59C78.2987 151.339 77.74 153.165 77.48 155.141C77.2456 156.924 77.2543 158.825 77.0206 160.775C76.8044 162.579 76.2691 164.414 76.0537 166.347C75.8513 168.167 75.8243 170.06 75.6228 171.982C75.4314 173.813 75.2598 175.689 75.0692 177.604C74.8866 179.443 74.7792 181.325 74.5981 183.232C74.4228 185.077 74.0796 186.938 73.9057 188.841C73.7363 190.692 73.821 192.59 73.6538 194.489C73.4894 196.345 72.8351 198.179 72.6729 200.073C72.5137 201.934 72.8694 203.855 72.7124 205.746C72.5568 207.61 72.2055 209.471 72.0529 211.359C71.901 213.227 71.4839 215.084 71.3349 216.969C71.1867 218.84 71.2166 220.733 71.0706 222.615C70.926 224.489 70.9559 226.382 70.8128 228.262C70.6703 230.14 70.3183 232.004 70.1774 233.882C70.0379 235.763 70.2489 237.669 70.1109 239.544C69.9729 241.429 69.6515 243.296 69.5164 245.169C69.3798 247.056 68.8905 248.912 68.7576 250.783C68.6225 252.674 68.564 254.56 68.4326 256.428C68.2989 258.322 68.1426 260.202 68.0126 262.066C67.8804 263.963 67.9608 265.859 67.833 267.721C67.7022 269.621 67.8571 271.522 67.7307 273.378C67.6 275.282 67.0983 277.137 66.9719 278.988C66.8426 280.9 67.1238 282.809 66.9989 284.655C66.8689 286.574 66.3928 288.433 66.2693 290.271C66.1386 292.199 65.8216 294.066 65.6982 295.894C65.5675 297.834 65.4557 299.717 65.3323 301.533C65.2001 303.489 65.1979 305.377 65.0745 307.174C64.9387 309.158 65.1556 311.063 65.0314 312.831C64.8897 314.864 64.751 316.747 64.6268 318.463C64.4698 320.611 63.8979 322.464 63.7701 324.058C63.5349 326.973 63.5065 329.288 63.375 330.051C66.2182 330.438 66.2942 329.326 69.1637 329.326C72.0339 329.326 72.0339 329.38 74.9034 329.38C77.7736 329.38 77.7736 329.634 80.6431 329.634C83.5126 329.634 83.5126 329.711 86.3828 329.711C89.253 329.711 89.253 329.618 92.1233 329.618C94.9949 329.618 94.9949 329.941 97.8666 329.941C100.737 329.941 100.737 329.985 103.608 329.985C106.48 329.985 106.479 329.769 109.351 329.811C112.224 329.852 112.228 329.812 115.098 329.689Z" fill="#247B9F"/>
<path fill-rule="evenodd" clip-rule="evenodd" d="M152.249 170.101C152.249 170.101 148.923 178.957 147.099 182.951C145.276 186.945 143.227 191.968 141.547 194.826C139.867 197.684 135.78 202.439 136.531 203.211C137.281 203.983 142.008 199.634 143.154 199.384C144.301 199.134 141.978 203.352 140.45 205.748C138.922 208.145 135.561 213.86 136.755 214.114C137.947 214.368 140.932 210.141 141.712 209.187C142.492 208.231 144.809 205.552 143.781 207.727C142.752 209.9 139.235 215.851 139.854 216.671C140.474 217.491 143.796 212.829 144.937 211.247C146.08 209.665 148.434 207.92 146.342 211.56C144.25 215.198 143.174 218.262 143.879 218.388C144.585 218.514 146.25 216.521 147.416 214.749C148.582 212.978 150.642 210.844 149.614 213.018C148.585 215.192 146.842 219.293 147.898 219.143C148.953 218.993 173.121 176.961 173.121 176.961L152.249 170.101Z" fill="#FDC0B9"/>
<mask id="mask1_149_4276" style="mask-type:alpha" maskUnits="userSpaceOnUse" x="15" y="59" width="180" height="140">
<path fill-rule="evenodd" clip-rule="evenodd" d="M15.3633 59.1453H194.693V198.374H15.3633V59.1453Z" fill="white"/>
</mask>
<g mask="url(#mask1_149_4276)">
<path fill-rule="evenodd" clip-rule="evenodd" d="M194.398 132.04C194.247 129.872 193.844 127.917 193.611 126.07C193.341 123.937 193.363 121.928 192.98 120.077C192.56 118.043 191.872 116.18 191.313 114.288C190.755 112.399 189.868 110.625 189.168 108.669C188.529 106.886 188.217 104.893 187.458 102.891C186.795 101.144 186.294 99.207 185.538 97.1817C184.865 95.3783 184.121 93.4347 183.222 91.5189C182.376 89.7154 181.159 88.02 180.236 86.1881C179.314 84.3577 178.485 82.4805 177.605 80.6924C176.67 78.7941 175.623 77.0199 174.873 75.25C174.312 73.9268 173.174 71.8614 171.864 69.9288C170.542 67.9801 168.992 66.2664 167.749 65.4884C166.493 64.7046 165.231 63.9127 163.813 63.5624C162.393 63.2113 160.916 62.9318 159.481 62.7515C157.696 62.5275 155.849 62.8318 154.062 62.6311C152.275 62.4319 150.483 62.318 148.693 62.1407C146.904 61.9626 145.15 61.4196 143.358 61.2619C141.568 61.105 139.794 60.7043 138.001 60.5649C136.208 60.4263 134.387 60.6715 132.593 60.5496C132.362 60.5336 132.205 60.5759 132.107 60.7204C130.357 60.5642 128.582 60.5985 126.825 60.4372C125.071 60.2759 123.349 59.7278 121.592 59.5994C119.833 59.4709 118.067 59.3417 116.31 59.2841C114.547 59.2272 112.783 59.1936 111.025 59.2476C109.122 59.1199 107.207 59.1279 105.306 59.1841C103.402 59.2396 101.498 59.4914 99.6082 59.7373C97.7239 59.9825 95.8097 60.1927 93.9525 60.6328C92.272 61.0306 90.6353 61.8933 88.908 62.4574C87.2071 63.0128 85.3564 63.2799 83.8132 64.1441C82.2503 65.0199 80.7407 66.1183 79.5458 67.4619C78.248 68.9223 77.4162 70.7914 76.2761 72.427C75.15 74.0414 74.0712 75.696 73.0123 77.3636C71.9438 79.0467 70.9644 80.7837 69.8776 82.3995C68.9443 83.7884 67.7604 85.0102 66.8263 86.3991C65.8929 87.7879 64.9282 89.1557 63.9941 90.5453C63.0607 91.9341 62.12 93.3179 61.1866 94.7075C60.2525 96.0964 59.287 97.1853 58.3537 98.5742C56.4343 97.8239 54.9795 96.4562 53.4217 95.1527C51.9011 93.8814 50.3265 92.672 48.8951 91.2955C47.4629 89.9161 46.3411 88.2521 45.0089 86.7756C43.6783 85.3021 41.84 84.2511 40.6028 82.6922C40.5999 82.6878 41.1469 82.4105 41.144 82.4068C41.0717 82.0091 40.2829 81.5507 39.8586 81.8368C38.3738 82.8367 36.8891 83.8512 35.4459 84.9087C34.0035 85.967 32.7327 87.2588 31.3334 88.374C29.9341 89.4885 28.3587 90.4022 27.0054 91.5729C25.6521 92.7421 24.6267 94.2813 23.3201 95.5052C22.0157 96.7277 20.7391 97.9714 19.4815 99.2471C18.2275 100.52 16.6456 101.491 15.4405 102.817C15.1674 103.116 15.6896 103.625 15.9094 103.851C16.352 105.549 16.6697 107.305 17.1597 109.004C17.6476 110.695 18.2209 112.359 18.7738 114.034C19.3266 115.709 19.7736 117.419 20.409 119.061C21.0458 120.708 22.0669 122.179 22.8038 123.776C23.5436 125.38 24.0015 127.11 24.8582 128.647C25.7178 130.186 26.8601 131.54 27.8555 132.997C28.8466 134.447 29.8041 135.909 30.9485 137.26C32.1389 138.666 33.3119 140.095 34.6615 141.353C36.0141 142.613 37.2878 144.006 38.7879 145.074C40.2939 146.147 42.0401 146.87 43.6826 147.706C45.4303 148.594 47.1517 149.508 48.9747 150.047C50.8224 150.593 52.7381 150.983 54.6516 151.232C56.5439 151.478 58.4902 151.539 60.4351 151.555C62.0667 151.569 63.7063 151.047 65.3569 150.942C67.0082 150.837 68.7434 151.25 70.3275 150.796C71.9175 150.341 73.3409 149.443 74.6957 148.554C76.0417 147.671 77.2548 146.559 78.5073 145.517C78.5993 145.44 78.3503 145.118 78.3817 145.031C78.4365 145.007 78.6154 145.001 78.6665 144.958C79.2523 144.466 79.3457 144.099 79.5407 143.344C79.8891 142.003 79.957 140.593 80.2747 139.244C80.3667 138.852 80.3777 138.895 80.7809 138.915C82.8908 139.815 84.9803 140.502 87.1048 141.346C88.4793 141.891 89.9218 142.238 91.3182 142.721C92.7153 143.205 94.1606 143.505 95.5753 143.93C97.5465 144.523 99.373 145.633 101.371 146.12C103.369 146.606 105.498 146.492 107.516 146.884C109.536 147.277 111.542 147.682 113.574 147.992C115.338 148.262 117.06 148.811 118.829 149.029C120.6 149.245 122.368 149.508 124.144 149.679C125.919 149.851 127.721 149.713 129.5 149.845C131.279 149.978 133.06 150.026 134.841 150.128C136.622 150.23 138.381 150.753 140.163 150.831C141.946 150.909 143.702 151.164 145.484 151.226C145.425 151.324 145.272 151.028 145.263 151.166C145.182 151.42 145.263 151.713 145.184 151.968C144.987 152.605 144.491 153.152 144.299 153.791C143.915 155.069 144.066 156.503 143.703 157.786C142.942 160.484 141.738 163.066 141.075 165.789C140.643 167.561 140.131 169.324 139.742 171.106C139.353 172.89 139.398 174.765 139.049 176.557C138.701 178.348 138.416 180.149 138.106 181.947C138.093 182.03 137.781 181.99 137.792 182.062C137.6 182.379 137.897 182.93 138.344 183.111C139.983 183.778 141.654 184.463 143.127 185.44C144.59 186.41 145.763 187.825 147.177 188.884C148.591 189.944 150.162 190.77 151.643 191.702C153.086 192.61 154.305 193.923 155.813 194.705C157.325 195.489 158.981 196.018 160.548 196.678C162.117 197.34 163.762 197.818 165.377 198.359C165.657 198.452 165.626 198.089 165.757 197.905C165.815 197.891 166.13 198.113 166.19 198.078C168.096 196.957 169.131 195.107 170.168 193.196C170.921 191.811 171.889 190.538 172.621 189.142C173.353 187.747 174.002 186.305 174.715 184.9C175.667 183.025 176.549 181.111 177.467 179.22C178.384 177.328 179.136 175.356 180.02 173.447C180.903 171.54 181.943 169.701 182.792 167.777C183.615 165.916 184.29 163.988 185.081 162.113C185.871 160.238 186.588 158.332 187.347 156.444C188.105 154.556 188.57 152.555 189.296 150.654C189.836 149.24 190.751 147.969 191.274 146.549C191.796 145.128 191.918 143.566 192.417 142.138C192.793 141.063 193.869 139.227 194.302 137.241C194.743 135.211 194.859 133.143 194.398 132.04Z" fill="#05293C"/>
</g>
<path fill-rule="evenodd" clip-rule="evenodd" d="M138.972 25.5722C138.556 22.7988 136.619 20.4663 134.167 19.8379C134.174 19.7766 134.176 19.7131 134.165 19.6445C133.616 16.1602 132.15 12.5621 130.423 9.50702C128.909 6.82779 126.355 5.45934 123.613 4.34049C118.038 2.06486 111.523 1.92984 106.675 5.66661C106.567 5.70821 106.465 5.7812 106.382 5.89578C106.381 5.89724 106.381 5.8987 106.379 5.90016C106.023 6.18991 105.676 6.50009 105.34 6.83435C105.1 7.07301 105.116 7.36933 105.256 7.5912C102.839 11.5243 101.413 15.9719 100.699 20.5728C99.901 25.7094 99.3532 31.6627 100.995 36.6796C102.288 40.6325 105.254 43.9642 108.932 45.7501C109.99 46.2646 111.07 46.6164 112.162 46.847C111.916 51.0275 111.753 55.211 111.683 59.3995C111.677 59.8017 118.483 65.3032 122.528 65.6068C125.117 65.8002 127.748 65.3601 130.243 64.6785C132.024 64.1917 134.545 63.7975 135.777 62.2313C135.876 62.1481 135.953 62.0364 135.996 61.9087C136.091 61.7051 135.775 59.1609 135.696 58.3369C135.588 57.2304 135.481 56.124 135.373 55.0176L134.729 48.3782C134.327 44.2284 133.924 40.0778 133.521 35.9272C137.364 34.6011 139.56 29.4798 138.972 25.5722Z" fill="#FDC0B9"/>
<path fill-rule="evenodd" clip-rule="evenodd" d="M130.209 4.90301C126.228 1.66471 121.496 -0.275198 116.361 0.0320637C111.733 0.308673 107.225 2.19166 103.755 5.33361C99.3587 9.31488 97.5671 15.02 97.0588 20.8514C97.0106 21.4047 97.7709 21.6842 98.1215 21.301C99.9626 19.291 101.786 17.2643 103.6 15.2288C106.945 12.1853 109.844 8.67773 112.226 4.76726C112.803 6.20942 113.909 7.49102 114.878 8.63102C116.493 10.5337 118.381 12.1875 120.417 13.6049C124.703 16.587 129.616 18.489 134.636 19.7246C134.891 19.7873 135.213 19.6859 135.339 19.4319C138.12 13.8377 134.467 8.36755 130.209 4.90301Z" fill="#272626"/>
<path fill-rule="evenodd" clip-rule="evenodd" d="M145.518 150.851L154.967 128.649V106.609L151.647 127.802L141.508 150.702L145.518 150.851Z" fill="#05293C"/>
<path fill-rule="evenodd" clip-rule="evenodd" d="M79.6593 143.375L86.5595 112.756L73.4609 149.179C73.4609 149.179 78.8355 145.439 79.6593 143.375Z" fill="#05293C"/>
<path fill-rule="evenodd" clip-rule="evenodd" d="M58.4258 98.9024L66.4916 105.81L61.158 95.054L58.4258 98.9024Z" fill="#05293C"/>
<path fill-rule="evenodd" clip-rule="evenodd" d="M112.163 46.8472C112.163 46.8472 118.531 47.2712 121.009 44.1687C121.009 44.1687 119.416 51.9437 111.869 52.8297L112.163 46.8472Z" fill="#272626"/>
<path fill-rule="evenodd" clip-rule="evenodd" d="M115.429 329.689C116.324 328.519 110.376 245.526 111.489 243.226L112.059 204.916L112.269 190.834L111.5 329.689H115.429Z" fill="#05293C"/>
<path fill-rule="evenodd" clip-rule="evenodd" d="M137.116 26.7688C136.945 25.9886 135.643 25.3536 135.026 25.0303C134.779 24.9011 134.359 25.0529 134.401 25.3967C134.609 27.0753 134.444 28.6977 133.896 30.2954C133.72 30.8114 134.521 31.0332 134.696 30.5209C134.935 29.8253 135.101 29.1232 135.203 28.4131C135.309 28.4481 135.428 28.443 135.532 28.3766C136.071 28.0329 137.3 27.6066 137.116 26.7688Z" fill="#272626"/>
<path d="M78.7051 144.817C78.7051 144.817 105.683 157.211 143.457 156.88" stroke="white" stroke-width="2.14"/>
<path d="M114.956 155.168L112.268 190.834H122.445" stroke="white" stroke-width="2.14"/>
<path d="M119.402 155.168L116.713 190.834" stroke="white" stroke-width="2.14"/>
<path d="M94.4498 150.851C95.4738 150.581 90.1905 175.836 72.252 173.002" stroke="white" stroke-width="2.14"/>
<path d="M133.564 156.679C133.564 156.679 129.818 169.605 138.948 176.775" stroke="white" stroke-width="2.14"/>
<path fill-rule="evenodd" clip-rule="evenodd" d="M150.15 78.2183C150.15 79.2737 149.294 80.1298 148.237 80.1298C147.181 80.1298 146.324 79.2737 146.324 78.2183C146.324 77.163 147.181 76.3069 148.237 76.3069C149.294 76.3069 150.15 77.163 150.15 78.2183Z" fill="#1EA97D"/>
<path fill-rule="evenodd" clip-rule="evenodd" d="M164.277 70.4337C164.277 71.4897 163.421 72.3451 162.364 72.3451C161.308 72.3451 160.451 71.4897 160.451 70.4337C160.451 69.3783 161.308 68.5222 162.364 68.5222C163.421 68.5222 164.277 69.3783 164.277 70.4337Z" fill="#1EA97D"/>
<path fill-rule="evenodd" clip-rule="evenodd" d="M124.833 94.8135C124.833 95.8689 123.977 96.725 122.921 96.725C121.864 96.725 121.008 95.8689 121.008 94.8135C121.008 93.7582 121.864 92.9021 122.921 92.9021C123.977 92.9021 124.833 93.7582 124.833 94.8135Z" fill="#1EA97D"/>
<path fill-rule="evenodd" clip-rule="evenodd" d="M138.96 87.0291C138.96 88.0845 138.104 88.9406 137.048 88.9406C135.991 88.9406 135.135 88.0845 135.135 87.0291C135.135 85.9738 135.991 85.1177 137.048 85.1177C138.104 85.1177 138.96 85.9738 138.96 87.0291Z" fill="#1EA97D"/>
<path fill-rule="evenodd" clip-rule="evenodd" d="M99.2513 110.467C99.2513 111.522 98.3953 112.378 97.3385 112.378C96.2825 112.378 95.4258 111.522 95.4258 110.467C95.4258 109.411 96.2825 108.555 97.3385 108.555C98.3953 108.555 99.2513 109.411 99.2513 110.467Z" fill="#1EA97D"/>
<path fill-rule="evenodd" clip-rule="evenodd" d="M95.7767 131.509C95.7767 132.565 94.9207 133.421 93.8639 133.421C92.8079 133.421 91.9512 132.565 91.9512 131.509C91.9512 130.454 92.8079 129.598 93.8639 129.598C94.9207 129.598 95.7767 130.454 95.7767 131.509Z" fill="#1EA97D"/>
<path fill-rule="evenodd" clip-rule="evenodd" d="M113.378 102.682C113.378 103.737 112.522 104.593 111.465 104.593C110.409 104.593 109.553 103.737 109.553 102.682C109.553 101.627 110.409 100.771 111.465 100.771C112.522 100.771 113.378 101.627 113.378 102.682Z" fill="#1EA97D"/>
<path fill-rule="evenodd" clip-rule="evenodd" d="M123.007 78.596C123.007 79.6514 122.15 80.5075 121.094 80.5075C120.038 80.5075 119.182 79.6514 119.182 78.596C119.182 77.5407 120.038 76.6846 121.094 76.6846C122.15 76.6846 123.007 77.5407 123.007 78.596Z" fill="#1EA97D"/>
<path fill-rule="evenodd" clip-rule="evenodd" d="M137.134 70.8116C137.134 71.8669 136.277 72.723 135.221 72.723C134.165 72.723 133.309 71.8669 133.309 70.8116C133.309 69.7562 134.165 68.9001 135.221 68.9001C136.277 68.9001 137.134 69.7562 137.134 70.8116Z" fill="#1EA97D"/>
<path fill-rule="evenodd" clip-rule="evenodd" d="M97.6888 95.1912C97.6888 96.2466 96.8328 97.1027 95.776 97.1027C94.72 97.1027 93.8633 96.2466 93.8633 95.1912C93.8633 94.1352 94.72 93.2798 95.776 93.2798C96.8328 93.2798 97.6888 94.1352 97.6888 95.1912Z" fill="#1EA97D"/>
<path fill-rule="evenodd" clip-rule="evenodd" d="M111.816 87.4068C111.816 88.4622 110.96 89.3183 109.903 89.3183C108.847 89.3183 107.99 88.4622 107.99 87.4068C107.99 86.3507 108.847 85.4954 109.903 85.4954C110.96 85.4954 111.816 86.3507 111.816 87.4068Z" fill="#1EA97D"/>
<path fill-rule="evenodd" clip-rule="evenodd" d="M72.1068 110.844C72.1068 111.9 71.2501 112.756 70.194 112.756C69.1379 112.756 68.2812 111.9 68.2812 110.844C68.2812 109.789 69.1379 108.933 70.194 108.933C71.2501 108.933 72.1068 109.789 72.1068 110.844Z" fill="#1EA97D"/>
<path fill-rule="evenodd" clip-rule="evenodd" d="M86.2337 103.06C86.2337 104.115 85.377 104.971 84.321 104.971C83.2649 104.971 82.4082 104.115 82.4082 103.06C82.4082 102.005 83.2649 101.148 84.321 101.148C85.377 101.148 86.2337 102.005 86.2337 103.06Z" fill="#1EA97D"/>
<path fill-rule="evenodd" clip-rule="evenodd" d="M92.4056 76.7086C92.4056 77.7639 91.5489 78.62 90.4928 78.62C89.4368 78.62 88.5801 77.7639 88.5801 76.7086C88.5801 75.6532 89.4368 74.7971 90.4928 74.7971C91.5489 74.7971 92.4056 75.6532 92.4056 76.7086Z" fill="#1EA97D"/>
<path fill-rule="evenodd" clip-rule="evenodd" d="M106.533 68.9241C106.533 69.9795 105.676 70.8356 104.62 70.8356C103.564 70.8356 102.707 69.9795 102.707 68.9241C102.707 67.8688 103.564 67.0127 104.62 67.0127C105.676 67.0127 106.533 67.8688 106.533 68.9241Z" fill="#1EA97D"/>
<path fill-rule="evenodd" clip-rule="evenodd" d="M81.2161 85.5194C81.2161 86.5747 80.3594 87.4308 79.3034 87.4308C78.2473 87.4308 77.3906 86.5747 77.3906 85.5194C77.3906 84.464 78.2473 83.6079 79.3034 83.6079C80.3594 83.6079 81.2161 84.464 81.2161 85.5194Z" fill="#1EA97D"/>
<path fill-rule="evenodd" clip-rule="evenodd" d="M42.2708 111.251C42.2708 112.307 41.4141 113.162 40.3581 113.162C39.302 113.162 38.4453 112.307 38.4453 111.251C38.4453 110.195 39.302 109.339 40.3581 109.339C41.4141 109.339 42.2708 110.195 42.2708 111.251Z" fill="#1EA97D"/>
<path fill-rule="evenodd" clip-rule="evenodd" d="M55.6321 101.172C55.6321 102.228 54.7762 103.084 53.7194 103.084C52.6633 103.084 51.8066 102.228 51.8066 101.172C51.8066 100.117 52.6633 99.261 53.7194 99.261C54.7762 99.261 55.6321 100.117 55.6321 101.172Z" fill="#1EA97D"/>
<path fill-rule="evenodd" clip-rule="evenodd" d="M39.5931 93.2796C39.5931 94.335 38.7364 95.1911 37.6803 95.1911C36.6243 95.1911 35.7676 94.335 35.7676 93.2796C35.7676 92.2235 36.6243 91.3682 37.6803 91.3682C38.7364 91.3682 39.5931 92.2235 39.5931 93.2796Z" fill="#1EA97D"/>
<path fill-rule="evenodd" clip-rule="evenodd" d="M44.1849 127.548C44.1849 128.603 43.3282 129.459 42.2721 129.459C41.2161 129.459 40.3594 128.603 40.3594 127.548C40.3594 126.493 41.2161 125.636 42.2721 125.636C43.3282 125.636 44.1849 126.493 44.1849 127.548Z" fill="#1EA97D"/>
<path fill-rule="evenodd" clip-rule="evenodd" d="M57.5462 143.519C57.5462 144.574 56.6903 145.43 55.6335 145.43C54.5774 145.43 53.7207 144.574 53.7207 143.519C53.7207 142.464 54.5774 141.607 55.6335 141.607C56.6903 141.607 57.5462 142.464 57.5462 143.519Z" fill="#1EA97D"/>
<path fill-rule="evenodd" clip-rule="evenodd" d="M25.1478 104.594C25.1478 105.649 24.2911 106.505 23.235 106.505C22.179 106.505 21.3223 105.649 21.3223 104.594C21.3223 103.538 22.179 102.682 23.235 102.682C24.2911 102.682 25.1478 103.538 25.1478 104.594Z" fill="#1EA97D"/>
<path fill-rule="evenodd" clip-rule="evenodd" d="M27.8275 118.895C27.8275 119.951 26.9708 120.807 25.9147 120.807C24.8579 120.807 24.002 119.951 24.002 118.895C24.002 117.839 24.8579 116.984 25.9147 116.984C26.9708 116.984 27.8275 117.839 27.8275 118.895Z" fill="#1EA97D"/>
<path fill-rule="evenodd" clip-rule="evenodd" d="M161.808 90.8521C161.808 91.9075 160.951 92.7636 159.895 92.7636C158.839 92.7636 157.982 91.9075 157.982 90.8521C157.982 89.7968 158.839 88.9407 159.895 88.9407C160.951 88.9407 161.808 89.7968 161.808 90.8521Z" fill="#1EA97D"/>
<path fill-rule="evenodd" clip-rule="evenodd" d="M175.935 83.0677C175.935 84.123 175.079 84.9791 174.022 84.9791C172.966 84.9791 172.109 84.123 172.109 83.0677C172.109 82.0124 172.966 81.1562 174.022 81.1562C175.079 81.1562 175.935 82.0124 175.935 83.0677Z" fill="#1EA97D"/>
<path fill-rule="evenodd" clip-rule="evenodd" d="M136.492 107.447C136.492 108.503 135.635 109.359 134.579 109.359C133.523 109.359 132.666 108.503 132.666 107.447C132.666 106.392 133.523 105.536 134.579 105.536C135.635 105.536 136.492 106.392 136.492 107.447Z" fill="#1EA97D"/>
<path fill-rule="evenodd" clip-rule="evenodd" d="M150.618 99.6629C150.618 100.718 149.762 101.574 148.706 101.574C147.65 101.574 146.793 100.718 146.793 99.6629C146.793 98.6076 147.65 97.7515 148.706 97.7515C149.762 97.7515 150.618 98.6076 150.618 99.6629Z" fill="#1EA97D"/>
<path fill-rule="evenodd" clip-rule="evenodd" d="M110.908 123.1C110.908 124.156 110.051 125.012 108.995 125.012C107.939 125.012 107.082 124.156 107.082 123.1C107.082 122.045 107.939 121.189 108.995 121.189C110.051 121.189 110.908 122.045 110.908 123.1Z" fill="#1EA97D"/>
<path fill-rule="evenodd" clip-rule="evenodd" d="M125.034 115.316C125.034 116.371 124.179 117.227 123.122 117.227C122.066 117.227 121.209 116.371 121.209 115.316C121.209 114.261 122.066 113.405 123.122 113.405C124.179 113.405 125.034 114.261 125.034 115.316Z" fill="#1EA97D"/>
<path fill-rule="evenodd" clip-rule="evenodd" d="M175.267 101.172C175.267 102.228 174.411 103.084 173.354 103.084C172.298 103.084 171.441 102.228 171.441 101.172C171.441 100.117 172.298 99.261 173.354 99.261C174.411 99.261 175.267 100.117 175.267 101.172Z" fill="#1EA97D"/>
<path fill-rule="evenodd" clip-rule="evenodd" d="M149.951 117.768C149.951 118.823 149.094 119.679 148.038 119.679C146.982 119.679 146.125 118.823 146.125 117.768C146.125 116.713 146.982 115.856 148.038 115.856C149.094 115.856 149.951 116.713 149.951 117.768Z" fill="#1EA97D"/>
<path fill-rule="evenodd" clip-rule="evenodd" d="M164.077 109.983C164.077 111.039 163.221 111.895 162.165 111.895C161.109 111.895 160.252 111.039 160.252 109.983C160.252 108.928 161.109 108.072 162.165 108.072C163.221 108.072 164.077 108.928 164.077 109.983Z" fill="#1EA97D"/>
<path fill-rule="evenodd" clip-rule="evenodd" d="M124.367 133.421C124.367 134.476 123.511 135.332 122.454 135.332C121.398 135.332 120.541 134.476 120.541 133.421C120.541 132.365 121.398 131.509 122.454 131.509C123.511 131.509 124.367 132.365 124.367 133.421Z" fill="#1EA97D"/>
<path fill-rule="evenodd" clip-rule="evenodd" d="M111.816 139.535C111.816 140.591 110.96 141.447 109.903 141.447C108.847 141.447 107.99 140.591 107.99 139.535C107.99 138.48 108.847 137.624 109.903 137.624C110.96 137.624 111.816 138.48 111.816 139.535Z" fill="#1EA97D"/>
<path fill-rule="evenodd" clip-rule="evenodd" d="M138.493 125.636C138.493 126.692 137.638 127.548 136.581 127.548C135.525 127.548 134.668 126.692 134.668 125.636C134.668 124.581 135.525 123.725 136.581 123.725C137.638 123.725 138.493 124.581 138.493 125.636Z" fill="#1EA97D"/>
<path fill-rule="evenodd" clip-rule="evenodd" d="M137.048 141.607C137.048 142.663 136.191 143.519 135.135 143.519C134.079 143.519 133.223 142.663 133.223 141.607C133.223 140.552 134.079 139.696 135.135 139.696C136.191 139.696 137.048 140.552 137.048 141.607Z" fill="#1EA97D"/>
<path fill-rule="evenodd" clip-rule="evenodd" d="M187.39 117.768C187.39 118.823 186.533 119.679 185.477 119.679C184.421 119.679 183.564 118.823 183.564 117.768C183.564 116.713 184.421 115.856 185.477 115.856C186.533 115.856 187.39 116.713 187.39 117.768Z" fill="#1EA97D"/>
<path fill-rule="evenodd" clip-rule="evenodd" d="M161.808 133.421C161.808 134.476 160.951 135.332 159.895 135.332C158.839 135.332 157.982 134.476 157.982 133.421C157.982 132.365 158.839 131.509 159.895 131.509C160.951 131.509 161.808 132.365 161.808 133.421Z" fill="#1EA97D"/>
<path fill-rule="evenodd" clip-rule="evenodd" d="M175.935 125.636C175.935 126.692 175.079 127.548 174.022 127.548C172.966 127.548 172.109 126.692 172.109 125.636C172.109 124.581 172.966 123.725 174.022 123.725C175.079 123.725 175.935 124.581 175.935 125.636Z" fill="#1EA97D"/>
<path fill-rule="evenodd" clip-rule="evenodd" d="M176.201 143.519C176.201 144.574 175.344 145.43 174.288 145.43C173.231 145.43 172.375 144.574 172.375 143.519C172.375 142.464 173.231 141.607 174.288 141.607C175.344 141.607 176.201 142.464 176.201 143.519Z" fill="#1EA97D"/>
<path fill-rule="evenodd" clip-rule="evenodd" d="M190.327 135.734C190.327 136.79 189.471 137.646 188.415 137.646C187.358 137.646 186.502 136.79 186.502 135.734C186.502 134.679 187.358 133.823 188.415 133.823C189.471 133.823 190.327 134.679 190.327 135.734Z" fill="#1EA97D"/>
<path fill-rule="evenodd" clip-rule="evenodd" d="M150.618 159.172C150.618 160.227 149.762 161.083 148.706 161.083C147.65 161.083 146.793 160.227 146.793 159.172C146.793 158.117 147.65 157.26 148.706 157.26C149.762 157.26 150.618 158.117 150.618 159.172Z" fill="#1EA97D"/>
<path fill-rule="evenodd" clip-rule="evenodd" d="M164.743 151.387C164.743 152.443 163.887 153.299 162.831 153.299C161.775 153.299 160.918 152.443 160.918 151.387C160.918 150.332 161.775 149.476 162.831 149.476C163.887 149.476 164.743 150.332 164.743 151.387Z" fill="#1EA97D"/>
<path fill-rule="evenodd" clip-rule="evenodd" d="M177.447 163.535C177.447 164.591 176.59 165.447 175.534 165.447C174.477 165.447 173.621 164.591 173.621 163.535C173.621 162.479 174.477 161.624 175.534 161.624C176.59 161.624 177.447 162.479 177.447 163.535Z" fill="#1EA97D"/>
<path fill-rule="evenodd" clip-rule="evenodd" d="M151.863 179.188C151.863 180.244 151.006 181.1 149.95 181.1C148.894 181.1 148.037 180.244 148.037 179.188C148.037 178.133 148.894 177.277 149.95 177.277C151.006 177.277 151.863 178.133 151.863 179.188Z" fill="#1EA97D"/>
<path fill-rule="evenodd" clip-rule="evenodd" d="M165.99 171.404C165.99 172.459 165.133 173.315 164.077 173.315C163.021 173.315 162.164 172.459 162.164 171.404C162.164 170.349 163.021 169.492 164.077 169.492C165.133 169.492 165.99 170.349 165.99 171.404Z" fill="#1EA97D"/>
<path fill-rule="evenodd" clip-rule="evenodd" d="M60.3392 119.679C60.3392 120.735 59.4825 121.591 58.4264 121.591C57.3704 121.591 56.5137 120.735 56.5137 119.679C56.5137 118.624 57.3704 117.768 58.4264 117.768C59.4825 117.768 60.3392 118.624 60.3392 119.679Z" fill="#1EA97D"/>
<path fill-rule="evenodd" clip-rule="evenodd" d="M72.1068 131.509C72.1068 132.565 71.2501 133.421 70.194 133.421C69.1379 133.421 68.2812 132.565 68.2812 131.509C68.2812 130.454 69.1379 129.598 70.194 129.598C71.2501 129.598 72.1068 130.454 72.1068 131.509Z" fill="#1EA97D"/>
<path fill-rule="evenodd" clip-rule="evenodd" d="M167.091 185.463C167.091 186.519 166.235 187.375 165.178 187.375C164.122 187.375 163.266 186.519 163.266 185.463C163.266 184.407 164.122 183.552 165.178 183.552C166.235 183.552 167.091 184.407 167.091 185.463Z" fill="#1EA97D"/>
<path fill-rule="evenodd" clip-rule="evenodd" d="M151.346 353.127L153.858 357.136L156.553 356.828L156.896 356.763L153.965 326.402L132.83 326.17C132.83 326.17 136.966 339.89 130.527 345.511C124.09 351.133 115.54 346.923 117.481 361.295L149.714 357.611L151.346 353.127Z" fill="white"/>
<path fill-rule="evenodd" clip-rule="evenodd" d="M98.1183 353.304L100.279 357.514L102.99 357.437L103.337 357.402L103.017 326.901L81.9778 324.863C81.9778 324.863 84.9247 338.887 78.0289 343.936C71.1338 348.987 62.9759 344.062 63.6792 358.547L96.1091 357.632L98.1183 353.304Z" fill="white"/>
</svg>
