<svg width="143" height="40" viewBox="0 0 143 40" fill="none" xmlns="http://www.w3.org/2000/svg">
<g opacity="0.75">
<path d="M3.82898 27H1.62898V12.7H7.58898C10.289 12.7 12.269 13.96 12.269 16.96C12.269 19.96 10.289 21.2 7.58898 21.2H3.82898V27ZM3.82898 19.3H7.48898C9.14898 19.3 9.98898 18.56 9.98898 16.96C9.98898 15.34 9.14898 14.6 7.48898 14.6H3.82898V19.3ZM22.6416 21.68C22.6416 21.96 22.6416 22.26 22.6216 22.42H14.7816C14.8216 24.12 15.8216 25.7 17.8416 25.7C19.6416 25.7 20.3416 24.54 20.5216 23.86H22.5216C21.9816 25.82 20.4816 27.3 17.8016 27.3C14.5616 27.3 12.7616 25 12.7616 21.88C12.7616 18.68 14.6816 16.48 17.8016 16.48C20.9016 16.48 22.6416 18.52 22.6416 21.68ZM14.7816 20.88H20.6016C20.6016 19.28 19.4816 18.08 17.7416 18.08C16.1016 18.08 14.9016 19.2 14.7816 20.88ZM29.0373 16.56C29.3973 16.56 29.6773 16.58 29.9773 16.62V18.5C29.7373 18.46 29.5573 18.44 29.3173 18.44C27.5373 18.44 26.2573 19.78 26.2573 21.72V27H24.2973V16.8H26.2573V18.74H26.2973C26.8373 17.46 27.6573 16.56 29.0373 16.56ZM35.0555 27.28C31.9555 27.28 30.4155 25.68 30.3555 23.6H32.3355C32.4155 24.78 33.1355 25.7 35.0355 25.7C36.7555 25.7 37.2155 24.94 37.2155 24.2C37.2155 22.92 35.8555 22.78 34.5355 22.5C32.7555 22.08 30.7155 21.56 30.7155 19.44C30.7155 17.68 32.1355 16.5 34.5955 16.5C37.3955 16.5 38.7355 18 38.8755 19.76H36.8955C36.7555 18.98 36.3355 18.08 34.6355 18.08C33.3155 18.08 32.7555 18.6 32.7555 19.36C32.7555 20.42 33.8955 20.52 35.3355 20.84C37.2155 21.28 39.2555 21.82 39.2555 24.1C39.2555 26.08 37.7355 27.28 35.0555 27.28ZM45.3612 27.3C42.1812 27.3 40.2612 25.1 40.2612 21.9C40.2612 18.72 42.1812 16.48 45.3812 16.48C48.5412 16.48 50.4612 18.7 50.4612 21.88C50.4612 25.08 48.5412 27.3 45.3612 27.3ZM45.3812 25.68C47.4612 25.68 48.4212 24.02 48.4212 21.9C48.4212 19.76 47.4612 18.12 45.3812 18.12C43.2612 18.12 42.3012 19.76 42.3012 21.9C42.3012 24.02 43.2612 25.68 45.3812 25.68ZM57.4893 16.5C59.3693 16.5 60.8893 17.58 60.8893 19.92V27H58.9293V20.46C58.9293 19.1 58.3293 18.18 56.8493 18.18C55.1693 18.18 54.0893 19.2 54.0893 20.74V27H52.1293V16.8H54.0893V18.08H54.1293C54.6693 17.3 55.7293 16.5 57.4893 16.5ZM65.8282 27.28C63.7882 27.28 62.4882 26.1 62.4882 24.36C62.4882 22.08 64.2082 21.4 66.7482 20.92C68.3482 20.62 69.3282 20.42 69.3282 19.42C69.3282 18.68 68.8882 18.06 67.3882 18.06C65.6082 18.06 65.0682 18.62 64.9682 19.98H62.9682C63.0682 18.02 64.3482 16.48 67.4682 16.48C69.5682 16.48 71.2482 17.36 71.2482 20V24.68C71.2482 25.42 71.3482 25.8 71.7282 25.8C71.7882 25.8 71.8482 25.8 71.9682 25.78V26.98C71.6282 27.06 71.2882 27.1 70.9682 27.1C69.9882 27.1 69.4682 26.72 69.3482 25.56H69.3082C68.6482 26.62 67.4882 27.28 65.8282 27.28ZM66.2682 25.7C68.0282 25.7 69.3282 24.8 69.3282 23.02V21.56C69.0082 21.86 68.1282 22.08 67.0882 22.3C65.2882 22.66 64.5282 23.16 64.5282 24.22C64.5282 25.18 65.0482 25.7 66.2682 25.7ZM75.5932 27H73.6332V12.7H75.5932V27ZM84.493 27H82.293V12.7H88.253C90.953 12.7 92.933 13.96 92.933 16.96C92.933 19.96 90.953 21.2 88.253 21.2H84.493V27ZM84.493 19.3H88.153C89.813 19.3 90.653 18.56 90.653 16.96C90.653 15.34 89.813 14.6 88.153 14.6H84.493V19.3ZM99.0568 16.56C99.4168 16.56 99.6968 16.58 99.9968 16.62V18.5C99.7568 18.46 99.5768 18.44 99.3368 18.44C97.5568 18.44 96.2768 19.78 96.2768 21.72V27H94.3168V16.8H96.2768V18.74H96.3168C96.8568 17.46 97.6768 16.56 99.0568 16.56ZM105.4 27.3C102.22 27.3 100.3 25.1 100.3 21.9C100.3 18.72 102.22 16.48 105.42 16.48C108.58 16.48 110.5 18.7 110.5 21.88C110.5 25.08 108.58 27.3 105.4 27.3ZM105.42 25.68C107.5 25.68 108.46 24.02 108.46 21.9C108.46 19.76 107.5 18.12 105.42 18.12C103.3 18.12 102.34 19.76 102.34 21.9C102.34 24.02 103.3 25.68 105.42 25.68ZM114.268 14.98H112.048V12.86H114.268V14.98ZM111.688 30.62C111.268 30.62 110.968 30.58 110.468 30.5V28.88C110.788 28.92 110.948 28.94 111.248 28.94C111.868 28.94 112.168 28.6 112.168 27.46V16.8H114.128V27.54C114.128 29.72 113.128 30.62 111.688 30.62ZM125.689 21.68C125.689 21.96 125.689 22.26 125.669 22.42H117.829C117.869 24.12 118.869 25.7 120.889 25.7C122.689 25.7 123.389 24.54 123.569 23.86H125.569C125.029 25.82 123.529 27.3 120.849 27.3C117.609 27.3 115.809 25 115.809 21.88C115.809 18.68 117.729 16.48 120.849 16.48C123.949 16.48 125.689 18.52 125.689 21.68ZM117.829 20.88H123.649C123.649 19.28 122.529 18.08 120.789 18.08C119.149 18.08 117.949 19.2 117.829 20.88ZM131.824 27.3C128.784 27.3 126.804 25.1 126.804 21.9C126.804 18.7 128.784 16.5 131.804 16.5C134.424 16.5 136.164 18.2 136.404 20.5H134.384C134.284 19.44 133.684 18.12 131.824 18.12C129.644 18.12 128.844 19.98 128.844 21.9C128.844 23.82 129.644 25.66 131.824 25.66C133.704 25.66 134.284 24.38 134.384 23.22H136.404C136.264 25.56 134.444 27.3 131.824 27.3ZM141.651 25.5C141.991 25.5 142.151 25.48 142.491 25.42V27C141.991 27.1 141.671 27.12 141.251 27.12C139.571 27.12 138.551 26.48 138.551 24.12V18.42H137.071V16.8H138.551V13.52H140.511V16.8H142.471V18.42H140.511V24.18C140.511 25.26 140.811 25.5 141.651 25.5Z" fill="#0D0D0B"/>
</g>
</svg>
